<svg version="1.1" baseProfile="full" width="1044.0" height="584.0" viewbox="0 0 1044 584" xmlns="http://www.w3.org/2000/svg" xmlns:xlink="http://www.w3.org/1999/xlink" xmlns:ev="http://www.w3.org/2001/xml-events">
		<title >ProjectsInheritance</title>
	<desc >#title: ProjectsInheritance
	#.base: fill=orange dashed bold italic
	#.abstract: fill=yellow bold italic
	#.concrete: fill=lime bold
	
	[&lt;base&gt;Common]
	[&lt;base&gt;Measurables]
	[&lt;base&gt;BaseMeasurements]
	[&lt;base&gt;BaseQuantifiables]
	[&lt;base&gt;Quantifiables]
	[&lt;base&gt;BaseMeasures]
	[&lt;base&gt;Spreads]
	[&lt;base&gt;Shapes]
	[&lt;base&gt;BaseRates]
	
	[&lt;abstract&gt;SimpleShapes]
	[&lt;abstract&gt;ComplexShapes]
	[&lt;abstract&gt;SimpleRates]
	
	[&lt;concrete&gt;Measurements]
	[&lt;concrete&gt;Measures]
	[&lt;concrete&gt;ShapeLimits]
	[&lt;concrete&gt;RateComponents]
	[&lt;concrete&gt;Rates]
	[&lt;concrete&gt;Proportions]
	[&lt;concrete&gt;ProportionLimits]
	[&lt;concrete&gt;BulkSpreads]
	[&lt;concrete&gt;PlaneShapes]
	[&lt;concrete&gt;DryBodies]
	[&lt;concrete&gt;Masses]
	[&lt;concrete&gt;Sections]
	[&lt;concrete&gt;ComplexDryBodies]
	
	[Common]&lt;:-[Measurables]
	[Measurables]&lt;:-[BaseMeasurements]
	[BaseMeasurements]&lt;:-[Measurements]
	[Measurables]&lt;:-[BaseQuantifiables]
	[BaseQuantifiables]&lt;:-[BaseRates]
	[BaseQuantifiables]&lt;:-[Masses]
	[BaseQuantifiables]&lt;:-[Quantifiables]
	[Quantifiables]&lt;:-[BaseMeasures]
	[Quantifiables]&lt;:-[Spreads]
	[Spreads]&lt;:-[Shapes]
	[Spreads]&lt;:-[BulkSpreads]
	[Shapes]&lt;:-[SimpleShapes]
	[SimpleShapes]&lt;:-[ShapeLimits]
	[SimpleShapes]&lt;:-[PlaneShapes]
	[SimpleShapes]&lt;:-[DryBodies]
	[BaseMeasures]&lt;:-[Measures]
	[BaseMeasures]&lt;:-[RateComponents]
	[BaseRates]&lt;:-[SimpleRates]
	[BaseRates]&lt;:-[Rates]
	[SimpleRates]&lt;:-[ProportionLimits]
	[SimpleRates]&lt;:-[Proportions]
	[Shapes]&lt;:-[ComplexShapes]
	[ComplexShapes]&lt;:-[Sections]
	[ComplexShapes]&lt;:-[ComplexDryBodies]</desc>
	<g stroke-width="1.0" text-align="left" font="12pt Helvetica, Arial, sans-serif" font-size="12pt" font-family="Helvetica" font-weight="bold" font-style="normal">
			<g font-family="Helvetica" font-size="12pt" font-weight="bold" font-style="normal" stroke-width="3.0" stroke-linejoin="round" stroke-linecap="round" stroke="#33322E">
				<g stroke="transparent" fill="transparent">
					<rect x="0.0" y="0.0" height="584.0" width="1044.0" stroke="none"></rect>
				</g>
			<g transform="translate(8, 8)" fill="#33322E">
					<g transform="translate(20, 20)" fill="#eee8d5" font-family="Helvetica" font-size="12pt" font-weight="normal" font-style="normal">
						<path d="M223.8 44.3 L223.75 51 L223.75 71 L223.8 71.0 " fill="none"></path>
					<path d="M229.1 44.3 L223.8 44.3 L218.4 44.3 L223.8 31.0 Z"></path>
					<path d="M154.3 104.2 L84.25 122 L84.25 142 L84.3 142.0 " fill="none"></path>
					<path d="M155.6 109.3 L154.3 104.2 L153.0 99.0 L167.3 100.9 Z"></path>
					<path d="M84.3 186.3 L84.25 193 L84.25 213 L84.3 213.0 " fill="none"></path>
					<path d="M89.6 186.3 L84.3 186.3 L78.9 186.3 L84.3 173.0 Z"></path>
					<path d="M293.3 101.8 L384.75 122 L384.75 142 L384.8 142.0 " fill="none"></path>
					<path d="M294.4 96.6 L293.3 101.8 L292.1 107.0 L280.3 99.0 Z"></path>
					<path d="M318.0 176.7 L261.25 193 L261.25 213 L261.3 213.0 " fill="none"></path>
					<path d="M319.5 181.8 L318.0 176.7 L316.5 171.6 L330.8 173.0 Z"></path>
					<path d="M402.7 184.0 L408.75 193 L408.75 213 L408.8 213.0 " fill="none"></path>
					<path d="M407.1 181.1 L402.7 184.0 L398.3 187.0 L395.2 173.0 Z"></path>
					<path d="M475.9 171.1 L622.5 193 L622.5 213 L622.5 213.0 " fill="none"></path>
					<path d="M476.7 165.8 L475.9 171.1 L475.1 176.4 L462.8 169.1 Z"></path>
					<path d="M551.0 244.1 L459.5 264 L459.5 284 L459.5 284.0 " fill="none"></path>
					<path d="M552.1 249.3 L551.0 244.1 L549.8 238.9 L564.0 241.2 Z"></path>
					<path d="M692.5 247.5 L753.25 264 L753.25 284 L753.3 284.0 " fill="none"></path>
					<path d="M693.9 242.3 L692.5 247.5 L691.1 252.6 L679.6 244.0 Z"></path>
					<path d="M712.3 321.3 L686.5 335 L686.5 355 L686.5 355.0 " fill="none"></path>
					<path d="M714.8 326.0 L712.3 321.3 L709.8 316.6 L724.1 315.0 Z"></path>
					<path d="M794.2 321.3 L820 335 L820 355 L820.0 355.0 " fill="none"></path>
					<path d="M796.7 316.6 L794.2 321.3 L791.7 326.0 L782.4 315.0 Z"></path>
					<path d="M637.0 382.5 L540 406 L540 426 L540.0 426.0 " fill="none"></path>
					<path d="M638.3 387.7 L637.0 382.5 L635.8 377.3 L650.0 379.3 Z"></path>
					<path d="M464.3 453.4 L313.5 477 L313.5 497 L313.5 497.0 " fill="none"></path>
					<path d="M465.2 458.6 L464.3 453.4 L463.5 448.1 L477.5 451.3 Z"></path>
					<path d="M496.1 462.8 L467 477 L467 497 L467.0 497.0 " fill="none"></path>
					<path d="M498.5 467.6 L496.1 462.8 L493.8 458.0 L508.1 457.0 Z"></path>
					<path d="M583.9 462.8 L613 477 L613 497 L613.0 497.0 " fill="none"></path>
					<path d="M586.2 458.0 L583.9 462.8 L581.5 467.6 L571.9 457.0 Z"></path>
					<path d="M411.2 320.3 L377 335 L377 355 L377.0 355.0 " fill="none"></path>
					<path d="M413.3 325.2 L411.2 320.3 L409.1 315.4 L423.5 315.0 Z"></path>
					<path d="M505.0 320.6 L536 335 L536 355 L536.0 355.0 " fill="none"></path>
					<path d="M507.2 315.8 L505.0 320.6 L502.8 325.5 L492.9 315.0 Z"></path>
					<path d="M205.4 248.5 L162 264 L162 284 L162.0 284.0 " fill="none"></path>
					<path d="M207.2 253.5 L205.4 248.5 L203.6 243.5 L217.9 244.0 Z"></path>
					<path d="M301.0 250.4 L325.5 264 L325.5 284 L325.5 284.0 " fill="none"></path>
					<path d="M303.6 245.8 L301.0 250.4 L298.4 255.1 L289.3 244.0 Z"></path>
					<path d="M110.5 319.9 L72.5 335 L72.5 355 L72.5 355.0 " fill="none"></path>
					<path d="M112.5 324.9 L110.5 319.9 L108.6 315.0 L122.9 315.0 Z"></path>
					<path d="M207.5 320.6 L238.5 335 L238.5 355 L238.5 355.0 " fill="none"></path>
					<path d="M209.7 315.8 L207.5 320.6 L205.3 325.5 L195.4 315.0 Z"></path>
					<path d="M735.9 383.2 L824.25 406 L824.25 426 L824.3 426.0 " fill="none"></path>
					<path d="M737.2 378.1 L735.9 383.2 L734.6 388.4 L723.0 379.9 Z"></path>
					<path d="M776.3 462.3 L742.5 477 L742.5 497 L742.5 497.0 " fill="none"></path>
					<path d="M778.5 467.2 L776.3 462.3 L774.2 457.4 L788.6 457.0 Z"></path>
					<path d="M872.2 462.3 L906 477 L906 497 L906.0 497.0 " fill="none"></path>
					<path d="M874.3 457.4 L872.2 462.3 L870.0 467.2 L859.9 457.0 Z"></path>
					<g data-name="Common">
							<g fill="orange" stroke="#33322E" stroke-dasharray="6 6" data-name="Common">
								<rect x="181.3" y="0.0" height="31.0" width="85.0" data-name="Common"></rect>
							</g>
						<g transform="translate(181.25, 0)" font-family="Helvetica" font-size="12pt" font-weight="bold" font-style="italic" data-name="Common">
								<g transform="translate(8, 8)" fill="#33322E" text-align="center" data-name="Common">
									<text x="34.5" y="13.5" stroke="none" text-anchor="middle" data-name="Common">Common</text>
								
								</g>
							</g>
						</g>
					<g data-name="Measurables">
							<g fill="orange" stroke="#33322E" stroke-dasharray="6 6" data-name="Measurables">
								<rect x="167.3" y="71.0" height="31.0" width="113.0" data-name="Measurables"></rect>
							</g>
						<g transform="translate(167.25, 71)" font-family="Helvetica" font-size="12pt" font-weight="bold" font-style="italic" data-name="Measurables">
								<g transform="translate(8, 8)" fill="#33322E" text-align="center" data-name="Measurables">
									<text x="48.5" y="13.5" stroke="none" text-anchor="middle" data-name="Measurables">Measurables</text>
								
								</g>
							</g>
						</g>
					<g data-name="BaseMeasurements">
							<g fill="orange" stroke="#33322E" stroke-dasharray="6 6" data-name="BaseMeasurements">
								<rect x="1.3" y="142.0" height="31.0" width="166.0" data-name="BaseMeasurements"></rect>
							</g>
						<g transform="translate(1.25, 142)" font-family="Helvetica" font-size="12pt" font-weight="bold" font-style="italic" data-name="BaseMeasurements">
								<g transform="translate(8, 8)" fill="#33322E" text-align="center" data-name="BaseMeasurements">
									<text x="75.0" y="13.5" stroke="none" text-anchor="middle" data-name="BaseMeasurements">BaseMeasurements</text>
								
								</g>
							</g>
						</g>
					<g data-name="BaseQuantifiables">
							<g fill="orange" stroke="#33322E" stroke-dasharray="6 6" data-name="BaseQuantifiables">
								<rect x="306.8" y="142.0" height="31.0" width="156.0" data-name="BaseQuantifiables"></rect>
							</g>
						<g transform="translate(306.75, 142)" font-family="Helvetica" font-size="12pt" font-weight="bold" font-style="italic" data-name="BaseQuantifiables">
								<g transform="translate(8, 8)" fill="#33322E" text-align="center" data-name="BaseQuantifiables">
									<text x="70.0" y="13.5" stroke="none" text-anchor="middle" data-name="BaseQuantifiables">BaseQuantifiables</text>
								
								</g>
							</g>
						</g>
					<g data-name="Quantifiables">
							<g fill="orange" stroke="#33322E" stroke-dasharray="6 6" data-name="Quantifiables">
								<rect x="564.0" y="213.0" height="31.0" width="117.0" data-name="Quantifiables"></rect>
							</g>
						<g transform="translate(564, 213)" font-family="Helvetica" font-size="12pt" font-weight="bold" font-style="italic" data-name="Quantifiables">
								<g transform="translate(8, 8)" fill="#33322E" text-align="center" data-name="Quantifiables">
									<text x="50.5" y="13.5" stroke="none" text-anchor="middle" data-name="Quantifiables">Quantifiables</text>
								
								</g>
							</g>
						</g>
					<g data-name="BaseMeasures">
							<g fill="orange" stroke="#33322E" stroke-dasharray="6 6" data-name="BaseMeasures">
								<rect x="395.5" y="284.0" height="31.0" width="128.0" data-name="BaseMeasures"></rect>
							</g>
						<g transform="translate(395.5, 284)" font-family="Helvetica" font-size="12pt" font-weight="bold" font-style="italic" data-name="BaseMeasures">
								<g transform="translate(8, 8)" fill="#33322E" text-align="center" data-name="BaseMeasures">
									<text x="56.0" y="13.5" stroke="none" text-anchor="middle" data-name="BaseMeasures">BaseMeasures</text>
								
								</g>
							</g>
						</g>
					<g data-name="Spreads">
							<g fill="orange" stroke="#33322E" stroke-dasharray="6 6" data-name="Spreads">
								<rect x="713.8" y="284.0" height="31.0" width="79.0" data-name="Spreads"></rect>
							</g>
						<g transform="translate(713.75, 284)" font-family="Helvetica" font-size="12pt" font-weight="bold" font-style="italic" data-name="Spreads">
								<g transform="translate(8, 8)" fill="#33322E" text-align="center" data-name="Spreads">
									<text x="31.5" y="13.5" stroke="none" text-anchor="middle" data-name="Spreads">Spreads</text>
								
								</g>
							</g>
						</g>
					<g data-name="Shapes">
							<g fill="orange" stroke="#33322E" stroke-dasharray="6 6" data-name="Shapes">
								<rect x="650.0" y="355.0" height="31.0" width="73.0" data-name="Shapes"></rect>
							</g>
						<g transform="translate(650, 355)" font-family="Helvetica" font-size="12pt" font-weight="bold" font-style="italic" data-name="Shapes">
								<g transform="translate(8, 8)" fill="#33322E" text-align="center" data-name="Shapes">
									<text x="28.5" y="13.5" stroke="none" text-anchor="middle" data-name="Shapes">Shapes</text>
								
								</g>
							</g>
						</g>
					<g data-name="BaseRates">
							<g fill="orange" stroke="#33322E" stroke-dasharray="6 6" data-name="BaseRates">
								<rect x="212.3" y="213.0" height="31.0" width="98.0" data-name="BaseRates"></rect>
							</g>
						<g transform="translate(212.25, 213)" font-family="Helvetica" font-size="12pt" font-weight="bold" font-style="italic" data-name="BaseRates">
								<g transform="translate(8, 8)" fill="#33322E" text-align="center" data-name="BaseRates">
									<text x="41.0" y="13.5" stroke="none" text-anchor="middle" data-name="BaseRates">BaseRates</text>
								
								</g>
							</g>
						</g>
					<g data-name="SimpleShapes">
							<g fill="yellow" stroke="#33322E" data-name="SimpleShapes">
								<rect x="477.5" y="426.0" height="31.0" width="125.0" data-name="SimpleShapes"></rect>
							</g>
						<g transform="translate(477.5, 426)" font-family="Helvetica" font-size="12pt" font-weight="bold" font-style="italic" data-name="SimpleShapes">
								<g transform="translate(8, 8)" fill="#33322E" text-align="center" data-name="SimpleShapes">
									<text x="54.5" y="13.5" stroke="none" text-anchor="middle" data-name="SimpleShapes">SimpleShapes</text>
								
								</g>
							</g>
						</g>
					<g data-name="ComplexShapes">
							<g fill="yellow" stroke="#33322E" data-name="ComplexShapes">
								<rect x="754.3" y="426.0" height="31.0" width="140.0" data-name="ComplexShapes"></rect>
							</g>
						<g transform="translate(754.25, 426)" font-family="Helvetica" font-size="12pt" font-weight="bold" font-style="italic" data-name="ComplexShapes">
								<g transform="translate(8, 8)" fill="#33322E" text-align="center" data-name="ComplexShapes">
									<text x="62.0" y="13.5" stroke="none" text-anchor="middle" data-name="ComplexShapes">ComplexShapes</text>
								
								</g>
							</g>
						</g>
					<g data-name="SimpleRates">
							<g fill="yellow" stroke="#33322E" data-name="SimpleRates">
								<rect x="106.0" y="284.0" height="31.0" width="112.0" data-name="SimpleRates"></rect>
							</g>
						<g transform="translate(106, 284)" font-family="Helvetica" font-size="12pt" font-weight="bold" font-style="italic" data-name="SimpleRates">
								<g transform="translate(8, 8)" fill="#33322E" text-align="center" data-name="SimpleRates">
									<text x="48.0" y="13.5" stroke="none" text-anchor="middle" data-name="SimpleRates">SimpleRates</text>
								
								</g>
							</g>
						</g>
					<g data-name="Measurements">
							<g fill="lime" stroke="#33322E" data-name="Measurements">
								<rect x="20.3" y="213.0" height="31.0" width="128.0" data-name="Measurements"></rect>
							</g>
						<g transform="translate(20.25, 213)" font-family="Helvetica" font-size="12pt" font-weight="bold" font-style="normal" data-name="Measurements">
								<g transform="translate(8, 8)" fill="#33322E" text-align="center" data-name="Measurements">
									<text x="56.0" y="13.5" stroke="none" text-anchor="middle" data-name="Measurements">Measurements</text>
								
								</g>
							</g>
						</g>
					<g data-name="Measures">
							<g fill="lime" stroke="#33322E" data-name="Measures">
								<rect x="332.0" y="355.0" height="31.0" width="90.0" data-name="Measures"></rect>
							</g>
						<g transform="translate(332, 355)" font-family="Helvetica" font-size="12pt" font-weight="bold" font-style="normal" data-name="Measures">
								<g transform="translate(8, 8)" fill="#33322E" text-align="center" data-name="Measures">
									<text x="37.0" y="13.5" stroke="none" text-anchor="middle" data-name="Measures">Measures</text>
								
								</g>
							</g>
						</g>
					<g data-name="ShapeLimits">
							<g fill="lime" stroke="#33322E" data-name="ShapeLimits">
								<rect x="258.0" y="497.0" height="31.0" width="111.0" data-name="ShapeLimits"></rect>
							</g>
						<g transform="translate(258, 497)" font-family="Helvetica" font-size="12pt" font-weight="bold" font-style="normal" data-name="ShapeLimits">
								<g transform="translate(8, 8)" fill="#33322E" text-align="center" data-name="ShapeLimits">
									<text x="47.5" y="13.5" stroke="none" text-anchor="middle" data-name="ShapeLimits">ShapeLimits</text>
								
								</g>
							</g>
						</g>
					<g data-name="RateComponents">
							<g fill="lime" stroke="#33322E" data-name="RateComponents">
								<rect x="462.0" y="355.0" height="31.0" width="148.0" data-name="RateComponents"></rect>
							</g>
						<g transform="translate(462, 355)" font-family="Helvetica" font-size="12pt" font-weight="bold" font-style="normal" data-name="RateComponents">
								<g transform="translate(8, 8)" fill="#33322E" text-align="center" data-name="RateComponents">
									<text x="66.0" y="13.5" stroke="none" text-anchor="middle" data-name="RateComponents">RateComponents</text>
								
								</g>
							</g>
						</g>
					<g data-name="Rates">
							<g fill="lime" stroke="#33322E" data-name="Rates">
								<rect x="295.5" y="284.0" height="31.0" width="60.0" data-name="Rates"></rect>
							</g>
						<g transform="translate(295.5, 284)" font-family="Helvetica" font-size="12pt" font-weight="bold" font-style="normal" data-name="Rates">
								<g transform="translate(8, 8)" fill="#33322E" text-align="center" data-name="Rates">
									<text x="22.0" y="13.5" stroke="none" text-anchor="middle" data-name="Rates">Rates</text>
								
								</g>
							</g>
						</g>
					<g data-name="Proportions">
							<g fill="lime" stroke="#33322E" data-name="Proportions">
								<rect x="185.0" y="355.0" height="31.0" width="107.0" data-name="Proportions"></rect>
							</g>
						<g transform="translate(185, 355)" font-family="Helvetica" font-size="12pt" font-weight="bold" font-style="normal" data-name="Proportions">
								<g transform="translate(8, 8)" fill="#33322E" text-align="center" data-name="Proportions">
									<text x="45.5" y="13.5" stroke="none" text-anchor="middle" data-name="Proportions">Proportions</text>
								
								</g>
							</g>
						</g>
					<g data-name="ProportionLimits">
							<g fill="lime" stroke="#33322E" data-name="ProportionLimits">
								<rect x="0.0" y="355.0" height="31.0" width="145.0" data-name="ProportionLimits"></rect>
							</g>
						<g transform="translate(0, 355)" font-family="Helvetica" font-size="12pt" font-weight="bold" font-style="normal" data-name="ProportionLimits">
								<g transform="translate(8, 8)" fill="#33322E" text-align="center" data-name="ProportionLimits">
									<text x="64.5" y="13.5" stroke="none" text-anchor="middle" data-name="ProportionLimits">ProportionLimits</text>
								
								</g>
							</g>
						</g>
					<g data-name="BulkSpreads">
							<g fill="lime" stroke="#33322E" data-name="BulkSpreads">
								<rect x="763.0" y="355.0" height="31.0" width="114.0" data-name="BulkSpreads"></rect>
							</g>
						<g transform="translate(763, 355)" font-family="Helvetica" font-size="12pt" font-weight="bold" font-style="normal" data-name="BulkSpreads">
								<g transform="translate(8, 8)" fill="#33322E" text-align="center" data-name="BulkSpreads">
									<text x="49.0" y="13.5" stroke="none" text-anchor="middle" data-name="BulkSpreads">BulkSpreads</text>
								
								</g>
							</g>
						</g>
					<g data-name="PlaneShapes">
							<g fill="lime" stroke="#33322E" data-name="PlaneShapes">
								<rect x="409.0" y="497.0" height="31.0" width="116.0" data-name="PlaneShapes"></rect>
							</g>
						<g transform="translate(409, 497)" font-family="Helvetica" font-size="12pt" font-weight="bold" font-style="normal" data-name="PlaneShapes">
								<g transform="translate(8, 8)" fill="#33322E" text-align="center" data-name="PlaneShapes">
									<text x="50.0" y="13.5" stroke="none" text-anchor="middle" data-name="PlaneShapes">PlaneShapes</text>
								
								</g>
							</g>
						</g>
					<g data-name="DryBodies">
							<g fill="lime" stroke="#33322E" data-name="DryBodies">
								<rect x="565.0" y="497.0" height="31.0" width="96.0" data-name="DryBodies"></rect>
							</g>
						<g transform="translate(565, 497)" font-family="Helvetica" font-size="12pt" font-weight="bold" font-style="normal" data-name="DryBodies">
								<g transform="translate(8, 8)" fill="#33322E" text-align="center" data-name="DryBodies">
									<text x="40.0" y="13.5" stroke="none" text-anchor="middle" data-name="DryBodies">DryBodies</text>
								
								</g>
							</g>
						</g>
					<g data-name="Masses">
							<g fill="lime" stroke="#33322E" data-name="Masses">
								<rect x="371.8" y="213.0" height="31.0" width="74.0" data-name="Masses"></rect>
							</g>
						<g transform="translate(371.75, 213)" font-family="Helvetica" font-size="12pt" font-weight="bold" font-style="normal" data-name="Masses">
								<g transform="translate(8, 8)" fill="#33322E" text-align="center" data-name="Masses">
									<text x="29.0" y="13.5" stroke="none" text-anchor="middle" data-name="Masses">Masses</text>
								
								</g>
							</g>
						</g>
					<g data-name="Sections">
							<g fill="lime" stroke="#33322E" data-name="Sections">
								<rect x="701.0" y="497.0" height="31.0" width="83.0" data-name="Sections"></rect>
							</g>
						<g transform="translate(701, 497)" font-family="Helvetica" font-size="12pt" font-weight="bold" font-style="normal" data-name="Sections">
								<g transform="translate(8, 8)" fill="#33322E" text-align="center" data-name="Sections">
									<text x="33.5" y="13.5" stroke="none" text-anchor="middle" data-name="Sections">Sections</text>
								
								</g>
							</g>
						</g>
					<g data-name="ComplexDryBodies">
							<g fill="lime" stroke="#33322E" data-name="ComplexDryBodies">
								<rect x="824.0" y="497.0" height="31.0" width="164.0" data-name="ComplexDryBodies"></rect>
							</g>
						<g transform="translate(824, 497)" font-family="Helvetica" font-size="12pt" font-weight="bold" font-style="normal" data-name="ComplexDryBodies">
								<g transform="translate(8, 8)" fill="#33322E" text-align="center" data-name="ComplexDryBodies">
									<text x="74.0" y="13.5" stroke="none" text-anchor="middle" data-name="ComplexDryBodies">ComplexDryBodies</text>
								
								</g>
							</g>
						</g>
					</g>
				</g>
			</g>
		</g>
	</svg>