<svg version="1.1" baseProfile="full" width="775.5" height="939.0" viewbox="0 0 775.5 939" xmlns="http://www.w3.org/2000/svg" xmlns:xlink="http://www.w3.org/1999/xlink" xmlns:ev="http://www.w3.org/2001/xml-events">
		<title >ProjectsDependencies</title>
	<desc >#title: ProjectsDependencies
	#.base: fill=orange dashed bold italic
	#.abstract: fill=yellow bold italic
	#.concrete: fill=lime bold
	
	[&lt;base&gt;Common]
	[&lt;base&gt;Measurables]
	[&lt;base&gt;BaseMeasurements]
	[&lt;base&gt;BaseQuantifiables]
	[&lt;base&gt;Quantifiables]
	[&lt;base&gt;BaseMeasures]
	[&lt;base&gt;Spreads]
	[&lt;base&gt;Shapes]
	[&lt;concrete&gt;Measurements]
	[&lt;concrete&gt;Measures]
	[&lt;base&gt;BaseRates]
	[&lt;abstract&gt;SimpleRates]
	[&lt;concrete&gt;RateComponents]
	[&lt;concrete&gt;Rates]
	[&lt;concrete&gt;Proportions]
	[&lt;concrete&gt;ProportionLimits]
	[&lt;concrete&gt;BulkSpreads]
	[&lt;abstract&gt;SimpleShapes]
	[&lt;concrete&gt;PlaneShapes]
	[&lt;concrete&gt;DryBodies]
	[&lt;concrete&gt;Masses]
	[&lt;abstract&gt;ComplexShapes]
	[&lt;concrete&gt;Sections]
	[&lt;concrete&gt;ComplexDryBodies]
	
	[Common]&lt;--[Measurables]
	[Measurables]&lt;--[BaseMeasurements]
	[BaseQuantifiables]--&gt;[Measurables]
	[Quantifiables]--&gt;[BaseQuantifiables]
	[BaseMeasures]--&gt;[BaseMeasurements]
	[BaseMeasures]--&gt;[Quantifiables]
	[BaseMeasures]&lt;--[Spreads]
	[Spreads]&lt;--[Shapes]
	[BaseMeasurements]&lt;--[Measurements]
	[Measurements]&lt;--[Measures]
	[BaseMeasures]&lt;--[Measures]
	[BaseMeasures]&lt;--[BaseRates]
	[Measures]&lt;--[RateComponents]
	[Rates]--&gt;[BaseRates]
	[RateComponents]&lt;--[Rates]
	[BaseRates]&lt;--[SimpleRates]
	[SimpleRates]&lt;--[ProportionLimits]
	[Proportions]--&gt;[SimpleRates]
	[Measures]&lt;--[Proportions]
	[Measures]&lt;--[BulkSpreads]
	[Spreads]&lt;--[BulkSpreads]
	[BulkSpreads]&lt;--[SimpleShapes]
	[Shapes]&lt;--[SimpleShapes]
	[SimpleShapes]&lt;--[PlaneShapes]
	[PlaneShapes]&lt;--[DryBodies]
	[Proportions]&lt;--[Masses]
	[DryBodies]&lt;--[Masses]
	[Shapes]&lt;--[ComplexShapes]
	[DryBodies]&lt;--[Sections]
	[ComplexShapes]&lt;--[Sections]
	[Sections]&lt;--[ComplexDryBodies]</desc>
	<g stroke-width="1.0" text-align="left" font="12pt Helvetica, Arial, sans-serif" font-size="12pt" font-family="Helvetica" font-weight="bold" font-style="normal">
			<g font-family="Helvetica" font-size="12pt" font-weight="bold" font-style="normal" stroke-width="3.0" stroke-linejoin="round" stroke-linecap="round" stroke="#33322E">
				<g stroke="transparent" fill="transparent">
					<rect x="0.0" y="0.0" height="939.0" width="775.5" stroke="none"></rect>
				</g>
			<g transform="translate(12.5, 8)" fill="#33322E">
					<g transform="translate(20, 20)" fill="#33322E" font-family="Helvetica" font-size="12pt" font-weight="normal" font-style="normal">
						<g stroke-dasharray="6 6">
							<path d="M98.3 179.7 L98.25 193 L143.4612676056338 213 L143.5 213.0 " fill="none"></path>
						</g>
					<path d="M103.6 186.3 L98.3 179.7 L92.9 186.3 L98.3 173.0 Z"></path>
					<g stroke-dasharray="6 6">
							<path d="M178.5 250.7 L178.5 264 L213.57042253521126 284 L213.6 284.0 " fill="none"></path>
						</g>
					<path d="M183.8 257.3 L178.5 250.7 L173.2 257.3 L178.5 244.0 Z"></path>
					<g stroke-dasharray="6 6">
							<path d="M259.0 173.0 L259 193 L219.74775078393117 210.3099981014962 L219.7 210.3 " fill="none"></path>
						</g>
					<path d="M223.7 202.7 L219.7 210.3 L228.0 212.5 L213.6 213.0 Z"></path>
					<g stroke-dasharray="6 6">
							<path d="M259.0 102.0 L259 122 L259 135.33333333333334 L259.0 135.3 " fill="none"></path>
						</g>
					<path d="M253.7 128.7 L259.0 135.3 L264.3 128.7 L259.0 142.0 Z"></path>
					<g stroke-dasharray="6 6">
							<path d="M386.3 31.0 L377 51 L377 86.5 L377 86.5 L377 122 L377 122 L377 157.5 L377 157.5 L377 193 L377 193 L377 228.5 L377 228.5 L377 264 L377 264 L306.6907209676565 282.31911490384 L306.7 282.3 " fill="none"></path>
						</g>
					<path d="M311.8 275.5 L306.7 282.3 L314.5 285.8 L300.2 284.0 Z"></path>
					<g stroke-dasharray="6 6">
							<path d="M334.8 31.0 L259 51 L259 64.33333333333333 L259.0 64.3 " fill="none"></path>
						</g>
					<path d="M253.7 57.7 L259.0 64.3 L264.3 57.7 L259.0 71.0 Z"></path>
					<g stroke-dasharray="6 6">
							<path d="M464.1 25.8 L637.5 51 L637.5 86.5 L637.5 86.5 L637.5 122 L637.5 122 L637.5 157.5 L637.5 157.5 L637.5 193 L637.5 193 L637.5 228.5 L637.5 228.5 L637.5 264 L637.5 264 L637.5 299.5 L637.5 299.5 L637.5 335 L637.5 335 L637.5 370.5 L637.5 370.5 L637.5 406 L637.5 406 L637.5 426 L637.5 426.0 " fill="none"></path>
						</g>
					<path d="M471.5 21.5 L464.1 25.8 L469.9 32.0 L457.5 24.8 Z"></path>
					<g stroke-dasharray="6 6">
							<path d="M637.5 463.7 L637.5 477 L637.5 497 L637.5 497.0 " fill="none"></path>
						</g>
					<path d="M642.8 470.3 L637.5 463.7 L632.2 470.3 L637.5 457.0 Z"></path>
					<g stroke-dasharray="6 6">
							<path d="M240.8 321.7 L240.75 335 L240.75 355 L240.8 355.0 " fill="none"></path>
						</g>
					<path d="M246.1 328.3 L240.8 321.7 L235.4 328.3 L240.8 315.0 Z"></path>
					<g stroke-dasharray="6 6">
							<path d="M240.8 392.7 L240.75 406 L283.0035211267606 426 L283.0 426.0 " fill="none"></path>
						</g>
					<path d="M246.1 399.3 L240.8 392.7 L235.4 399.3 L240.8 386.0 Z"></path>
					<g stroke-dasharray="6 6">
							<path d="M427.7 34.2 L458.5 51 L458.5 86.5 L458.5 86.5 L458.5 122 L458.5 122 L458.5 157.5 L458.5 157.5 L458.5 193 L458.5 193 L458.5 228.5 L458.5 228.5 L458.5 264 L458.5 264 L458.5 299.5 L458.5 299.5 L458.5 335 L458.5 335 L458.5 370.5 L458.5 370.5 L458.5 406 L458.5 406 L360.75 430.3091068301226 L360.8 430.3 " fill="none"></path>
						</g>
					<path d="M436.1 32.7 L427.7 34.2 L431.0 42.1 L421.9 31.0 Z"></path>
					<g stroke-dasharray="6 6">
							<path d="M322.9 21.8 L-4.5 51 L-4.5 86.5 L-4.5 86.5 L-4.5 122 L-4.5 122 L-4.5 157.5 L-4.5 157.5 L-4.5 193 L-4.5 193 L-4.5 228.5 L-4.5 228.5 L-4.5 264 L-4.5 264 L-4.5 299.5 L-4.5 299.5 L-4.5 335 L-4.5 335 L-4.5 370.5 L-4.5 370.5 L-4.5 406 L-4.5 406 L-4.5 441.5 L-4.5 441.5 L-4.5 477 L-4.5 477 L-4.5 512.5 L-4.5 512.5 L-4.5 548 L-4.5 548 L-4.5 583.5 L-4.5 583.5 L-4.5 619 L-4.5 619 L27.612676056338028 639 L27.6 639.0 " fill="none"></path>
						</g>
					<path d="M316.7 27.7 L322.9 21.8 L315.7 17.1 L329.5 21.2 Z"></path>
					<g stroke-dasharray="6 6">
							<path d="M264.2 450.4 L109.5 477 L109.5 497 L109.5 497.0 " fill="none"></path>
						</g>
					<path d="M258.5 456.8 L264.2 450.4 L256.7 446.3 L270.8 449.2 Z"></path>
					<g stroke-dasharray="6 6">
							<path d="M109.5 599.0 L109.5 619 L83.04621638851278 635.4756020738209 L83.0 635.5 " fill="none"></path>
						</g>
					<path d="M85.9 627.4 L83.0 635.5 L91.5 636.5 L77.4 639.0 Z"></path>
					<g stroke-dasharray="6 6">
							<path d="M109.5 534.7 L109.5 548 L109.5 568 L109.5 568.0 " fill="none"></path>
						</g>
					<path d="M114.8 541.3 L109.5 534.7 L104.2 541.3 L109.5 528.0 Z"></path>
					<g stroke-dasharray="6 6">
							<path d="M52.5 676.7 L52.5 690 L63.767605633802816 710 L63.8 710.0 " fill="none"></path>
						</g>
					<path d="M57.8 683.3 L52.5 676.7 L47.2 683.3 L52.5 670.0 Z"></path>
					<g stroke-dasharray="6 6">
							<path d="M72.5 747.7 L72.5 761 L72.5 781 L72.5 781.0 " fill="none"></path>
						</g>
					<path d="M77.8 754.3 L72.5 747.7 L67.2 754.3 L72.5 741.0 Z"></path>
					<g stroke-dasharray="6 6">
							<path d="M255.0 670.0 L186.5 690 L128.63983157276525 708.0178594663757 L128.6 708.0 " fill="none"></path>
						</g>
					<path d="M133.4 700.9 L128.6 708.0 L136.6 711.1 L122.3 710.0 Z"></path>
					<g stroke-dasharray="6 6">
							<path d="M310.9 463.5 L308 477 L308 512.5 L308 512.5 L308 548 L308 548 L308 583.5 L308 583.5 L308 619 L308 619 L308 639 L308.0 639.0 " fill="none"></path>
						</g>
					<path d="M314.7 471.2 L310.9 463.5 L304.3 468.9 L312.4 457.0 Z"></path>
					<g stroke-dasharray="6 6">
							<path d="M367.1 457.2 L431.75 477 L443.0176056338028 497 L443.0 497.0 " fill="none"></path>
						</g>
					<path d="M375.1 454.1 L367.1 457.2 L371.9 464.3 L360.8 455.3 Z"></path>
					<g stroke-dasharray="6 6">
							<path d="M591.5 453.2 L498.5 477 L472.1619718309859 497 L472.2 497.0 " fill="none"></path>
						</g>
					<path d="M586.4 460.1 L591.5 453.2 L583.8 449.7 L598.0 451.6 Z"></path>
					<g stroke-dasharray="6 6">
							<path d="M451.8 534.7 L451.75 548 L467.3838028169014 568 L467.4 568.0 " fill="none"></path>
						</g>
					<path d="M457.1 541.3 L451.8 534.7 L446.4 541.3 L451.8 528.0 Z"></path>
					<g stroke-dasharray="6 6">
							<path d="M594.7 527.8 L538.5 548 L505.26056338028167 568 L505.3 568.0 " fill="none"></path>
						</g>
					<path d="M590.2 535.1 L594.7 527.8 L586.6 525.1 L601.0 525.6 Z"></path>
					<g stroke-dasharray="6 6">
							<path d="M479.5 605.7 L479.5 619 L479.5 639 L479.5 639.0 " fill="none"></path>
						</g>
					<path d="M484.8 612.3 L479.5 605.7 L474.2 612.3 L479.5 599.0 Z"></path>
					<g stroke-dasharray="6 6">
							<path d="M479.5 676.7 L479.5 690 L479.5 710 L479.5 710.0 " fill="none"></path>
						</g>
					<path d="M484.8 683.3 L479.5 676.7 L474.2 683.3 L479.5 670.0 Z"></path>
					<g stroke-dasharray="6 6">
							<path d="M332.4 674.2 L352 690 L352 725.5 L352 725.5 L352 761 L352 761 L363.2676056338028 781 L363.3 781.0 " fill="none"></path>
						</g>
					<path d="M340.9 674.2 L332.4 674.2 L334.2 682.5 L327.2 670.0 Z"></path>
					<g stroke-dasharray="6 6">
							<path d="M446.0 744.3 L416 761 L391.2112676056338 781 L391.2 781.0 " fill="none"></path>
						</g>
					<path d="M442.7 752.2 L446.0 744.3 L437.5 742.9 L451.8 741.0 Z"></path>
					<g stroke-dasharray="6 6">
							<path d="M637.5 534.7 L637.5 548 L637.5 583.5 L637.5 583.5 L637.5 619 L637.5 619 L637.5 654.5 L637.5 654.5 L637.5 690 L637.5 690 L637.5 710 L637.5 710.0 " fill="none"></path>
						</g>
					<path d="M642.8 541.3 L637.5 534.7 L632.2 541.3 L637.5 528.0 Z"></path>
					<g stroke-dasharray="6 6">
							<path d="M511.0 744.4 L538.5 761 L596 781.6186868686868 L596.0 781.6 " fill="none"></path>
						</g>
					<path d="M519.4 743.3 L511.0 744.4 L513.9 752.4 L505.3 741.0 Z"></path>
					<g stroke-dasharray="6 6">
							<path d="M637.5 747.7 L637.5 761 L637.5 781 L637.5 781.0 " fill="none"></path>
						</g>
					<path d="M642.8 754.3 L637.5 747.7 L632.2 754.3 L637.5 741.0 Z"></path>
					<g stroke-dasharray="6 6">
							<path d="M637.5 818.7 L637.5 832 L637.5 852 L637.5 852.0 " fill="none"></path>
						</g>
					<path d="M642.8 825.3 L637.5 818.7 L632.2 825.3 L637.5 812.0 Z"></path>
					<g data-name="Common">
							<g fill="orange" stroke="#33322E" stroke-dasharray="6 6" data-name="Common">
								<rect x="55.8" y="142.0" height="31.0" width="85.0" data-name="Common"></rect>
							</g>
						<g transform="translate(55.75, 142)" font-family="Helvetica" font-size="12pt" font-weight="bold" font-style="italic" data-name="Common">
								<g transform="translate(8, 8)" fill="#33322E" text-align="center" data-name="Common">
									<text x="34.5" y="13.5" stroke="none" text-anchor="middle" data-name="Common">Common</text>
								
								</g>
							</g>
						</g>
					<g data-name="Measurables">
							<g fill="orange" stroke="#33322E" stroke-dasharray="6 6" data-name="Measurables">
								<rect x="122.0" y="213.0" height="31.0" width="113.0" data-name="Measurables"></rect>
							</g>
						<g transform="translate(122, 213)" font-family="Helvetica" font-size="12pt" font-weight="bold" font-style="italic" data-name="Measurables">
								<g transform="translate(8, 8)" fill="#33322E" text-align="center" data-name="Measurables">
									<text x="48.5" y="13.5" stroke="none" text-anchor="middle" data-name="Measurables">Measurables</text>
								
								</g>
							</g>
						</g>
					<g data-name="BaseMeasurements">
							<g fill="orange" stroke="#33322E" stroke-dasharray="6 6" data-name="BaseMeasurements">
								<rect x="157.8" y="284.0" height="31.0" width="166.0" data-name="BaseMeasurements"></rect>
							</g>
						<g transform="translate(157.75, 284)" font-family="Helvetica" font-size="12pt" font-weight="bold" font-style="italic" data-name="BaseMeasurements">
								<g transform="translate(8, 8)" fill="#33322E" text-align="center" data-name="BaseMeasurements">
									<text x="75.0" y="13.5" stroke="none" text-anchor="middle" data-name="BaseMeasurements">BaseMeasurements</text>
								
								</g>
							</g>
						</g>
					<g data-name="BaseQuantifiables">
							<g fill="orange" stroke="#33322E" stroke-dasharray="6 6" data-name="BaseQuantifiables">
								<rect x="181.0" y="142.0" height="31.0" width="156.0" data-name="BaseQuantifiables"></rect>
							</g>
						<g transform="translate(181, 142)" font-family="Helvetica" font-size="12pt" font-weight="bold" font-style="italic" data-name="BaseQuantifiables">
								<g transform="translate(8, 8)" fill="#33322E" text-align="center" data-name="BaseQuantifiables">
									<text x="70.0" y="13.5" stroke="none" text-anchor="middle" data-name="BaseQuantifiables">BaseQuantifiables</text>
								
								</g>
							</g>
						</g>
					<g data-name="Quantifiables">
							<g fill="orange" stroke="#33322E" stroke-dasharray="6 6" data-name="Quantifiables">
								<rect x="200.5" y="71.0" height="31.0" width="117.0" data-name="Quantifiables"></rect>
							</g>
						<g transform="translate(200.5, 71)" font-family="Helvetica" font-size="12pt" font-weight="bold" font-style="italic" data-name="Quantifiables">
								<g transform="translate(8, 8)" fill="#33322E" text-align="center" data-name="Quantifiables">
									<text x="50.5" y="13.5" stroke="none" text-anchor="middle" data-name="Quantifiables">Quantifiables</text>
								
								</g>
							</g>
						</g>
					<g data-name="BaseMeasures">
							<g fill="orange" stroke="#33322E" stroke-dasharray="6 6" data-name="BaseMeasures">
								<rect x="329.5" y="0.0" height="31.0" width="128.0" data-name="BaseMeasures"></rect>
							</g>
						<g transform="translate(329.5, 0)" font-family="Helvetica" font-size="12pt" font-weight="bold" font-style="italic" data-name="BaseMeasures">
								<g transform="translate(8, 8)" fill="#33322E" text-align="center" data-name="BaseMeasures">
									<text x="56.0" y="13.5" stroke="none" text-anchor="middle" data-name="BaseMeasures">BaseMeasures</text>
								
								</g>
							</g>
						</g>
					<g data-name="Spreads">
							<g fill="orange" stroke="#33322E" stroke-dasharray="6 6" data-name="Spreads">
								<rect x="598.0" y="426.0" height="31.0" width="79.0" data-name="Spreads"></rect>
							</g>
						<g transform="translate(598, 426)" font-family="Helvetica" font-size="12pt" font-weight="bold" font-style="italic" data-name="Spreads">
								<g transform="translate(8, 8)" fill="#33322E" text-align="center" data-name="Spreads">
									<text x="31.5" y="13.5" stroke="none" text-anchor="middle" data-name="Spreads">Spreads</text>
								
								</g>
							</g>
						</g>
					<g data-name="Shapes">
							<g fill="orange" stroke="#33322E" stroke-dasharray="6 6" data-name="Shapes">
								<rect x="601.0" y="497.0" height="31.0" width="73.0" data-name="Shapes"></rect>
							</g>
						<g transform="translate(601, 497)" font-family="Helvetica" font-size="12pt" font-weight="bold" font-style="italic" data-name="Shapes">
								<g transform="translate(8, 8)" fill="#33322E" text-align="center" data-name="Shapes">
									<text x="28.5" y="13.5" stroke="none" text-anchor="middle" data-name="Shapes">Shapes</text>
								
								</g>
							</g>
						</g>
					<g data-name="Measurements">
							<g fill="lime" stroke="#33322E" data-name="Measurements">
								<rect x="176.8" y="355.0" height="31.0" width="128.0" data-name="Measurements"></rect>
							</g>
						<g transform="translate(176.75, 355)" font-family="Helvetica" font-size="12pt" font-weight="bold" font-style="normal" data-name="Measurements">
								<g transform="translate(8, 8)" fill="#33322E" text-align="center" data-name="Measurements">
									<text x="56.0" y="13.5" stroke="none" text-anchor="middle" data-name="Measurements">Measurements</text>
								
								</g>
							</g>
						</g>
					<g data-name="Measures">
							<g fill="lime" stroke="#33322E" data-name="Measures">
								<rect x="270.8" y="426.0" height="31.0" width="90.0" data-name="Measures"></rect>
							</g>
						<g transform="translate(270.75, 426)" font-family="Helvetica" font-size="12pt" font-weight="bold" font-style="normal" data-name="Measures">
								<g transform="translate(8, 8)" fill="#33322E" text-align="center" data-name="Measures">
									<text x="37.0" y="13.5" stroke="none" text-anchor="middle" data-name="Measures">Measures</text>
								
								</g>
							</g>
						</g>
					<g data-name="BaseRates">
							<g fill="orange" stroke="#33322E" stroke-dasharray="6 6" data-name="BaseRates">
								<rect x="3.5" y="639.0" height="31.0" width="98.0" data-name="BaseRates"></rect>
							</g>
						<g transform="translate(3.5, 639)" font-family="Helvetica" font-size="12pt" font-weight="bold" font-style="italic" data-name="BaseRates">
								<g transform="translate(8, 8)" fill="#33322E" text-align="center" data-name="BaseRates">
									<text x="41.0" y="13.5" stroke="none" text-anchor="middle" data-name="BaseRates">BaseRates</text>
								
								</g>
							</g>
						</g>
					<g data-name="SimpleRates">
							<g fill="yellow" stroke="#33322E" data-name="SimpleRates">
								<rect x="16.5" y="710.0" height="31.0" width="112.0" data-name="SimpleRates"></rect>
							</g>
						<g transform="translate(16.5, 710)" font-family="Helvetica" font-size="12pt" font-weight="bold" font-style="italic" data-name="SimpleRates">
								<g transform="translate(8, 8)" fill="#33322E" text-align="center" data-name="SimpleRates">
									<text x="48.0" y="13.5" stroke="none" text-anchor="middle" data-name="SimpleRates">SimpleRates</text>
								
								</g>
							</g>
						</g>
					<g data-name="RateComponents">
							<g fill="lime" stroke="#33322E" data-name="RateComponents">
								<rect x="35.5" y="497.0" height="31.0" width="148.0" data-name="RateComponents"></rect>
							</g>
						<g transform="translate(35.5, 497)" font-family="Helvetica" font-size="12pt" font-weight="bold" font-style="normal" data-name="RateComponents">
								<g transform="translate(8, 8)" fill="#33322E" text-align="center" data-name="RateComponents">
									<text x="66.0" y="13.5" stroke="none" text-anchor="middle" data-name="RateComponents">RateComponents</text>
								
								</g>
							</g>
						</g>
					<g data-name="Rates">
							<g fill="lime" stroke="#33322E" data-name="Rates">
								<rect x="79.5" y="568.0" height="31.0" width="60.0" data-name="Rates"></rect>
							</g>
						<g transform="translate(79.5, 568)" font-family="Helvetica" font-size="12pt" font-weight="bold" font-style="normal" data-name="Rates">
								<g transform="translate(8, 8)" fill="#33322E" text-align="center" data-name="Rates">
									<text x="22.0" y="13.5" stroke="none" text-anchor="middle" data-name="Rates">Rates</text>
								
								</g>
							</g>
						</g>
					<g data-name="Proportions">
							<g fill="lime" stroke="#33322E" data-name="Proportions">
								<rect x="254.5" y="639.0" height="31.0" width="107.0" data-name="Proportions"></rect>
							</g>
						<g transform="translate(254.5, 639)" font-family="Helvetica" font-size="12pt" font-weight="bold" font-style="normal" data-name="Proportions">
								<g transform="translate(8, 8)" fill="#33322E" text-align="center" data-name="Proportions">
									<text x="45.5" y="13.5" stroke="none" text-anchor="middle" data-name="Proportions">Proportions</text>
								
								</g>
							</g>
						</g>
					<g data-name="ProportionLimits">
							<g fill="lime" stroke="#33322E" data-name="ProportionLimits">
								<rect x="0.0" y="781.0" height="31.0" width="145.0" data-name="ProportionLimits"></rect>
							</g>
						<g transform="translate(0, 781)" font-family="Helvetica" font-size="12pt" font-weight="bold" font-style="normal" data-name="ProportionLimits">
								<g transform="translate(8, 8)" fill="#33322E" text-align="center" data-name="ProportionLimits">
									<text x="64.5" y="13.5" stroke="none" text-anchor="middle" data-name="ProportionLimits">ProportionLimits</text>
								
								</g>
							</g>
						</g>
					<g data-name="BulkSpreads">
							<g fill="lime" stroke="#33322E" data-name="BulkSpreads">
								<rect x="394.8" y="497.0" height="31.0" width="114.0" data-name="BulkSpreads"></rect>
							</g>
						<g transform="translate(394.75, 497)" font-family="Helvetica" font-size="12pt" font-weight="bold" font-style="normal" data-name="BulkSpreads">
								<g transform="translate(8, 8)" fill="#33322E" text-align="center" data-name="BulkSpreads">
									<text x="49.0" y="13.5" stroke="none" text-anchor="middle" data-name="BulkSpreads">BulkSpreads</text>
								
								</g>
							</g>
						</g>
					<g data-name="SimpleShapes">
							<g fill="yellow" stroke="#33322E" data-name="SimpleShapes">
								<rect x="417.0" y="568.0" height="31.0" width="125.0" data-name="SimpleShapes"></rect>
							</g>
						<g transform="translate(417, 568)" font-family="Helvetica" font-size="12pt" font-weight="bold" font-style="italic" data-name="SimpleShapes">
								<g transform="translate(8, 8)" fill="#33322E" text-align="center" data-name="SimpleShapes">
									<text x="54.5" y="13.5" stroke="none" text-anchor="middle" data-name="SimpleShapes">SimpleShapes</text>
								
								</g>
							</g>
						</g>
					<g data-name="PlaneShapes">
							<g fill="lime" stroke="#33322E" data-name="PlaneShapes">
								<rect x="421.5" y="639.0" height="31.0" width="116.0" data-name="PlaneShapes"></rect>
							</g>
						<g transform="translate(421.5, 639)" font-family="Helvetica" font-size="12pt" font-weight="bold" font-style="normal" data-name="PlaneShapes">
								<g transform="translate(8, 8)" fill="#33322E" text-align="center" data-name="PlaneShapes">
									<text x="50.0" y="13.5" stroke="none" text-anchor="middle" data-name="PlaneShapes">PlaneShapes</text>
								
								</g>
							</g>
						</g>
					<g data-name="DryBodies">
							<g fill="lime" stroke="#33322E" data-name="DryBodies">
								<rect x="431.5" y="710.0" height="31.0" width="96.0" data-name="DryBodies"></rect>
							</g>
						<g transform="translate(431.5, 710)" font-family="Helvetica" font-size="12pt" font-weight="bold" font-style="normal" data-name="DryBodies">
								<g transform="translate(8, 8)" fill="#33322E" text-align="center" data-name="DryBodies">
									<text x="40.0" y="13.5" stroke="none" text-anchor="middle" data-name="DryBodies">DryBodies</text>
								
								</g>
							</g>
						</g>
					<g data-name="Masses">
							<g fill="lime" stroke="#33322E" data-name="Masses">
								<rect x="335.0" y="781.0" height="31.0" width="74.0" data-name="Masses"></rect>
							</g>
						<g transform="translate(335, 781)" font-family="Helvetica" font-size="12pt" font-weight="bold" font-style="normal" data-name="Masses">
								<g transform="translate(8, 8)" fill="#33322E" text-align="center" data-name="Masses">
									<text x="29.0" y="13.5" stroke="none" text-anchor="middle" data-name="Masses">Masses</text>
								
								</g>
							</g>
						</g>
					<g data-name="ComplexShapes">
							<g fill="yellow" stroke="#33322E" data-name="ComplexShapes">
								<rect x="567.5" y="710.0" height="31.0" width="140.0" data-name="ComplexShapes"></rect>
							</g>
						<g transform="translate(567.5, 710)" font-family="Helvetica" font-size="12pt" font-weight="bold" font-style="italic" data-name="ComplexShapes">
								<g transform="translate(8, 8)" fill="#33322E" text-align="center" data-name="ComplexShapes">
									<text x="62.0" y="13.5" stroke="none" text-anchor="middle" data-name="ComplexShapes">ComplexShapes</text>
								
								</g>
							</g>
						</g>
					<g data-name="Sections">
							<g fill="lime" stroke="#33322E" data-name="Sections">
								<rect x="596.0" y="781.0" height="31.0" width="83.0" data-name="Sections"></rect>
							</g>
						<g transform="translate(596, 781)" font-family="Helvetica" font-size="12pt" font-weight="bold" font-style="normal" data-name="Sections">
								<g transform="translate(8, 8)" fill="#33322E" text-align="center" data-name="Sections">
									<text x="33.5" y="13.5" stroke="none" text-anchor="middle" data-name="Sections">Sections</text>
								
								</g>
							</g>
						</g>
					<g data-name="ComplexDryBodies">
							<g fill="lime" stroke="#33322E" data-name="ComplexDryBodies">
								<rect x="555.5" y="852.0" height="31.0" width="164.0" data-name="ComplexDryBodies"></rect>
							</g>
						<g transform="translate(555.5, 852)" font-family="Helvetica" font-size="12pt" font-weight="bold" font-style="normal" data-name="ComplexDryBodies">
								<g transform="translate(8, 8)" fill="#33322E" text-align="center" data-name="ComplexDryBodies">
									<text x="74.0" y="13.5" stroke="none" text-anchor="middle" data-name="ComplexDryBodies">ComplexDryBodies</text>
								
								</g>
							</g>
						</g>
					</g>
				</g>
			</g>
		</g>
	</svg>