<svg version="1.1" baseProfile="full" width="554.0" height="868.0" viewbox="0 0 554 868" xmlns="http://www.w3.org/2000/svg" xmlns:xlink="http://www.w3.org/1999/xlink" xmlns:ev="http://www.w3.org/2001/xml-events">
		<title >ProjectsDependencies</title>
	<desc >#title: ProjectsDependencies
	[Common]&lt;--[Measurables]&lt;--[BaseMeasurements]
	[Measurables]&lt;--[Quantifiables]&lt;--[BaseMeasures]
	[Quantifiables]&lt;--[BaseSpreads]&lt;--[BaseShapes]&lt;--[Shapes]
	[BaseSpreads]&lt;--[Spreads]&lt;--[Shapes]&lt;--[PlaneShapes]
	[BaseMeasurements]&lt;--[BaseMeasures]&lt;--[BaseRates]&lt;--[Measures]
	[BaseMeasurements]&lt;--[Measurements]&lt;--[Measures]&lt;--[Spreads]
	[Measures]&lt;--[RateComponents]&lt;--[Rates]&lt;--[Proportions]
	[PlaneShapes]&lt;--[DryBodies]&lt;--[Masses]
	[Proportions]&lt;--[Masses]
	[BaseShapes]&lt;--[ComplexShapes]&lt;--[Sections]
	[DryBodies]&lt;--[Sections]&lt;--[ComplexDryBodies]</desc>
	<g stroke-width="1.0" text-align="left" font="12pt Helvetica, Arial, sans-serif" font-size="12pt" font-family="Helvetica" font-weight="bold" font-style="normal">
			<g font-family="Helvetica" font-size="12pt" font-weight="bold" font-style="normal" stroke-width="3.0" stroke-linejoin="round" stroke-linecap="round" stroke="#33322E">
				<g stroke="transparent" fill="transparent">
					<rect x="0.0" y="0.0" height="868.0" width="554.0" stroke="none"></rect>
				</g>
			<g transform="translate(8, 8)" fill="#33322E">
					<g transform="translate(20, 20)" fill="#33322E" font-family="Helvetica" font-size="12pt" font-weight="normal" font-style="normal">
						<g stroke-dasharray="6 6">
							<path d="M259.5 37.7 L259.5 51 L259.5 71 L259.5 71.0 " fill="none"></path>
						</g>
					<path d="M264.8 44.3 L259.5 37.7 L254.2 44.3 L259.5 31.0 Z"></path>
					<g stroke-dasharray="6 6">
							<path d="M196.5 99.3 L84 122 L84 142 L84.0 142.0 " fill="none"></path>
						</g>
					<path d="M191.0 105.8 L196.5 99.3 L188.9 95.3 L203.0 97.9 Z"></path>
					<g stroke-dasharray="6 6">
							<path d="M313.2 104.1 L368 122 L368 142 L368.0 142.0 " fill="none"></path>
						</g>
					<path d="M321.2 101.1 L313.2 104.1 L317.9 111.2 L306.9 102.0 Z"></path>
					<g stroke-dasharray="6 6">
							<path d="M309.7 174.9 L249 193 L230.9718309859155 213 L231.0 213.0 " fill="none"></path>
						</g>
					<path d="M304.8 181.9 L309.7 174.9 L301.7 171.7 L316.0 173.0 Z"></path>
					<g stroke-dasharray="6 6">
							<path d="M380.0 178.8 L388 193 L388 228.5 L388 228.5 L388 264 L388 264 L388 299.5 L388 299.5 L388 335 L388 335 L388 355 L388.0 355.0 " fill="none"></path>
						</g>
					<path d="M387.9 182.0 L380.0 178.8 L378.6 187.2 L376.7 173.0 Z"></path>
					<g stroke-dasharray="6 6">
							<path d="M400.0 391.8 L408 406 L408 426 L408.0 426.0 " fill="none"></path>
						</g>
					<path d="M407.9 395.0 L400.0 391.8 L398.6 400.2 L396.7 386.0 Z"></path>
					<g stroke-dasharray="6 6">
							<path d="M367.4 459.7 L329 477 L290.9718309859155 497 L291.0 497.0 " fill="none"></path>
						</g>
					<path d="M363.5 467.3 L367.4 459.7 L359.2 457.6 L373.5 457.0 Z"></path>
					<g stroke-dasharray="6 6">
							<path d="M338.5 388.3 L289 406 L262.23943661971833 426 L262.2 426.0 " fill="none"></path>
						</g>
					<path d="M334.0 395.5 L338.5 388.3 L330.4 385.5 L344.8 386.0 Z"></path>
					<g stroke-dasharray="6 6">
							<path d="M241.5 463.7 L241.5 477 L252.76760563380282 497 L252.8 497.0 " fill="none"></path>
						</g>
					<path d="M246.8 470.3 L241.5 463.7 L236.2 470.3 L241.5 457.0 Z"></path>
					<g stroke-dasharray="6 6">
							<path d="M261.5 534.7 L261.5 548 L261.5 568 L261.5 568.0 " fill="none"></path>
						</g>
					<path d="M266.8 541.3 L261.5 534.7 L256.2 541.3 L261.5 528.0 Z"></path>
					<g stroke-dasharray="6 6">
							<path d="M123.4 175.8 L160.5 193 L192.33098591549296 213 L192.3 213.0 " fill="none"></path>
						</g>
					<path d="M131.7 173.8 L123.4 175.8 L127.3 183.5 L117.4 173.0 Z"></path>
					<g stroke-dasharray="6 6">
							<path d="M217.0 250.7 L217 264 L217 284 L217.0 284.0 " fill="none"></path>
						</g>
					<path d="M222.3 257.3 L217.0 250.7 L211.7 257.3 L217.0 244.0 Z"></path>
					<g stroke-dasharray="6 6">
							<path d="M217.0 321.7 L217 335 L173.90140845070422 355 L173.9 355.0 " fill="none"></path>
						</g>
					<path d="M222.3 328.3 L217.0 321.7 L211.7 328.3 L217.0 315.0 Z"></path>
					<g stroke-dasharray="6 6">
							<path d="M72.0 178.8 L64 193 L64 228.5 L64 228.5 L64 264 L64 264 L64 284 L64.0 284.0 " fill="none"></path>
						</g>
					<path d="M73.4 187.2 L72.0 178.8 L64.1 182.0 L75.3 173.0 Z"></path>
					<g stroke-dasharray="6 6">
							<path d="M64.0 321.7 L64 335 L107.09859154929578 355 L107.1 355.0 " fill="none"></path>
						</g>
					<path d="M69.3 328.3 L64.0 321.7 L58.7 328.3 L64.0 315.0 Z"></path>
					<g stroke-dasharray="6 6">
							<path d="M182.0 388.7 L221.5 406 L232.76760563380282 426 L232.8 426.0 " fill="none"></path>
						</g>
					<path d="M190.2 386.5 L182.0 388.7 L185.9 396.2 L175.9 386.0 Z"></path>
					<g stroke-dasharray="6 6">
							<path d="M120.4 390.7 L105.25 406 L105.25 441.5 L105.25 441.5 L105.25 477 L105.25 477 L105.25 497 L105.3 497.0 " fill="none"></path>
						</g>
					<path d="M119.5 399.2 L120.4 390.7 L111.9 391.7 L125.1 386.0 Z"></path>
					<g stroke-dasharray="6 6">
							<path d="M105.3 534.7 L105.25 548 L105.25 568 L105.3 568.0 " fill="none"></path>
						</g>
					<path d="M110.6 541.3 L105.3 534.7 L99.9 541.3 L105.3 528.0 Z"></path>
					<g stroke-dasharray="6 6">
							<path d="M105.3 605.7 L105.25 619 L105.25 639 L105.3 639.0 " fill="none"></path>
						</g>
					<path d="M110.6 612.3 L105.3 605.7 L99.9 612.3 L105.3 599.0 Z"></path>
					<g stroke-dasharray="6 6">
							<path d="M261.5 605.7 L261.5 619 L261.5 639 L261.5 639.0 " fill="none"></path>
						</g>
					<path d="M266.8 612.3 L261.5 605.7 L256.2 612.3 L261.5 599.0 Z"></path>
					<g stroke-dasharray="6 6">
							<path d="M231.8 673.6 L206.25 690 L160.6161971830986 710 L160.6 710.0 " fill="none"></path>
						</g>
					<path d="M229.0 681.7 L231.8 673.6 L223.3 672.7 L237.4 670.0 Z"></path>
					<g stroke-dasharray="6 6">
							<path d="M105.3 676.7 L105.25 690 L116.51760563380282 710 L116.5 710.0 " fill="none"></path>
						</g>
					<path d="M110.6 683.3 L105.3 676.7 L99.9 683.3 L105.3 670.0 Z"></path>
					<g stroke-dasharray="6 6">
							<path d="M420.0 462.8 L428 477 L428 512.5 L428 512.5 L428 548 L428 548 L428 583.5 L428 583.5 L428 619 L428 619 L428 639 L428.0 639.0 " fill="none"></path>
						</g>
					<path d="M427.9 466.0 L420.0 462.8 L418.6 471.2 L416.7 457.0 Z"></path>
					<g stroke-dasharray="6 6">
							<path d="M428.0 676.7 L428 690 L416.7323943661972 710 L416.7 710.0 " fill="none"></path>
						</g>
					<path d="M433.3 683.3 L428.0 676.7 L422.7 683.3 L428.0 670.0 Z"></path>
					<g stroke-dasharray="6 6">
							<path d="M296.9 673.1 L329 690 L373.50704225352115 710 L373.5 710.0 " fill="none"></path>
						</g>
					<path d="M305.3 671.5 L296.9 673.1 L300.3 680.9 L291.0 670.0 Z"></path>
					<g stroke-dasharray="6 6">
							<path d="M408.0 747.7 L408 761 L408 781 L408.0 781.0 " fill="none"></path>
						</g>
					<path d="M413.3 754.3 L408.0 747.7 L402.7 754.3 L408.0 741.0 Z"></path>
					<g data-name="Common">
							<g fill="#eee8d5" stroke="#33322E" data-name="Common">
								<rect x="217.0" y="0.0" height="31.0" width="85.0" data-name="Common"></rect>
							</g>
						<g transform="translate(217, 0)" font-family="Helvetica" font-size="12pt" font-weight="bold" font-style="normal" data-name="Common">
								<g transform="translate(8, 8)" fill="#33322E" text-align="center" data-name="Common">
									<text x="34.5" y="13.5" stroke="none" text-anchor="middle" data-name="Common">Common</text>
								
								</g>
							</g>
						</g>
					<g data-name="Measurables">
							<g fill="#eee8d5" stroke="#33322E" data-name="Measurables">
								<rect x="203.0" y="71.0" height="31.0" width="113.0" data-name="Measurables"></rect>
							</g>
						<g transform="translate(203, 71)" font-family="Helvetica" font-size="12pt" font-weight="bold" font-style="normal" data-name="Measurables">
								<g transform="translate(8, 8)" fill="#33322E" text-align="center" data-name="Measurables">
									<text x="48.5" y="13.5" stroke="none" text-anchor="middle" data-name="Measurables">Measurables</text>
								
								</g>
							</g>
						</g>
					<g data-name="BaseMeasurements">
							<g fill="#eee8d5" stroke="#33322E" data-name="BaseMeasurements">
								<rect x="1.0" y="142.0" height="31.0" width="166.0" data-name="BaseMeasurements"></rect>
							</g>
						<g transform="translate(1, 142)" font-family="Helvetica" font-size="12pt" font-weight="bold" font-style="normal" data-name="BaseMeasurements">
								<g transform="translate(8, 8)" fill="#33322E" text-align="center" data-name="BaseMeasurements">
									<text x="75.0" y="13.5" stroke="none" text-anchor="middle" data-name="BaseMeasurements">BaseMeasurements</text>
								
								</g>
							</g>
						</g>
					<g data-name="Quantifiables">
							<g fill="#eee8d5" stroke="#33322E" data-name="Quantifiables">
								<rect x="309.5" y="142.0" height="31.0" width="117.0" data-name="Quantifiables"></rect>
							</g>
						<g transform="translate(309.5, 142)" font-family="Helvetica" font-size="12pt" font-weight="bold" font-style="normal" data-name="Quantifiables">
								<g transform="translate(8, 8)" fill="#33322E" text-align="center" data-name="Quantifiables">
									<text x="50.5" y="13.5" stroke="none" text-anchor="middle" data-name="Quantifiables">Quantifiables</text>
								
								</g>
							</g>
						</g>
					<g data-name="BaseMeasures">
							<g fill="#eee8d5" stroke="#33322E" data-name="BaseMeasures">
								<rect x="153.0" y="213.0" height="31.0" width="128.0" data-name="BaseMeasures"></rect>
							</g>
						<g transform="translate(153, 213)" font-family="Helvetica" font-size="12pt" font-weight="bold" font-style="normal" data-name="BaseMeasures">
								<g transform="translate(8, 8)" fill="#33322E" text-align="center" data-name="BaseMeasures">
									<text x="56.0" y="13.5" stroke="none" text-anchor="middle" data-name="BaseMeasures">BaseMeasures</text>
								
								</g>
							</g>
						</g>
					<g data-name="BaseSpreads">
							<g fill="#eee8d5" stroke="#33322E" data-name="BaseSpreads">
								<rect x="329.5" y="355.0" height="31.0" width="117.0" data-name="BaseSpreads"></rect>
							</g>
						<g transform="translate(329.5, 355)" font-family="Helvetica" font-size="12pt" font-weight="bold" font-style="normal" data-name="BaseSpreads">
								<g transform="translate(8, 8)" fill="#33322E" text-align="center" data-name="BaseSpreads">
									<text x="50.5" y="13.5" stroke="none" text-anchor="middle" data-name="BaseSpreads">BaseSpreads</text>
								
								</g>
							</g>
						</g>
					<g data-name="BaseShapes">
							<g fill="#eee8d5" stroke="#33322E" data-name="BaseShapes">
								<rect x="352.5" y="426.0" height="31.0" width="111.0" data-name="BaseShapes"></rect>
							</g>
						<g transform="translate(352.5, 426)" font-family="Helvetica" font-size="12pt" font-weight="bold" font-style="normal" data-name="BaseShapes">
								<g transform="translate(8, 8)" fill="#33322E" text-align="center" data-name="BaseShapes">
									<text x="47.5" y="13.5" stroke="none" text-anchor="middle" data-name="BaseShapes">BaseShapes</text>
								
								</g>
							</g>
						</g>
					<g data-name="Shapes">
							<g fill="#eee8d5" stroke="#33322E" data-name="Shapes">
								<rect x="225.0" y="497.0" height="31.0" width="73.0" data-name="Shapes"></rect>
							</g>
						<g transform="translate(225, 497)" font-family="Helvetica" font-size="12pt" font-weight="bold" font-style="normal" data-name="Shapes">
								<g transform="translate(8, 8)" fill="#33322E" text-align="center" data-name="Shapes">
									<text x="28.5" y="13.5" stroke="none" text-anchor="middle" data-name="Shapes">Shapes</text>
								
								</g>
							</g>
						</g>
					<g data-name="Spreads">
							<g fill="#eee8d5" stroke="#33322E" data-name="Spreads">
								<rect x="202.0" y="426.0" height="31.0" width="79.0" data-name="Spreads"></rect>
							</g>
						<g transform="translate(202, 426)" font-family="Helvetica" font-size="12pt" font-weight="bold" font-style="normal" data-name="Spreads">
								<g transform="translate(8, 8)" fill="#33322E" text-align="center" data-name="Spreads">
									<text x="31.5" y="13.5" stroke="none" text-anchor="middle" data-name="Spreads">Spreads</text>
								
								</g>
							</g>
						</g>
					<g data-name="PlaneShapes">
							<g fill="#eee8d5" stroke="#33322E" data-name="PlaneShapes">
								<rect x="203.5" y="568.0" height="31.0" width="116.0" data-name="PlaneShapes"></rect>
							</g>
						<g transform="translate(203.5, 568)" font-family="Helvetica" font-size="12pt" font-weight="bold" font-style="normal" data-name="PlaneShapes">
								<g transform="translate(8, 8)" fill="#33322E" text-align="center" data-name="PlaneShapes">
									<text x="50.0" y="13.5" stroke="none" text-anchor="middle" data-name="PlaneShapes">PlaneShapes</text>
								
								</g>
							</g>
						</g>
					<g data-name="BaseRates">
							<g fill="#eee8d5" stroke="#33322E" data-name="BaseRates">
								<rect x="168.0" y="284.0" height="31.0" width="98.0" data-name="BaseRates"></rect>
							</g>
						<g transform="translate(168, 284)" font-family="Helvetica" font-size="12pt" font-weight="bold" font-style="normal" data-name="BaseRates">
								<g transform="translate(8, 8)" fill="#33322E" text-align="center" data-name="BaseRates">
									<text x="41.0" y="13.5" stroke="none" text-anchor="middle" data-name="BaseRates">BaseRates</text>
								
								</g>
							</g>
						</g>
					<g data-name="Measures">
							<g fill="#eee8d5" stroke="#33322E" data-name="Measures">
								<rect x="95.5" y="355.0" height="31.0" width="90.0" data-name="Measures"></rect>
							</g>
						<g transform="translate(95.5, 355)" font-family="Helvetica" font-size="12pt" font-weight="bold" font-style="normal" data-name="Measures">
								<g transform="translate(8, 8)" fill="#33322E" text-align="center" data-name="Measures">
									<text x="37.0" y="13.5" stroke="none" text-anchor="middle" data-name="Measures">Measures</text>
								
								</g>
							</g>
						</g>
					<g data-name="Measurements">
							<g fill="#eee8d5" stroke="#33322E" data-name="Measurements">
								<rect x="0.0" y="284.0" height="31.0" width="128.0" data-name="Measurements"></rect>
							</g>
						<g transform="translate(0, 284)" font-family="Helvetica" font-size="12pt" font-weight="bold" font-style="normal" data-name="Measurements">
								<g transform="translate(8, 8)" fill="#33322E" text-align="center" data-name="Measurements">
									<text x="56.0" y="13.5" stroke="none" text-anchor="middle" data-name="Measurements">Measurements</text>
								
								</g>
							</g>
						</g>
					<g data-name="RateComponents">
							<g fill="#eee8d5" stroke="#33322E" data-name="RateComponents">
								<rect x="31.3" y="497.0" height="31.0" width="148.0" data-name="RateComponents"></rect>
							</g>
						<g transform="translate(31.25, 497)" font-family="Helvetica" font-size="12pt" font-weight="bold" font-style="normal" data-name="RateComponents">
								<g transform="translate(8, 8)" fill="#33322E" text-align="center" data-name="RateComponents">
									<text x="66.0" y="13.5" stroke="none" text-anchor="middle" data-name="RateComponents">RateComponents</text>
								
								</g>
							</g>
						</g>
					<g data-name="Rates">
							<g fill="#eee8d5" stroke="#33322E" data-name="Rates">
								<rect x="75.3" y="568.0" height="31.0" width="60.0" data-name="Rates"></rect>
							</g>
						<g transform="translate(75.25, 568)" font-family="Helvetica" font-size="12pt" font-weight="bold" font-style="normal" data-name="Rates">
								<g transform="translate(8, 8)" fill="#33322E" text-align="center" data-name="Rates">
									<text x="22.0" y="13.5" stroke="none" text-anchor="middle" data-name="Rates">Rates</text>
								
								</g>
							</g>
						</g>
					<g data-name="Proportions">
							<g fill="#eee8d5" stroke="#33322E" data-name="Proportions">
								<rect x="51.8" y="639.0" height="31.0" width="107.0" data-name="Proportions"></rect>
							</g>
						<g transform="translate(51.75, 639)" font-family="Helvetica" font-size="12pt" font-weight="bold" font-style="normal" data-name="Proportions">
								<g transform="translate(8, 8)" fill="#33322E" text-align="center" data-name="Proportions">
									<text x="45.5" y="13.5" stroke="none" text-anchor="middle" data-name="Proportions">Proportions</text>
								
								</g>
							</g>
						</g>
					<g data-name="DryBodies">
							<g fill="#eee8d5" stroke="#33322E" data-name="DryBodies">
								<rect x="213.5" y="639.0" height="31.0" width="96.0" data-name="DryBodies"></rect>
							</g>
						<g transform="translate(213.5, 639)" font-family="Helvetica" font-size="12pt" font-weight="bold" font-style="normal" data-name="DryBodies">
								<g transform="translate(8, 8)" fill="#33322E" text-align="center" data-name="DryBodies">
									<text x="40.0" y="13.5" stroke="none" text-anchor="middle" data-name="DryBodies">DryBodies</text>
								
								</g>
							</g>
						</g>
					<g data-name="Masses">
							<g fill="#eee8d5" stroke="#33322E" data-name="Masses">
								<rect x="88.3" y="710.0" height="31.0" width="74.0" data-name="Masses"></rect>
							</g>
						<g transform="translate(88.25, 710)" font-family="Helvetica" font-size="12pt" font-weight="bold" font-style="normal" data-name="Masses">
								<g transform="translate(8, 8)" fill="#33322E" text-align="center" data-name="Masses">
									<text x="29.0" y="13.5" stroke="none" text-anchor="middle" data-name="Masses">Masses</text>
								
								</g>
							</g>
						</g>
					<g data-name="ComplexShapes">
							<g fill="#eee8d5" stroke="#33322E" data-name="ComplexShapes">
								<rect x="358.0" y="639.0" height="31.0" width="140.0" data-name="ComplexShapes"></rect>
							</g>
						<g transform="translate(358, 639)" font-family="Helvetica" font-size="12pt" font-weight="bold" font-style="normal" data-name="ComplexShapes">
								<g transform="translate(8, 8)" fill="#33322E" text-align="center" data-name="ComplexShapes">
									<text x="62.0" y="13.5" stroke="none" text-anchor="middle" data-name="ComplexShapes">ComplexShapes</text>
								
								</g>
							</g>
						</g>
					<g data-name="Sections">
							<g fill="#eee8d5" stroke="#33322E" data-name="Sections">
								<rect x="366.5" y="710.0" height="31.0" width="83.0" data-name="Sections"></rect>
							</g>
						<g transform="translate(366.5, 710)" font-family="Helvetica" font-size="12pt" font-weight="bold" font-style="normal" data-name="Sections">
								<g transform="translate(8, 8)" fill="#33322E" text-align="center" data-name="Sections">
									<text x="33.5" y="13.5" stroke="none" text-anchor="middle" data-name="Sections">Sections</text>
								
								</g>
							</g>
						</g>
					<g data-name="ComplexDryBodies">
							<g fill="#eee8d5" stroke="#33322E" data-name="ComplexDryBodies">
								<rect x="326.0" y="781.0" height="31.0" width="164.0" data-name="ComplexDryBodies"></rect>
							</g>
						<g transform="translate(326, 781)" font-family="Helvetica" font-size="12pt" font-weight="bold" font-style="normal" data-name="ComplexDryBodies">
								<g transform="translate(8, 8)" fill="#33322E" text-align="center" data-name="ComplexDryBodies">
									<text x="74.0" y="13.5" stroke="none" text-anchor="middle" data-name="ComplexDryBodies">ComplexDryBodies</text>
								
								</g>
							</g>
						</g>
					</g>
				</g>
			</g>
		</g>
	</svg>