<svg version="1.1" baseProfile="full" width="732.8" height="868.0" viewbox="0 0 732.75 868" xmlns="http://www.w3.org/2000/svg" xmlns:xlink="http://www.w3.org/1999/xlink" xmlns:ev="http://www.w3.org/2001/xml-events">
		<title >ProjectsDependencies</title>
	<desc >#title: ProjectsDependencies
	#.base: fill=orange dashed bold italic
	#.abstract: fill=yellow dashed bold italic
	#.concrete: fill=lime bold
	
	[&lt;base&gt;Common]
	[&lt;base&gt;Measurables]
	[&lt;base&gt;BaseMeasurements]
	[&lt;base&gt;Quantifiables]
	[&lt;base&gt;BaseMeasures]
	[&lt;base&gt;Spreads]
	[&lt;base&gt;Shapes]
	[&lt;concrete&gt;Measurements]
	[&lt;concrete&gt;Measures]
	[&lt;base&gt;BaseRates]
	[&lt;concrete&gt;RateComponents]
	[&lt;concrete&gt;Rates]
	[&lt;concrete&gt;Proportions]
	[&lt;concrete&gt;BulkSpreads]
	[&lt;abstract&gt;SimpleShapes]
	[&lt;concrete&gt;PlaneShapes]
	[&lt;concrete&gt;DryBodies]
	[&lt;concrete&gt;Masses]
	[&lt;abstract&gt;ComplexShapes]
	[&lt;concrete&gt;Sections]
	[&lt;concrete&gt;ComplexDryBodies]
	
	[Common]&lt;--[Measurables]
	[Measurables]&lt;--[BaseMeasurements]
	[Quantifiables]--&gt;[Measurables]
	[BaseMeasures]--&gt;[BaseMeasurements]
	[BaseMeasures]--&gt;[Quantifiables]
	[BaseMeasures]&lt;--[Spreads]
	[Spreads]&lt;--[Shapes]
	[BaseMeasurements]&lt;--[Measurements]
	[Measurements]&lt;--[Measures]
	[BaseMeasures]&lt;--[Measures]
	[BaseMeasures]&lt;--[BaseRates]
	[Measures]&lt;--[RateComponents]
	[Rates]--&gt;[BaseRates]
	[RateComponents]&lt;--[Rates]
	[BaseRates]&lt;--[Proportions]
	[Measures]&lt;--[Proportions]
	[Measures]&lt;--[BulkSpreads]
	[Spreads]&lt;--[BulkSpreads]
	[BulkSpreads]&lt;--[SimpleShapes]
	[Shapes]&lt;--[SimpleShapes]
	[SimpleShapes]&lt;--[PlaneShapes]
	[PlaneShapes]&lt;--[DryBodies]
	[Proportions]&lt;--[Masses]
	[DryBodies]&lt;--[Masses]
	[Shapes]&lt;--[ComplexShapes]
	[DryBodies]&lt;--[Sections]
	[ComplexShapes]&lt;--[Sections]
	[Sections]&lt;--[ComplexDryBodies]</desc>
	<g stroke-width="1.0" text-align="left" font="12pt Helvetica, Arial, sans-serif" font-size="12pt" font-family="Helvetica" font-weight="bold" font-style="normal">
			<g font-family="Helvetica" font-size="12pt" font-weight="bold" font-style="normal" stroke-width="3.0" stroke-linejoin="round" stroke-linecap="round" stroke="#33322E">
				<g stroke="transparent" fill="transparent">
					<rect x="0.0" y="0.0" height="868.0" width="732.8" stroke="none"></rect>
				</g>
			<g transform="translate(16, 8)" fill="#33322E">
					<g transform="translate(20, 20)" fill="#33322E" font-family="Helvetica" font-size="12pt" font-weight="normal" font-style="normal">
						<g stroke-dasharray="6 6">
							<path d="M94.8 108.7 L94.75 122 L134.46830985915494 142 L134.5 142.0 " fill="none"></path>
						</g>
					<path d="M100.1 115.3 L94.8 108.7 L89.4 115.3 L94.8 102.0 Z"></path>
					<g stroke-dasharray="6 6">
							<path d="M165.3 179.7 L165.25 193 L192.99647887323943 213 L193.0 213.0 " fill="none"></path>
						</g>
					<path d="M170.6 186.3 L165.3 179.7 L159.9 186.3 L165.3 173.0 Z"></path>
					<g stroke-dasharray="6 6">
							<path d="M235.8 102.0 L235.75 122 L201.98606822839017 139.00169614031415 L202.0 139.0 " fill="none"></path>
						</g>
					<path d="M205.5 131.2 L202.0 139.0 L210.3 140.8 L196.0 142.0 Z"></path>
					<g stroke-dasharray="6 6">
							<path d="M346.5 31.0 L334.25 51 L334.25 86.5 L334.25 86.5 L334.25 122 L334.25 122 L334.25 157.5 L334.25 157.5 L334.25 193 L334.25 193 L273.17692938770006 211.10516915855237 L273.2 211.1 " fill="none"></path>
						</g>
					<path d="M278.1 204.1 L273.2 211.1 L281.1 214.3 L266.8 213.0 Z"></path>
					<g stroke-dasharray="6 6">
							<path d="M303.5 31.0 L235.75 51 L235.75 64.33333333333333 L235.8 64.3 " fill="none"></path>
						</g>
					<path d="M230.4 57.7 L235.8 64.3 L241.1 57.7 L235.8 71.0 Z"></path>
					<g stroke-dasharray="6 6">
							<path d="M426.6 26.0 L594.75 51 L594.75 86.5 L594.75 86.5 L594.75 122 L594.75 122 L594.75 157.5 L594.75 157.5 L594.75 193 L594.75 193 L594.75 228.5 L594.75 228.5 L594.75 264 L594.75 264 L594.75 299.5 L594.75 299.5 L594.75 335 L594.75 335 L594.75 355 L594.8 355.0 " fill="none"></path>
						</g>
					<path d="M434.0 21.7 L426.6 26.0 L432.4 32.3 L420.0 25.0 Z"></path>
					<g stroke-dasharray="6 6">
							<path d="M594.8 392.7 L594.75 406 L594.75 426 L594.8 426.0 " fill="none"></path>
						</g>
					<path d="M600.1 399.3 L594.8 392.7 L589.4 399.3 L594.8 386.0 Z"></path>
					<g stroke-dasharray="6 6">
							<path d="M214.5 250.7 L214.5 264 L214.5 284 L214.5 284.0 " fill="none"></path>
						</g>
					<path d="M219.8 257.3 L214.5 250.7 L209.2 257.3 L214.5 244.0 Z"></path>
					<g stroke-dasharray="6 6">
							<path d="M214.5 321.7 L214.5 335 L261.40140845070425 355 L261.4 355.0 " fill="none"></path>
						</g>
					<path d="M219.8 328.3 L214.5 321.7 L209.2 328.3 L214.5 315.0 Z"></path>
					<g stroke-dasharray="6 6">
							<path d="M387.8 34.4 L415.75 51 L415.75 86.5 L415.75 86.5 L415.75 122 L415.75 122 L415.75 157.5 L415.75 157.5 L415.75 193 L415.75 193 L415.75 228.5 L415.75 228.5 L415.75 264 L415.75 264 L415.75 299.5 L415.75 299.5 L415.75 335 L415.75 335 L342.75 356.9618644067797 L342.8 357.0 " fill="none"></path>
						</g>
					<path d="M396.3 33.2 L387.8 34.4 L390.8 42.4 L382.1 31.0 Z"></path>
					<g stroke-dasharray="6 6">
							<path d="M285.4 22.4 L-8 51 L-8 86.5 L-8 86.5 L-8 122 L-8 122 L-8 157.5 L-8 157.5 L-8 193 L-8 193 L-8 228.5 L-8 228.5 L-8 264 L-8 264 L-8 299.5 L-8 299.5 L-8 335 L-8 335 L-8 370.5 L-8 370.5 L-8 406 L-8 406 L-8 441.5 L-8 441.5 L-8 477 L-8 477 L-8 512.5 L-8 512.5 L-8 548 L-8 548 L24.112676056338028 568 L24.1 568.0 " fill="none"></path>
						</g>
					<path d="M279.2 28.3 L285.4 22.4 L278.2 17.7 L292.0 21.7 Z"></path>
					<g stroke-dasharray="6 6">
							<path d="M246.2 380.0 L106 406 L106 426 L106.0 426.0 " fill="none"></path>
						</g>
					<path d="M240.6 386.5 L246.2 380.0 L238.7 376.0 L252.8 378.8 Z"></path>
					<g stroke-dasharray="6 6">
							<path d="M106.0 528.0 L106 548 L79.54621638851278 564.4756020738209 L79.5 564.5 " fill="none"></path>
						</g>
					<path d="M82.4 556.4 L79.5 564.5 L88.0 565.5 L73.9 568.0 Z"></path>
					<g stroke-dasharray="6 6">
							<path d="M106.0 463.7 L106 477 L106 497 L106.0 497.0 " fill="none"></path>
						</g>
					<path d="M111.3 470.3 L106.0 463.7 L100.7 470.3 L106.0 457.0 Z"></path>
					<g stroke-dasharray="6 6">
							<path d="M49.0 605.7 L49 619 L81.11267605633803 639 L81.1 639.0 " fill="none"></path>
						</g>
					<path d="M54.3 612.3 L49.0 605.7 L43.7 612.3 L49.0 599.0 Z"></path>
					<g stroke-dasharray="6 6">
							<path d="M297.8 392.7 L297.75 406 L297.75 441.5 L297.75 441.5 L297.75 477 L297.75 477 L297.75 512.5 L297.75 512.5 L297.75 548 L297.75 548 L297.75 583.5 L297.75 583.5 L297.75 619 L297.75 619 L159.5 644.5951760104302 L159.5 644.6 " fill="none"></path>
						</g>
					<path d="M303.1 399.3 L297.8 392.7 L292.4 399.3 L297.8 386.0 Z"></path>
					<g stroke-dasharray="6 6">
							<path d="M343.8 388.4 L389 406 L400.2676056338028 426 L400.3 426.0 " fill="none"></path>
						</g>
					<path d="M352.0 385.9 L343.8 388.4 L348.1 395.8 L337.6 386.0 Z"></path>
					<g stroke-dasharray="6 6">
							<path d="M548.8 382.2 L455.75 406 L429.4119718309859 426 L429.4 426.0 " fill="none"></path>
						</g>
					<path d="M543.7 389.1 L548.8 382.2 L541.0 378.7 L555.3 380.6 Z"></path>
					<g stroke-dasharray="6 6">
							<path d="M409.0 463.7 L409 477 L424.6338028169014 497 L424.6 497.0 " fill="none"></path>
						</g>
					<path d="M414.3 470.3 L409.0 463.7 L403.7 470.3 L409.0 457.0 Z"></path>
					<g stroke-dasharray="6 6">
							<path d="M552.0 456.8 L495.75 477 L462.51056338028167 497 L462.5 497.0 " fill="none"></path>
						</g>
					<path d="M547.5 464.1 L552.0 456.8 L543.9 454.1 L558.3 454.6 Z"></path>
					<g stroke-dasharray="6 6">
							<path d="M436.8 534.7 L436.75 548 L436.75 568 L436.8 568.0 " fill="none"></path>
						</g>
					<path d="M442.1 541.3 L436.8 534.7 L431.4 541.3 L436.8 528.0 Z"></path>
					<g stroke-dasharray="6 6">
							<path d="M436.8 605.7 L436.75 619 L436.75 639 L436.8 639.0 " fill="none"></path>
						</g>
					<path d="M442.1 612.3 L436.8 605.7 L431.4 612.3 L436.8 599.0 Z"></path>
					<g stroke-dasharray="6 6">
							<path d="M106.0 676.7 L106 690 L117.26760563380282 710 L117.3 710.0 " fill="none"></path>
						</g>
					<path d="M111.3 683.3 L106.0 676.7 L100.7 683.3 L106.0 670.0 Z"></path>
					<g stroke-dasharray="6 6">
							<path d="M405.5 673.5 L378.25 690 L163 720.292864222002 L163.0 720.3 " fill="none"></path>
						</g>
					<path d="M402.6 681.5 L405.5 673.5 L397.0 672.4 L411.2 670.0 Z"></path>
					<g stroke-dasharray="6 6">
							<path d="M594.8 463.7 L594.75 477 L594.75 512.5 L594.75 512.5 L594.75 548 L594.75 548 L594.75 583.5 L594.75 583.5 L594.75 619 L594.75 619 L594.75 639 L594.8 639.0 " fill="none"></path>
						</g>
					<path d="M600.1 470.3 L594.8 463.7 L589.4 470.3 L594.8 457.0 Z"></path>
					<g stroke-dasharray="6 6">
							<path d="M468.2 673.4 L495.75 690 L553.25 710.6186868686868 L553.3 710.6 " fill="none"></path>
						</g>
					<path d="M476.7 672.3 L468.2 673.4 L471.2 681.4 L462.5 670.0 Z"></path>
					<g stroke-dasharray="6 6">
							<path d="M594.8 676.7 L594.75 690 L594.75 710 L594.8 710.0 " fill="none"></path>
						</g>
					<path d="M600.1 683.3 L594.8 676.7 L589.4 683.3 L594.8 670.0 Z"></path>
					<g stroke-dasharray="6 6">
							<path d="M594.8 747.7 L594.75 761 L594.75 781 L594.8 781.0 " fill="none"></path>
						</g>
					<path d="M600.1 754.3 L594.8 747.7 L589.4 754.3 L594.8 741.0 Z"></path>
					<g data-name="Common">
							<g fill="orange" stroke="#33322E" stroke-dasharray="6 6" data-name="Common">
								<rect x="52.3" y="71.0" height="31.0" width="85.0" data-name="Common"></rect>
							</g>
						<g transform="translate(52.25, 71)" font-family="Helvetica" font-size="12pt" font-weight="bold" font-style="italic" data-name="Common">
								<g transform="translate(8, 8)" fill="#33322E" text-align="center" data-name="Common">
									<text x="34.5" y="13.5" stroke="none" text-anchor="middle" data-name="Common">Common</text>
								
								</g>
							</g>
						</g>
					<g data-name="Measurables">
							<g fill="orange" stroke="#33322E" stroke-dasharray="6 6" data-name="Measurables">
								<rect x="108.8" y="142.0" height="31.0" width="113.0" data-name="Measurables"></rect>
							</g>
						<g transform="translate(108.75, 142)" font-family="Helvetica" font-size="12pt" font-weight="bold" font-style="italic" data-name="Measurables">
								<g transform="translate(8, 8)" fill="#33322E" text-align="center" data-name="Measurables">
									<text x="48.5" y="13.5" stroke="none" text-anchor="middle" data-name="Measurables">Measurables</text>
								
								</g>
							</g>
						</g>
					<g data-name="BaseMeasurements">
							<g fill="orange" stroke="#33322E" stroke-dasharray="6 6" data-name="BaseMeasurements">
								<rect x="131.5" y="213.0" height="31.0" width="166.0" data-name="BaseMeasurements"></rect>
							</g>
						<g transform="translate(131.5, 213)" font-family="Helvetica" font-size="12pt" font-weight="bold" font-style="italic" data-name="BaseMeasurements">
								<g transform="translate(8, 8)" fill="#33322E" text-align="center" data-name="BaseMeasurements">
									<text x="75.0" y="13.5" stroke="none" text-anchor="middle" data-name="BaseMeasurements">BaseMeasurements</text>
								
								</g>
							</g>
						</g>
					<g data-name="Quantifiables">
							<g fill="orange" stroke="#33322E" stroke-dasharray="6 6" data-name="Quantifiables">
								<rect x="177.3" y="71.0" height="31.0" width="117.0" data-name="Quantifiables"></rect>
							</g>
						<g transform="translate(177.25, 71)" font-family="Helvetica" font-size="12pt" font-weight="bold" font-style="italic" data-name="Quantifiables">
								<g transform="translate(8, 8)" fill="#33322E" text-align="center" data-name="Quantifiables">
									<text x="50.5" y="13.5" stroke="none" text-anchor="middle" data-name="Quantifiables">Quantifiables</text>
								
								</g>
							</g>
						</g>
					<g data-name="BaseMeasures">
							<g fill="orange" stroke="#33322E" stroke-dasharray="6 6" data-name="BaseMeasures">
								<rect x="292.0" y="0.0" height="31.0" width="128.0" data-name="BaseMeasures"></rect>
							</g>
						<g transform="translate(292, 0)" font-family="Helvetica" font-size="12pt" font-weight="bold" font-style="italic" data-name="BaseMeasures">
								<g transform="translate(8, 8)" fill="#33322E" text-align="center" data-name="BaseMeasures">
									<text x="56.0" y="13.5" stroke="none" text-anchor="middle" data-name="BaseMeasures">BaseMeasures</text>
								
								</g>
							</g>
						</g>
					<g data-name="Spreads">
							<g fill="orange" stroke="#33322E" stroke-dasharray="6 6" data-name="Spreads">
								<rect x="555.3" y="355.0" height="31.0" width="79.0" data-name="Spreads"></rect>
							</g>
						<g transform="translate(555.25, 355)" font-family="Helvetica" font-size="12pt" font-weight="bold" font-style="italic" data-name="Spreads">
								<g transform="translate(8, 8)" fill="#33322E" text-align="center" data-name="Spreads">
									<text x="31.5" y="13.5" stroke="none" text-anchor="middle" data-name="Spreads">Spreads</text>
								
								</g>
							</g>
						</g>
					<g data-name="Shapes">
							<g fill="orange" stroke="#33322E" stroke-dasharray="6 6" data-name="Shapes">
								<rect x="558.3" y="426.0" height="31.0" width="73.0" data-name="Shapes"></rect>
							</g>
						<g transform="translate(558.25, 426)" font-family="Helvetica" font-size="12pt" font-weight="bold" font-style="italic" data-name="Shapes">
								<g transform="translate(8, 8)" fill="#33322E" text-align="center" data-name="Shapes">
									<text x="28.5" y="13.5" stroke="none" text-anchor="middle" data-name="Shapes">Shapes</text>
								
								</g>
							</g>
						</g>
					<g data-name="Measurements">
							<g fill="lime" stroke="#33322E" data-name="Measurements">
								<rect x="150.5" y="284.0" height="31.0" width="128.0" data-name="Measurements"></rect>
							</g>
						<g transform="translate(150.5, 284)" font-family="Helvetica" font-size="12pt" font-weight="bold" font-style="normal" data-name="Measurements">
								<g transform="translate(8, 8)" fill="#33322E" text-align="center" data-name="Measurements">
									<text x="56.0" y="13.5" stroke="none" text-anchor="middle" data-name="Measurements">Measurements</text>
								
								</g>
							</g>
						</g>
					<g data-name="Measures">
							<g fill="lime" stroke="#33322E" data-name="Measures">
								<rect x="252.8" y="355.0" height="31.0" width="90.0" data-name="Measures"></rect>
							</g>
						<g transform="translate(252.75, 355)" font-family="Helvetica" font-size="12pt" font-weight="bold" font-style="normal" data-name="Measures">
								<g transform="translate(8, 8)" fill="#33322E" text-align="center" data-name="Measures">
									<text x="37.0" y="13.5" stroke="none" text-anchor="middle" data-name="Measures">Measures</text>
								
								</g>
							</g>
						</g>
					<g data-name="BaseRates">
							<g fill="orange" stroke="#33322E" stroke-dasharray="6 6" data-name="BaseRates">
								<rect x="0.0" y="568.0" height="31.0" width="98.0" data-name="BaseRates"></rect>
							</g>
						<g transform="translate(0, 568)" font-family="Helvetica" font-size="12pt" font-weight="bold" font-style="italic" data-name="BaseRates">
								<g transform="translate(8, 8)" fill="#33322E" text-align="center" data-name="BaseRates">
									<text x="41.0" y="13.5" stroke="none" text-anchor="middle" data-name="BaseRates">BaseRates</text>
								
								</g>
							</g>
						</g>
					<g data-name="RateComponents">
							<g fill="lime" stroke="#33322E" data-name="RateComponents">
								<rect x="32.0" y="426.0" height="31.0" width="148.0" data-name="RateComponents"></rect>
							</g>
						<g transform="translate(32, 426)" font-family="Helvetica" font-size="12pt" font-weight="bold" font-style="normal" data-name="RateComponents">
								<g transform="translate(8, 8)" fill="#33322E" text-align="center" data-name="RateComponents">
									<text x="66.0" y="13.5" stroke="none" text-anchor="middle" data-name="RateComponents">RateComponents</text>
								
								</g>
							</g>
						</g>
					<g data-name="Rates">
							<g fill="lime" stroke="#33322E" data-name="Rates">
								<rect x="76.0" y="497.0" height="31.0" width="60.0" data-name="Rates"></rect>
							</g>
						<g transform="translate(76, 497)" font-family="Helvetica" font-size="12pt" font-weight="bold" font-style="normal" data-name="Rates">
								<g transform="translate(8, 8)" fill="#33322E" text-align="center" data-name="Rates">
									<text x="22.0" y="13.5" stroke="none" text-anchor="middle" data-name="Rates">Rates</text>
								
								</g>
							</g>
						</g>
					<g data-name="Proportions">
							<g fill="lime" stroke="#33322E" data-name="Proportions">
								<rect x="52.5" y="639.0" height="31.0" width="107.0" data-name="Proportions"></rect>
							</g>
						<g transform="translate(52.5, 639)" font-family="Helvetica" font-size="12pt" font-weight="bold" font-style="normal" data-name="Proportions">
								<g transform="translate(8, 8)" fill="#33322E" text-align="center" data-name="Proportions">
									<text x="45.5" y="13.5" stroke="none" text-anchor="middle" data-name="Proportions">Proportions</text>
								
								</g>
							</g>
						</g>
					<g data-name="BulkSpreads">
							<g fill="lime" stroke="#33322E" data-name="BulkSpreads">
								<rect x="352.0" y="426.0" height="31.0" width="114.0" data-name="BulkSpreads"></rect>
							</g>
						<g transform="translate(352, 426)" font-family="Helvetica" font-size="12pt" font-weight="bold" font-style="normal" data-name="BulkSpreads">
								<g transform="translate(8, 8)" fill="#33322E" text-align="center" data-name="BulkSpreads">
									<text x="49.0" y="13.5" stroke="none" text-anchor="middle" data-name="BulkSpreads">BulkSpreads</text>
								
								</g>
							</g>
						</g>
					<g data-name="SimpleShapes">
							<g fill="yellow" stroke="#33322E" stroke-dasharray="6 6" data-name="SimpleShapes">
								<rect x="374.3" y="497.0" height="31.0" width="125.0" data-name="SimpleShapes"></rect>
							</g>
						<g transform="translate(374.25, 497)" font-family="Helvetica" font-size="12pt" font-weight="bold" font-style="italic" data-name="SimpleShapes">
								<g transform="translate(8, 8)" fill="#33322E" text-align="center" data-name="SimpleShapes">
									<text x="54.5" y="13.5" stroke="none" text-anchor="middle" data-name="SimpleShapes">SimpleShapes</text>
								
								</g>
							</g>
						</g>
					<g data-name="PlaneShapes">
							<g fill="lime" stroke="#33322E" data-name="PlaneShapes">
								<rect x="378.8" y="568.0" height="31.0" width="116.0" data-name="PlaneShapes"></rect>
							</g>
						<g transform="translate(378.75, 568)" font-family="Helvetica" font-size="12pt" font-weight="bold" font-style="normal" data-name="PlaneShapes">
								<g transform="translate(8, 8)" fill="#33322E" text-align="center" data-name="PlaneShapes">
									<text x="50.0" y="13.5" stroke="none" text-anchor="middle" data-name="PlaneShapes">PlaneShapes</text>
								
								</g>
							</g>
						</g>
					<g data-name="DryBodies">
							<g fill="lime" stroke="#33322E" data-name="DryBodies">
								<rect x="388.8" y="639.0" height="31.0" width="96.0" data-name="DryBodies"></rect>
							</g>
						<g transform="translate(388.75, 639)" font-family="Helvetica" font-size="12pt" font-weight="bold" font-style="normal" data-name="DryBodies">
								<g transform="translate(8, 8)" fill="#33322E" text-align="center" data-name="DryBodies">
									<text x="40.0" y="13.5" stroke="none" text-anchor="middle" data-name="DryBodies">DryBodies</text>
								
								</g>
							</g>
						</g>
					<g data-name="Masses">
							<g fill="lime" stroke="#33322E" data-name="Masses">
								<rect x="89.0" y="710.0" height="31.0" width="74.0" data-name="Masses"></rect>
							</g>
						<g transform="translate(89, 710)" font-family="Helvetica" font-size="12pt" font-weight="bold" font-style="normal" data-name="Masses">
								<g transform="translate(8, 8)" fill="#33322E" text-align="center" data-name="Masses">
									<text x="29.0" y="13.5" stroke="none" text-anchor="middle" data-name="Masses">Masses</text>
								
								</g>
							</g>
						</g>
					<g data-name="ComplexShapes">
							<g fill="yellow" stroke="#33322E" stroke-dasharray="6 6" data-name="ComplexShapes">
								<rect x="524.8" y="639.0" height="31.0" width="140.0" data-name="ComplexShapes"></rect>
							</g>
						<g transform="translate(524.75, 639)" font-family="Helvetica" font-size="12pt" font-weight="bold" font-style="italic" data-name="ComplexShapes">
								<g transform="translate(8, 8)" fill="#33322E" text-align="center" data-name="ComplexShapes">
									<text x="62.0" y="13.5" stroke="none" text-anchor="middle" data-name="ComplexShapes">ComplexShapes</text>
								
								</g>
							</g>
						</g>
					<g data-name="Sections">
							<g fill="lime" stroke="#33322E" data-name="Sections">
								<rect x="553.3" y="710.0" height="31.0" width="83.0" data-name="Sections"></rect>
							</g>
						<g transform="translate(553.25, 710)" font-family="Helvetica" font-size="12pt" font-weight="bold" font-style="normal" data-name="Sections">
								<g transform="translate(8, 8)" fill="#33322E" text-align="center" data-name="Sections">
									<text x="33.5" y="13.5" stroke="none" text-anchor="middle" data-name="Sections">Sections</text>
								
								</g>
							</g>
						</g>
					<g data-name="ComplexDryBodies">
							<g fill="lime" stroke="#33322E" data-name="ComplexDryBodies">
								<rect x="512.8" y="781.0" height="31.0" width="164.0" data-name="ComplexDryBodies"></rect>
							</g>
						<g transform="translate(512.75, 781)" font-family="Helvetica" font-size="12pt" font-weight="bold" font-style="normal" data-name="ComplexDryBodies">
								<g transform="translate(8, 8)" fill="#33322E" text-align="center" data-name="ComplexDryBodies">
									<text x="74.0" y="13.5" stroke="none" text-anchor="middle" data-name="ComplexDryBodies">ComplexDryBodies</text>
								
								</g>
							</g>
						</g>
					</g>
				</g>
			</g>
		</g>
	</svg>