<svg version="1.1" baseProfile="full" width="1206.3" height="584.0" viewbox="0 0 1206.25 584" xmlns="http://www.w3.org/2000/svg" xmlns:xlink="http://www.w3.org/1999/xlink" xmlns:ev="http://www.w3.org/2001/xml-events">
		<title >ProjectsInheritance</title>
	<desc >#title: ProjectsInheritance
	#.base: fill=orange dashed bold italic
	#.abstract: fill=yellow bold italic
	#.concrete: fill=lime bold
	
	[&lt;base&gt;Common]
	[&lt;base&gt;Measurables]
	[&lt;base&gt;BaseMeasurements]
	[&lt;base&gt;BaseQuantifiables]
	[&lt;base&gt;Quantifiables]
	[&lt;base&gt;BaseMeasures]
	[&lt;base&gt;Spreads]
	[&lt;base&gt;Shapes]
	[&lt;base&gt;BaseRates]
	
	[&lt;abstract&gt;SimpleShapes]
	[&lt;abstract&gt;ComplexShapes]
	[&lt;abstract&gt;SimpleRates]
	
	[&lt;concrete&gt;Measurements]
	[&lt;concrete&gt;Measures]
	[&lt;concrete&gt;ShapeLimits]
	[&lt;concrete&gt;RateComponents]
	[&lt;concrete&gt;Rates]
	[&lt;concrete&gt;Proportions]
	[&lt;concrete&gt;ProportionLimits]
	[&lt;concrete&gt;BulkSpreads]
	[&lt;concrete&gt;PlaneShapes]
	[&lt;concrete&gt;DryBodies]
	[&lt;concrete&gt;Masses]
	[&lt;concrete&gt;Sections]
	[&lt;concrete&gt;ComplexDryBodies]
	
	[Common]&lt;:-[Measurables]
	[Measurables]&lt;:-[BaseMeasurements]
	[BaseMeasurements]&lt;:-[Measurements]
	[Measurables]&lt;:-[BaseQuantifiables]
	[BaseQuantifiables]&lt;:-[BaseRates]
	[BaseQuantifiables]&lt;:-[Masses]
	[BaseQuantifiables]&lt;:-[Quantifiables]
	[Quantifiables]&lt;:-[BaseMeasures]
	[Quantifiables]&lt;:-[Spreads]
	[Spreads]&lt;:-[BulkSpreads]
	[Spreads]&lt;:-[Shapes]
	[Shapes]&lt;:-[SimpleShapes]
	[SimpleShapes]&lt;:-[ShapeLimits]
	[SimpleShapes]&lt;:-[PlaneShapes]
	[SimpleShapes]&lt;:-[DryBodies]
	[BaseMeasures]&lt;:-[Measures]
	[BaseMeasures]&lt;:-[RateComponents]
	[BaseRates]&lt;:-[SimpleRates]
	[BaseRates]&lt;:-[Rates]
	[SimpleRates]&lt;:-[Proportions]
	[SimpleRates]&lt;:-[ProportionLimits]
	[Shapes]&lt;:-[ComplexShapes]
	[ComplexShapes]&lt;:-[Sections]
	[ComplexShapes]&lt;:-[ComplexDryBodies]</desc>
	<g stroke-width="1.0" text-align="left" font="12pt Helvetica, Arial, sans-serif" font-size="12pt" font-family="Helvetica" font-weight="bold" font-style="normal">
			<g font-family="Helvetica" font-size="12pt" font-weight="bold" font-style="normal" stroke-width="3.0" stroke-linejoin="round" stroke-linecap="round" stroke="#33322E">
				<g stroke="transparent" fill="transparent">
					<rect x="0.0" y="0.0" height="584.0" width="1206.3" stroke="none"></rect>
				</g>
			<g transform="translate(8, 8)" fill="#33322E">
					<g transform="translate(20, 20)" fill="#eee8d5" font-family="Helvetica" font-size="12pt" font-weight="normal" font-style="normal">
						<path d="M222.5 44.3 L222.5 51 L222.5 71 L222.5 71.0 " fill="none"></path>
					<path d="M227.8 44.3 L222.5 44.3 L217.2 44.3 L222.5 31.0 Z"></path>
					<path d="M153.1 104.2 L83 122 L83 142 L83.0 142.0 " fill="none"></path>
					<path d="M154.4 109.3 L153.1 104.2 L151.8 99.0 L166.0 100.9 Z"></path>
					<path d="M83.0 186.3 L83 193 L83 213 L83.0 213.0 " fill="none"></path>
					<path d="M88.3 186.3 L83.0 186.3 L77.7 186.3 L83.0 173.0 Z"></path>
					<path d="M292.1 101.0 L393 122 L393 142 L393.0 142.0 " fill="none"></path>
					<path d="M293.1 95.8 L292.1 101.0 L291.0 106.2 L279.0 98.3 Z"></path>
					<path d="M322.0 176.4 L260 193 L260 213 L260.0 213.0 " fill="none"></path>
					<path d="M323.4 181.6 L322.0 176.4 L320.7 171.3 L334.9 173.0 Z"></path>
					<path d="M410.9 184.0 L417 193 L417 213 L417.0 213.0 " fill="none"></path>
					<path d="M415.4 181.1 L410.9 184.0 L406.5 187.0 L403.5 173.0 Z"></path>
					<path d="M484.2 170.6 L641 193 L641 213 L641.0 213.0 " fill="none"></path>
					<path d="M485.0 165.3 L484.2 170.6 L483.4 175.8 L471.0 168.7 Z"></path>
					<path d="M569.4 243.2 L467.75 264 L467.75 284 L467.8 284.0 " fill="none"></path>
					<path d="M570.5 248.4 L569.4 243.2 L568.4 237.9 L582.5 240.5 Z"></path>
					<path d="M712.4 246.5 L782 264 L782 284 L782.0 284.0 " fill="none"></path>
					<path d="M713.7 241.3 L712.4 246.5 L711.1 251.7 L699.5 243.2 Z"></path>
					<path d="M741.1 321.3 L715.25 335 L715.25 355 L715.3 355.0 " fill="none"></path>
					<path d="M743.6 326.0 L741.1 321.3 L738.6 316.6 L752.9 315.0 Z"></path>
					<path d="M822.9 321.3 L848.75 335 L848.75 355 L848.8 355.0 " fill="none"></path>
					<path d="M825.4 316.6 L822.9 321.3 L820.4 326.0 L811.1 315.0 Z"></path>
					<path d="M799.3 382.5 L702.25 406 L702.25 426 L702.3 426.0 " fill="none"></path>
					<path d="M800.5 387.7 L799.3 382.5 L798.0 377.3 L812.3 379.3 Z"></path>
					<path d="M626.6 453.4 L475.75 477 L475.75 497 L475.8 497.0 " fill="none"></path>
					<path d="M627.4 458.6 L626.6 453.4 L625.8 448.1 L639.8 451.3 Z"></path>
					<path d="M658.4 462.8 L629.25 477 L629.25 497 L629.3 497.0 " fill="none"></path>
					<path d="M660.7 467.6 L658.4 462.8 L656.1 458.0 L670.4 457.0 Z"></path>
					<path d="M746.1 462.8 L775.25 477 L775.25 497 L775.3 497.0 " fill="none"></path>
					<path d="M748.4 458.0 L746.1 462.8 L743.8 467.6 L734.1 457.0 Z"></path>
					<path d="M419.5 320.3 L385.25 335 L385.25 355 L385.3 355.0 " fill="none"></path>
					<path d="M421.6 325.2 L419.5 320.3 L417.4 315.4 L431.7 315.0 Z"></path>
					<path d="M513.2 320.6 L544.25 335 L544.25 355 L544.3 355.0 " fill="none"></path>
					<path d="M515.5 315.8 L513.2 320.6 L511.0 325.5 L501.2 315.0 Z"></path>
					<path d="M199.8 248.1 L151.25 264 L151.25 284 L151.3 284.0 " fill="none"></path>
					<path d="M201.5 253.2 L199.8 248.1 L198.2 243.1 L212.5 244.0 Z"></path>
					<path d="M304.2 249.8 L333.75 264 L333.75 284 L333.8 284.0 " fill="none"></path>
					<path d="M306.5 245.0 L304.2 249.8 L301.9 254.6 L292.2 244.0 Z"></path>
					<path d="M99.8 319.9 L61.75 335 L61.75 355 L61.8 355.0 " fill="none"></path>
					<path d="M101.7 324.9 L99.8 319.9 L97.8 315.0 L112.2 315.0 Z"></path>
					<path d="M196.7 320.6 L227.75 335 L227.75 355 L227.8 355.0 " fill="none"></path>
					<path d="M199.0 315.8 L196.7 320.6 L194.5 325.5 L184.7 315.0 Z"></path>
					<path d="M898.2 383.2 L986.5 406 L986.5 426 L986.5 426.0 " fill="none"></path>
					<path d="M899.5 378.1 L898.2 383.2 L896.8 388.4 L885.3 379.9 Z"></path>
					<path d="M938.6 462.3 L904.75 477 L904.75 497 L904.8 497.0 " fill="none"></path>
					<path d="M940.7 467.2 L938.6 462.3 L936.5 457.4 L950.8 457.0 Z"></path>
					<path d="M1034.4 462.3 L1068.25 477 L1068.25 497 L1068.3 497.0 " fill="none"></path>
					<path d="M1036.5 457.4 L1034.4 462.3 L1032.3 467.2 L1022.2 457.0 Z"></path>
					<g data-name="Common">
							<g fill="orange" stroke="#33322E" stroke-dasharray="6 6" data-name="Common">
								<rect x="180.0" y="0.0" height="31.0" width="85.0" data-name="Common"></rect>
							</g>
						<g transform="translate(180, 0)" font-family="Helvetica" font-size="12pt" font-weight="bold" font-style="italic" data-name="Common">
								<g transform="translate(8, 8)" fill="#33322E" text-align="center" data-name="Common">
									<text x="34.5" y="13.5" stroke="none" text-anchor="middle" data-name="Common">Common</text>
								
								</g>
							</g>
						</g>
					<g data-name="Measurables">
							<g fill="orange" stroke="#33322E" stroke-dasharray="6 6" data-name="Measurables">
								<rect x="166.0" y="71.0" height="31.0" width="113.0" data-name="Measurables"></rect>
							</g>
						<g transform="translate(166, 71)" font-family="Helvetica" font-size="12pt" font-weight="bold" font-style="italic" data-name="Measurables">
								<g transform="translate(8, 8)" fill="#33322E" text-align="center" data-name="Measurables">
									<text x="48.5" y="13.5" stroke="none" text-anchor="middle" data-name="Measurables">Measurables</text>
								
								</g>
							</g>
						</g>
					<g data-name="BaseMeasurements">
							<g fill="orange" stroke="#33322E" stroke-dasharray="6 6" data-name="BaseMeasurements">
								<rect x="0.0" y="142.0" height="31.0" width="166.0" data-name="BaseMeasurements"></rect>
							</g>
						<g transform="translate(0, 142)" font-family="Helvetica" font-size="12pt" font-weight="bold" font-style="italic" data-name="BaseMeasurements">
								<g transform="translate(8, 8)" fill="#33322E" text-align="center" data-name="BaseMeasurements">
									<text x="75.0" y="13.5" stroke="none" text-anchor="middle" data-name="BaseMeasurements">BaseMeasurements</text>
								
								</g>
							</g>
						</g>
					<g data-name="BaseQuantifiables">
							<g fill="orange" stroke="#33322E" stroke-dasharray="6 6" data-name="BaseQuantifiables">
								<rect x="315.0" y="142.0" height="31.0" width="156.0" data-name="BaseQuantifiables"></rect>
							</g>
						<g transform="translate(315, 142)" font-family="Helvetica" font-size="12pt" font-weight="bold" font-style="italic" data-name="BaseQuantifiables">
								<g transform="translate(8, 8)" fill="#33322E" text-align="center" data-name="BaseQuantifiables">
									<text x="70.0" y="13.5" stroke="none" text-anchor="middle" data-name="BaseQuantifiables">BaseQuantifiables</text>
								
								</g>
							</g>
						</g>
					<g data-name="Quantifiables">
							<g fill="orange" stroke="#33322E" stroke-dasharray="6 6" data-name="Quantifiables">
								<rect x="582.5" y="213.0" height="31.0" width="117.0" data-name="Quantifiables"></rect>
							</g>
						<g transform="translate(582.5, 213)" font-family="Helvetica" font-size="12pt" font-weight="bold" font-style="italic" data-name="Quantifiables">
								<g transform="translate(8, 8)" fill="#33322E" text-align="center" data-name="Quantifiables">
									<text x="50.5" y="13.5" stroke="none" text-anchor="middle" data-name="Quantifiables">Quantifiables</text>
								
								</g>
							</g>
						</g>
					<g data-name="BaseMeasures">
							<g fill="orange" stroke="#33322E" stroke-dasharray="6 6" data-name="BaseMeasures">
								<rect x="403.8" y="284.0" height="31.0" width="128.0" data-name="BaseMeasures"></rect>
							</g>
						<g transform="translate(403.75, 284)" font-family="Helvetica" font-size="12pt" font-weight="bold" font-style="italic" data-name="BaseMeasures">
								<g transform="translate(8, 8)" fill="#33322E" text-align="center" data-name="BaseMeasures">
									<text x="56.0" y="13.5" stroke="none" text-anchor="middle" data-name="BaseMeasures">BaseMeasures</text>
								
								</g>
							</g>
						</g>
					<g data-name="Spreads">
							<g fill="orange" stroke="#33322E" stroke-dasharray="6 6" data-name="Spreads">
								<rect x="742.5" y="284.0" height="31.0" width="79.0" data-name="Spreads"></rect>
							</g>
						<g transform="translate(742.5, 284)" font-family="Helvetica" font-size="12pt" font-weight="bold" font-style="italic" data-name="Spreads">
								<g transform="translate(8, 8)" fill="#33322E" text-align="center" data-name="Spreads">
									<text x="31.5" y="13.5" stroke="none" text-anchor="middle" data-name="Spreads">Spreads</text>
								
								</g>
							</g>
						</g>
					<g data-name="Shapes">
							<g fill="orange" stroke="#33322E" stroke-dasharray="6 6" data-name="Shapes">
								<rect x="812.3" y="355.0" height="31.0" width="73.0" data-name="Shapes"></rect>
							</g>
						<g transform="translate(812.25, 355)" font-family="Helvetica" font-size="12pt" font-weight="bold" font-style="italic" data-name="Shapes">
								<g transform="translate(8, 8)" fill="#33322E" text-align="center" data-name="Shapes">
									<text x="28.5" y="13.5" stroke="none" text-anchor="middle" data-name="Shapes">Shapes</text>
								
								</g>
							</g>
						</g>
					<g data-name="BaseRates">
							<g fill="orange" stroke="#33322E" stroke-dasharray="6 6" data-name="BaseRates">
								<rect x="211.0" y="213.0" height="31.0" width="98.0" data-name="BaseRates"></rect>
							</g>
						<g transform="translate(211, 213)" font-family="Helvetica" font-size="12pt" font-weight="bold" font-style="italic" data-name="BaseRates">
								<g transform="translate(8, 8)" fill="#33322E" text-align="center" data-name="BaseRates">
									<text x="41.0" y="13.5" stroke="none" text-anchor="middle" data-name="BaseRates">BaseRates</text>
								
								</g>
							</g>
						</g>
					<g data-name="SimpleShapes">
							<g fill="yellow" stroke="#33322E" data-name="SimpleShapes">
								<rect x="639.8" y="426.0" height="31.0" width="125.0" data-name="SimpleShapes"></rect>
							</g>
						<g transform="translate(639.75, 426)" font-family="Helvetica" font-size="12pt" font-weight="bold" font-style="italic" data-name="SimpleShapes">
								<g transform="translate(8, 8)" fill="#33322E" text-align="center" data-name="SimpleShapes">
									<text x="54.5" y="13.5" stroke="none" text-anchor="middle" data-name="SimpleShapes">SimpleShapes</text>
								
								</g>
							</g>
						</g>
					<g data-name="ComplexShapes">
							<g fill="yellow" stroke="#33322E" data-name="ComplexShapes">
								<rect x="916.5" y="426.0" height="31.0" width="140.0" data-name="ComplexShapes"></rect>
							</g>
						<g transform="translate(916.5, 426)" font-family="Helvetica" font-size="12pt" font-weight="bold" font-style="italic" data-name="ComplexShapes">
								<g transform="translate(8, 8)" fill="#33322E" text-align="center" data-name="ComplexShapes">
									<text x="62.0" y="13.5" stroke="none" text-anchor="middle" data-name="ComplexShapes">ComplexShapes</text>
								
								</g>
							</g>
						</g>
					<g data-name="SimpleRates">
							<g fill="yellow" stroke="#33322E" data-name="SimpleRates">
								<rect x="95.3" y="284.0" height="31.0" width="112.0" data-name="SimpleRates"></rect>
							</g>
						<g transform="translate(95.25, 284)" font-family="Helvetica" font-size="12pt" font-weight="bold" font-style="italic" data-name="SimpleRates">
								<g transform="translate(8, 8)" fill="#33322E" text-align="center" data-name="SimpleRates">
									<text x="48.0" y="13.5" stroke="none" text-anchor="middle" data-name="SimpleRates">SimpleRates</text>
								
								</g>
							</g>
						</g>
					<g data-name="Measurements">
							<g fill="lime" stroke="#33322E" data-name="Measurements">
								<rect x="19.0" y="213.0" height="31.0" width="128.0" data-name="Measurements"></rect>
							</g>
						<g transform="translate(19, 213)" font-family="Helvetica" font-size="12pt" font-weight="bold" font-style="normal" data-name="Measurements">
								<g transform="translate(8, 8)" fill="#33322E" text-align="center" data-name="Measurements">
									<text x="56.0" y="13.5" stroke="none" text-anchor="middle" data-name="Measurements">Measurements</text>
								
								</g>
							</g>
						</g>
					<g data-name="Measures">
							<g fill="lime" stroke="#33322E" data-name="Measures">
								<rect x="340.3" y="355.0" height="31.0" width="90.0" data-name="Measures"></rect>
							</g>
						<g transform="translate(340.25, 355)" font-family="Helvetica" font-size="12pt" font-weight="bold" font-style="normal" data-name="Measures">
								<g transform="translate(8, 8)" fill="#33322E" text-align="center" data-name="Measures">
									<text x="37.0" y="13.5" stroke="none" text-anchor="middle" data-name="Measures">Measures</text>
								
								</g>
							</g>
						</g>
					<g data-name="ShapeLimits">
							<g fill="lime" stroke="#33322E" data-name="ShapeLimits">
								<rect x="420.3" y="497.0" height="31.0" width="111.0" data-name="ShapeLimits"></rect>
							</g>
						<g transform="translate(420.25, 497)" font-family="Helvetica" font-size="12pt" font-weight="bold" font-style="normal" data-name="ShapeLimits">
								<g transform="translate(8, 8)" fill="#33322E" text-align="center" data-name="ShapeLimits">
									<text x="47.5" y="13.5" stroke="none" text-anchor="middle" data-name="ShapeLimits">ShapeLimits</text>
								
								</g>
							</g>
						</g>
					<g data-name="RateComponents">
							<g fill="lime" stroke="#33322E" data-name="RateComponents">
								<rect x="470.3" y="355.0" height="31.0" width="148.0" data-name="RateComponents"></rect>
							</g>
						<g transform="translate(470.25, 355)" font-family="Helvetica" font-size="12pt" font-weight="bold" font-style="normal" data-name="RateComponents">
								<g transform="translate(8, 8)" fill="#33322E" text-align="center" data-name="RateComponents">
									<text x="66.0" y="13.5" stroke="none" text-anchor="middle" data-name="RateComponents">RateComponents</text>
								
								</g>
							</g>
						</g>
					<g data-name="Rates">
							<g fill="lime" stroke="#33322E" data-name="Rates">
								<rect x="303.8" y="284.0" height="31.0" width="60.0" data-name="Rates"></rect>
							</g>
						<g transform="translate(303.75, 284)" font-family="Helvetica" font-size="12pt" font-weight="bold" font-style="normal" data-name="Rates">
								<g transform="translate(8, 8)" fill="#33322E" text-align="center" data-name="Rates">
									<text x="22.0" y="13.5" stroke="none" text-anchor="middle" data-name="Rates">Rates</text>
								
								</g>
							</g>
						</g>
					<g data-name="Proportions">
							<g fill="lime" stroke="#33322E" data-name="Proportions">
								<rect x="8.3" y="355.0" height="31.0" width="107.0" data-name="Proportions"></rect>
							</g>
						<g transform="translate(8.25, 355)" font-family="Helvetica" font-size="12pt" font-weight="bold" font-style="normal" data-name="Proportions">
								<g transform="translate(8, 8)" fill="#33322E" text-align="center" data-name="Proportions">
									<text x="45.5" y="13.5" stroke="none" text-anchor="middle" data-name="Proportions">Proportions</text>
								
								</g>
							</g>
						</g>
					<g data-name="ProportionLimits">
							<g fill="lime" stroke="#33322E" data-name="ProportionLimits">
								<rect x="155.3" y="355.0" height="31.0" width="145.0" data-name="ProportionLimits"></rect>
							</g>
						<g transform="translate(155.25, 355)" font-family="Helvetica" font-size="12pt" font-weight="bold" font-style="normal" data-name="ProportionLimits">
								<g transform="translate(8, 8)" fill="#33322E" text-align="center" data-name="ProportionLimits">
									<text x="64.5" y="13.5" stroke="none" text-anchor="middle" data-name="ProportionLimits">ProportionLimits</text>
								
								</g>
							</g>
						</g>
					<g data-name="BulkSpreads">
							<g fill="lime" stroke="#33322E" data-name="BulkSpreads">
								<rect x="658.3" y="355.0" height="31.0" width="114.0" data-name="BulkSpreads"></rect>
							</g>
						<g transform="translate(658.25, 355)" font-family="Helvetica" font-size="12pt" font-weight="bold" font-style="normal" data-name="BulkSpreads">
								<g transform="translate(8, 8)" fill="#33322E" text-align="center" data-name="BulkSpreads">
									<text x="49.0" y="13.5" stroke="none" text-anchor="middle" data-name="BulkSpreads">BulkSpreads</text>
								
								</g>
							</g>
						</g>
					<g data-name="PlaneShapes">
							<g fill="lime" stroke="#33322E" data-name="PlaneShapes">
								<rect x="571.3" y="497.0" height="31.0" width="116.0" data-name="PlaneShapes"></rect>
							</g>
						<g transform="translate(571.25, 497)" font-family="Helvetica" font-size="12pt" font-weight="bold" font-style="normal" data-name="PlaneShapes">
								<g transform="translate(8, 8)" fill="#33322E" text-align="center" data-name="PlaneShapes">
									<text x="50.0" y="13.5" stroke="none" text-anchor="middle" data-name="PlaneShapes">PlaneShapes</text>
								
								</g>
							</g>
						</g>
					<g data-name="DryBodies">
							<g fill="lime" stroke="#33322E" data-name="DryBodies">
								<rect x="727.3" y="497.0" height="31.0" width="96.0" data-name="DryBodies"></rect>
							</g>
						<g transform="translate(727.25, 497)" font-family="Helvetica" font-size="12pt" font-weight="bold" font-style="normal" data-name="DryBodies">
								<g transform="translate(8, 8)" fill="#33322E" text-align="center" data-name="DryBodies">
									<text x="40.0" y="13.5" stroke="none" text-anchor="middle" data-name="DryBodies">DryBodies</text>
								
								</g>
							</g>
						</g>
					<g data-name="Masses">
							<g fill="lime" stroke="#33322E" data-name="Masses">
								<rect x="380.0" y="213.0" height="31.0" width="74.0" data-name="Masses"></rect>
							</g>
						<g transform="translate(380, 213)" font-family="Helvetica" font-size="12pt" font-weight="bold" font-style="normal" data-name="Masses">
								<g transform="translate(8, 8)" fill="#33322E" text-align="center" data-name="Masses">
									<text x="29.0" y="13.5" stroke="none" text-anchor="middle" data-name="Masses">Masses</text>
								
								</g>
							</g>
						</g>
					<g data-name="Sections">
							<g fill="lime" stroke="#33322E" data-name="Sections">
								<rect x="863.3" y="497.0" height="31.0" width="83.0" data-name="Sections"></rect>
							</g>
						<g transform="translate(863.25, 497)" font-family="Helvetica" font-size="12pt" font-weight="bold" font-style="normal" data-name="Sections">
								<g transform="translate(8, 8)" fill="#33322E" text-align="center" data-name="Sections">
									<text x="33.5" y="13.5" stroke="none" text-anchor="middle" data-name="Sections">Sections</text>
								
								</g>
							</g>
						</g>
					<g data-name="ComplexDryBodies">
							<g fill="lime" stroke="#33322E" data-name="ComplexDryBodies">
								<rect x="986.3" y="497.0" height="31.0" width="164.0" data-name="ComplexDryBodies"></rect>
							</g>
						<g transform="translate(986.25, 497)" font-family="Helvetica" font-size="12pt" font-weight="bold" font-style="normal" data-name="ComplexDryBodies">
								<g transform="translate(8, 8)" fill="#33322E" text-align="center" data-name="ComplexDryBodies">
									<text x="74.0" y="13.5" stroke="none" text-anchor="middle" data-name="ComplexDryBodies">ComplexDryBodies</text>
								
								</g>
							</g>
						</g>
					</g>
				</g>
			</g>
		</g>
	</svg>