<svg version="1.1" baseProfile="full" width="996.3" height="513.0" viewbox="0 0 996.25 513" xmlns="http://www.w3.org/2000/svg" xmlns:xlink="http://www.w3.org/1999/xlink" xmlns:ev="http://www.w3.org/2001/xml-events">
		<title >ProjectsInheritance</title>
	<desc >#title: ProjectsInheritance
	[Common]&lt;:-[Measurables]&lt;:-[BaseMeasurements]&lt;:-[Measurements]
	[Measurables]&lt;:-[Quantifiables]&lt;:-[BaseMeasures]&lt;:-[RateComponents]
	[Quantifiables]&lt;:-[BaseSpreads]&lt;:-[Spreads]
	[Quantifiables]&lt;:-[BaseRates]&lt;:-[Rates]
	[Quantifiables]&lt;:-[Masses]
	[BaseSpreads]&lt;:-[BaseShapes]&lt;:-[Shapes]&lt;:-[PlaneShapes]
	[Shapes]&lt;:-[DryBodies]
	[BaseMeasures]&lt;:-[Measures]
	[BaseRates]&lt;:-[Proportions]
	[BaseShapes]&lt;:-[ComplexShapes]&lt;:-[Sections]
	[ComplexShapes]&lt;:-[ComplexDryBodies]</desc>
	<g stroke-width="1.0" text-align="left" font="12pt Helvetica, Arial, sans-serif" font-size="12pt" font-family="Helvetica" font-weight="bold" font-style="normal">
			<g font-family="Helvetica" font-size="12pt" font-weight="bold" font-style="normal" stroke-width="3.0" stroke-linejoin="round" stroke-linecap="round" stroke="#33322E">
				<g stroke="transparent" fill="transparent">
					<rect x="0.0" y="0.0" height="513.0" width="996.3" stroke="none"></rect>
				</g>
			<g transform="translate(8, 8)" fill="#33322E">
					<g transform="translate(20, 20)" fill="#eee8d5" font-family="Helvetica" font-size="12pt" font-weight="normal" font-style="normal">
						<path d="M421.3 44.3 L421.25 51 L421.25 71 L421.3 71.0 " fill="none"></path>
					<path d="M426.6 44.3 L421.3 44.3 L415.9 44.3 L421.3 31.0 Z"></path>
					<path d="M351.5 93.8 L83 122 L83 142 L83.0 142.0 " fill="none"></path>
					<path d="M352.0 99.1 L351.5 93.8 L350.9 88.5 L364.8 92.4 Z"></path>
					<path d="M83.0 186.3 L83 193 L83 213 L83.0 213.0 " fill="none"></path>
					<path d="M88.3 186.3 L83.0 186.3 L77.7 186.3 L83.0 173.0 Z"></path>
					<path d="M490.9 97.5 L647 122 L647 142 L647.0 142.0 " fill="none"></path>
					<path d="M491.7 92.2 L490.9 97.5 L490.1 102.7 L477.8 95.4 Z"></path>
					<path d="M575.2 164.0 L256.75 193 L256.75 213 L256.8 213.0 " fill="none"></path>
					<path d="M575.7 169.3 L575.2 164.0 L574.7 158.7 L588.5 162.8 Z"></path>
					<path d="M207.2 249.1 L171.5 264 L171.5 284 L171.5 284.0 " fill="none"></path>
					<path d="M209.3 254.0 L207.2 249.1 L205.2 244.2 L219.5 244.0 Z"></path>
					<path d="M579.8 176.7 L522.5 193 L522.5 213 L522.5 213.0 " fill="none"></path>
					<path d="M581.3 181.8 L579.8 176.7 L578.4 171.5 L592.6 173.0 Z"></path>
					<path d="M481.2 250.2 L455 264 L455 284 L455.0 284.0 " fill="none"></path>
					<path d="M483.7 254.9 L481.2 250.2 L478.7 245.5 L493.0 244.0 Z"></path>
					<path d="M716.7 176.5 L777.25 193 L777.25 213 L777.3 213.0 " fill="none"></path>
					<path d="M718.1 171.4 L716.7 176.5 L715.3 181.7 L703.9 173.0 Z"></path>
					<path d="M738.7 250.6 L715.5 264 L715.5 284 L715.5 284.0 " fill="none"></path>
					<path d="M741.4 255.3 L738.7 250.6 L736.1 246.0 L750.3 244.0 Z"></path>
					<path d="M718.7 167.4 L903.25 193 L903.25 213 L903.3 213.0 " fill="none"></path>
					<path d="M719.4 162.2 L718.7 167.4 L718.0 172.7 L705.5 165.6 Z"></path>
					<path d="M563.8 250.2 L590 264 L590 284 L590.0 284.0 " fill="none"></path>
					<path d="M566.3 245.5 L563.8 250.2 L561.3 254.9 L552.0 244.0 Z"></path>
					<path d="M521.5 316.1 L443.5 335 L443.5 355 L443.5 355.0 " fill="none"></path>
					<path d="M522.8 321.3 L521.5 316.1 L520.3 310.9 L534.5 312.9 Z"></path>
					<path d="M399.6 391.8 L370.5 406 L370.5 426 L370.5 426.0 " fill="none"></path>
					<path d="M402.0 396.6 L399.6 391.8 L397.3 387.0 L411.6 386.0 Z"></path>
					<path d="M487.4 391.8 L516.5 406 L516.5 426 L516.5 426.0 " fill="none"></path>
					<path d="M489.7 387.0 L487.4 391.8 L485.0 396.6 L475.4 386.0 Z"></path>
					<path d="M301.0 249.8 L330.5 264 L330.5 284 L330.5 284.0 " fill="none"></path>
					<path d="M303.3 245.0 L301.0 249.8 L298.7 254.6 L289.0 244.0 Z"></path>
					<path d="M815.8 250.6 L839 264 L839 284 L839.0 284.0 " fill="none"></path>
					<path d="M818.4 246.0 L815.8 250.6 L813.1 255.3 L804.2 244.0 Z"></path>
					<path d="M658.4 317.1 L727.75 335 L727.75 355 L727.8 355.0 " fill="none"></path>
					<path d="M659.7 312.0 L658.4 317.1 L657.1 322.3 L645.5 313.8 Z"></path>
					<path d="M679.8 391.3 L646 406 L646 426 L646.0 426.0 " fill="none"></path>
					<path d="M682.0 396.2 L679.8 391.3 L677.7 386.4 L692.1 386.0 Z"></path>
					<path d="M775.7 391.3 L809.5 406 L809.5 426 L809.5 426.0 " fill="none"></path>
					<path d="M777.8 386.4 L775.7 391.3 L773.5 396.2 L763.4 386.0 Z"></path>
					<g data-name="Common">
							<g fill="#eee8d5" stroke="#33322E" data-name="Common">
								<rect x="378.8" y="0.0" height="31.0" width="85.0" data-name="Common"></rect>
							</g>
						<g transform="translate(378.75, 0)" font-family="Helvetica" font-size="12pt" font-weight="bold" font-style="normal" data-name="Common">
								<g transform="translate(8, 8)" fill="#33322E" text-align="center" data-name="Common">
									<text x="34.5" y="13.5" stroke="none" text-anchor="middle" data-name="Common">Common</text>
								
								</g>
							</g>
						</g>
					<g data-name="Measurables">
							<g fill="#eee8d5" stroke="#33322E" data-name="Measurables">
								<rect x="364.8" y="71.0" height="31.0" width="113.0" data-name="Measurables"></rect>
							</g>
						<g transform="translate(364.75, 71)" font-family="Helvetica" font-size="12pt" font-weight="bold" font-style="normal" data-name="Measurables">
								<g transform="translate(8, 8)" fill="#33322E" text-align="center" data-name="Measurables">
									<text x="48.5" y="13.5" stroke="none" text-anchor="middle" data-name="Measurables">Measurables</text>
								
								</g>
							</g>
						</g>
					<g data-name="BaseMeasurements">
							<g fill="#eee8d5" stroke="#33322E" data-name="BaseMeasurements">
								<rect x="0.0" y="142.0" height="31.0" width="166.0" data-name="BaseMeasurements"></rect>
							</g>
						<g transform="translate(0, 142)" font-family="Helvetica" font-size="12pt" font-weight="bold" font-style="normal" data-name="BaseMeasurements">
								<g transform="translate(8, 8)" fill="#33322E" text-align="center" data-name="BaseMeasurements">
									<text x="75.0" y="13.5" stroke="none" text-anchor="middle" data-name="BaseMeasurements">BaseMeasurements</text>
								
								</g>
							</g>
						</g>
					<g data-name="Measurements">
							<g fill="#eee8d5" stroke="#33322E" data-name="Measurements">
								<rect x="19.0" y="213.0" height="31.0" width="128.0" data-name="Measurements"></rect>
							</g>
						<g transform="translate(19, 213)" font-family="Helvetica" font-size="12pt" font-weight="bold" font-style="normal" data-name="Measurements">
								<g transform="translate(8, 8)" fill="#33322E" text-align="center" data-name="Measurements">
									<text x="56.0" y="13.5" stroke="none" text-anchor="middle" data-name="Measurements">Measurements</text>
								
								</g>
							</g>
						</g>
					<g data-name="Quantifiables">
							<g fill="#eee8d5" stroke="#33322E" data-name="Quantifiables">
								<rect x="588.5" y="142.0" height="31.0" width="117.0" data-name="Quantifiables"></rect>
							</g>
						<g transform="translate(588.5, 142)" font-family="Helvetica" font-size="12pt" font-weight="bold" font-style="normal" data-name="Quantifiables">
								<g transform="translate(8, 8)" fill="#33322E" text-align="center" data-name="Quantifiables">
									<text x="50.5" y="13.5" stroke="none" text-anchor="middle" data-name="Quantifiables">Quantifiables</text>
								
								</g>
							</g>
						</g>
					<g data-name="BaseMeasures">
							<g fill="#eee8d5" stroke="#33322E" data-name="BaseMeasures">
								<rect x="192.8" y="213.0" height="31.0" width="128.0" data-name="BaseMeasures"></rect>
							</g>
						<g transform="translate(192.75, 213)" font-family="Helvetica" font-size="12pt" font-weight="bold" font-style="normal" data-name="BaseMeasures">
								<g transform="translate(8, 8)" fill="#33322E" text-align="center" data-name="BaseMeasures">
									<text x="56.0" y="13.5" stroke="none" text-anchor="middle" data-name="BaseMeasures">BaseMeasures</text>
								
								</g>
							</g>
						</g>
					<g data-name="RateComponents">
							<g fill="#eee8d5" stroke="#33322E" data-name="RateComponents">
								<rect x="97.5" y="284.0" height="31.0" width="148.0" data-name="RateComponents"></rect>
							</g>
						<g transform="translate(97.5, 284)" font-family="Helvetica" font-size="12pt" font-weight="bold" font-style="normal" data-name="RateComponents">
								<g transform="translate(8, 8)" fill="#33322E" text-align="center" data-name="RateComponents">
									<text x="66.0" y="13.5" stroke="none" text-anchor="middle" data-name="RateComponents">RateComponents</text>
								
								</g>
							</g>
						</g>
					<g data-name="BaseSpreads">
							<g fill="#eee8d5" stroke="#33322E" data-name="BaseSpreads">
								<rect x="464.0" y="213.0" height="31.0" width="117.0" data-name="BaseSpreads"></rect>
							</g>
						<g transform="translate(464, 213)" font-family="Helvetica" font-size="12pt" font-weight="bold" font-style="normal" data-name="BaseSpreads">
								<g transform="translate(8, 8)" fill="#33322E" text-align="center" data-name="BaseSpreads">
									<text x="50.5" y="13.5" stroke="none" text-anchor="middle" data-name="BaseSpreads">BaseSpreads</text>
								
								</g>
							</g>
						</g>
					<g data-name="Spreads">
							<g fill="#eee8d5" stroke="#33322E" data-name="Spreads">
								<rect x="415.5" y="284.0" height="31.0" width="79.0" data-name="Spreads"></rect>
							</g>
						<g transform="translate(415.5, 284)" font-family="Helvetica" font-size="12pt" font-weight="bold" font-style="normal" data-name="Spreads">
								<g transform="translate(8, 8)" fill="#33322E" text-align="center" data-name="Spreads">
									<text x="31.5" y="13.5" stroke="none" text-anchor="middle" data-name="Spreads">Spreads</text>
								
								</g>
							</g>
						</g>
					<g data-name="BaseRates">
							<g fill="#eee8d5" stroke="#33322E" data-name="BaseRates">
								<rect x="728.3" y="213.0" height="31.0" width="98.0" data-name="BaseRates"></rect>
							</g>
						<g transform="translate(728.25, 213)" font-family="Helvetica" font-size="12pt" font-weight="bold" font-style="normal" data-name="BaseRates">
								<g transform="translate(8, 8)" fill="#33322E" text-align="center" data-name="BaseRates">
									<text x="41.0" y="13.5" stroke="none" text-anchor="middle" data-name="BaseRates">BaseRates</text>
								
								</g>
							</g>
						</g>
					<g data-name="Rates">
							<g fill="#eee8d5" stroke="#33322E" data-name="Rates">
								<rect x="685.5" y="284.0" height="31.0" width="60.0" data-name="Rates"></rect>
							</g>
						<g transform="translate(685.5, 284)" font-family="Helvetica" font-size="12pt" font-weight="bold" font-style="normal" data-name="Rates">
								<g transform="translate(8, 8)" fill="#33322E" text-align="center" data-name="Rates">
									<text x="22.0" y="13.5" stroke="none" text-anchor="middle" data-name="Rates">Rates</text>
								
								</g>
							</g>
						</g>
					<g data-name="Masses">
							<g fill="#eee8d5" stroke="#33322E" data-name="Masses">
								<rect x="866.3" y="213.0" height="31.0" width="74.0" data-name="Masses"></rect>
							</g>
						<g transform="translate(866.25, 213)" font-family="Helvetica" font-size="12pt" font-weight="bold" font-style="normal" data-name="Masses">
								<g transform="translate(8, 8)" fill="#33322E" text-align="center" data-name="Masses">
									<text x="29.0" y="13.5" stroke="none" text-anchor="middle" data-name="Masses">Masses</text>
								
								</g>
							</g>
						</g>
					<g data-name="BaseShapes">
							<g fill="#eee8d5" stroke="#33322E" data-name="BaseShapes">
								<rect x="534.5" y="284.0" height="31.0" width="111.0" data-name="BaseShapes"></rect>
							</g>
						<g transform="translate(534.5, 284)" font-family="Helvetica" font-size="12pt" font-weight="bold" font-style="normal" data-name="BaseShapes">
								<g transform="translate(8, 8)" fill="#33322E" text-align="center" data-name="BaseShapes">
									<text x="47.5" y="13.5" stroke="none" text-anchor="middle" data-name="BaseShapes">BaseShapes</text>
								
								</g>
							</g>
						</g>
					<g data-name="Shapes">
							<g fill="#eee8d5" stroke="#33322E" data-name="Shapes">
								<rect x="407.0" y="355.0" height="31.0" width="73.0" data-name="Shapes"></rect>
							</g>
						<g transform="translate(407, 355)" font-family="Helvetica" font-size="12pt" font-weight="bold" font-style="normal" data-name="Shapes">
								<g transform="translate(8, 8)" fill="#33322E" text-align="center" data-name="Shapes">
									<text x="28.5" y="13.5" stroke="none" text-anchor="middle" data-name="Shapes">Shapes</text>
								
								</g>
							</g>
						</g>
					<g data-name="PlaneShapes">
							<g fill="#eee8d5" stroke="#33322E" data-name="PlaneShapes">
								<rect x="312.5" y="426.0" height="31.0" width="116.0" data-name="PlaneShapes"></rect>
							</g>
						<g transform="translate(312.5, 426)" font-family="Helvetica" font-size="12pt" font-weight="bold" font-style="normal" data-name="PlaneShapes">
								<g transform="translate(8, 8)" fill="#33322E" text-align="center" data-name="PlaneShapes">
									<text x="50.0" y="13.5" stroke="none" text-anchor="middle" data-name="PlaneShapes">PlaneShapes</text>
								
								</g>
							</g>
						</g>
					<g data-name="DryBodies">
							<g fill="#eee8d5" stroke="#33322E" data-name="DryBodies">
								<rect x="468.5" y="426.0" height="31.0" width="96.0" data-name="DryBodies"></rect>
							</g>
						<g transform="translate(468.5, 426)" font-family="Helvetica" font-size="12pt" font-weight="bold" font-style="normal" data-name="DryBodies">
								<g transform="translate(8, 8)" fill="#33322E" text-align="center" data-name="DryBodies">
									<text x="40.0" y="13.5" stroke="none" text-anchor="middle" data-name="DryBodies">DryBodies</text>
								
								</g>
							</g>
						</g>
					<g data-name="Measures">
							<g fill="#eee8d5" stroke="#33322E" data-name="Measures">
								<rect x="285.5" y="284.0" height="31.0" width="90.0" data-name="Measures"></rect>
							</g>
						<g transform="translate(285.5, 284)" font-family="Helvetica" font-size="12pt" font-weight="bold" font-style="normal" data-name="Measures">
								<g transform="translate(8, 8)" fill="#33322E" text-align="center" data-name="Measures">
									<text x="37.0" y="13.5" stroke="none" text-anchor="middle" data-name="Measures">Measures</text>
								
								</g>
							</g>
						</g>
					<g data-name="Proportions">
							<g fill="#eee8d5" stroke="#33322E" data-name="Proportions">
								<rect x="785.5" y="284.0" height="31.0" width="107.0" data-name="Proportions"></rect>
							</g>
						<g transform="translate(785.5, 284)" font-family="Helvetica" font-size="12pt" font-weight="bold" font-style="normal" data-name="Proportions">
								<g transform="translate(8, 8)" fill="#33322E" text-align="center" data-name="Proportions">
									<text x="45.5" y="13.5" stroke="none" text-anchor="middle" data-name="Proportions">Proportions</text>
								
								</g>
							</g>
						</g>
					<g data-name="ComplexShapes">
							<g fill="#eee8d5" stroke="#33322E" data-name="ComplexShapes">
								<rect x="657.8" y="355.0" height="31.0" width="140.0" data-name="ComplexShapes"></rect>
							</g>
						<g transform="translate(657.75, 355)" font-family="Helvetica" font-size="12pt" font-weight="bold" font-style="normal" data-name="ComplexShapes">
								<g transform="translate(8, 8)" fill="#33322E" text-align="center" data-name="ComplexShapes">
									<text x="62.0" y="13.5" stroke="none" text-anchor="middle" data-name="ComplexShapes">ComplexShapes</text>
								
								</g>
							</g>
						</g>
					<g data-name="Sections">
							<g fill="#eee8d5" stroke="#33322E" data-name="Sections">
								<rect x="604.5" y="426.0" height="31.0" width="83.0" data-name="Sections"></rect>
							</g>
						<g transform="translate(604.5, 426)" font-family="Helvetica" font-size="12pt" font-weight="bold" font-style="normal" data-name="Sections">
								<g transform="translate(8, 8)" fill="#33322E" text-align="center" data-name="Sections">
									<text x="33.5" y="13.5" stroke="none" text-anchor="middle" data-name="Sections">Sections</text>
								
								</g>
							</g>
						</g>
					<g data-name="ComplexDryBodies">
							<g fill="#eee8d5" stroke="#33322E" data-name="ComplexDryBodies">
								<rect x="727.5" y="426.0" height="31.0" width="164.0" data-name="ComplexDryBodies"></rect>
							</g>
						<g transform="translate(727.5, 426)" font-family="Helvetica" font-size="12pt" font-weight="bold" font-style="normal" data-name="ComplexDryBodies">
								<g transform="translate(8, 8)" fill="#33322E" text-align="center" data-name="ComplexDryBodies">
									<text x="74.0" y="13.5" stroke="none" text-anchor="middle" data-name="ComplexDryBodies">ComplexDryBodies</text>
								
								</g>
							</g>
						</g>
					</g>
				</g>
			</g>
		</g>
	</svg>