<svg version="1.1" baseProfile="full" width="984.3" height="513.0" viewbox="0 0 984.25 513" xmlns="http://www.w3.org/2000/svg" xmlns:xlink="http://www.w3.org/1999/xlink" xmlns:ev="http://www.w3.org/2001/xml-events">
		<title >ProjectsInheritance</title>
	<desc >#title: ProjectsInheritance
	[Common]&lt;:-[Measurables]&lt;:-[BaseMeasurements]&lt;:-[Measurements]
	[Measurables]&lt;:-[Quantifiables]&lt;:-[BaseMeasures]&lt;:-[Measures]
	[Quantifiables]&lt;:-[BaseSpreads]&lt;:-[Spreads]
	[Quantifiables]&lt;:-[Masses]
	[BaseSpreads]&lt;:-[BaseShapes]&lt;:-[Shapes]&lt;:-[PlaneShapes]
	[Shapes]&lt;:-[DryBodies]
	[BaseMeasures]&lt;:-[RateComponents]
	[Quantifiables]&lt;:-[BaseRates]&lt;:-[Rates]
	[BaseRates]&lt;:-[Proportions]
	[BaseShapes]&lt;:-[ComplexShapes]&lt;:-[Sections]
	[ComplexShapes]&lt;:-[ComplexDryBodies]</desc>
	<g stroke-width="1.0" text-align="left" font="12pt Helvetica, Arial, sans-serif" font-size="12pt" font-family="Helvetica" font-weight="bold" font-style="normal">
			<g font-family="Helvetica" font-size="12pt" font-weight="bold" font-style="normal" stroke-width="3.0" stroke-linejoin="round" stroke-linecap="round" stroke="#33322E">
				<g stroke="transparent" fill="transparent">
					<rect x="0.0" y="0.0" height="513.0" width="984.3" stroke="none"></rect>
				</g>
			<g transform="translate(8, 8)" fill="#33322E">
					<g transform="translate(20, 20)" fill="#eee8d5" font-family="Helvetica" font-size="12pt" font-weight="normal" font-style="normal">
						<path d="M379.0 44.3 L379 51 L379 71 L379.0 71.0 " fill="none"></path>
					<path d="M384.3 44.3 L379.0 44.3 L373.7 44.3 L379.0 31.0 Z"></path>
					<path d="M309.3 94.9 L83 122 L83 142 L83.0 142.0 " fill="none"></path>
					<path d="M309.9 100.2 L309.3 94.9 L308.6 89.6 L322.5 93.3 Z"></path>
					<path d="M83.0 186.3 L83 193 L83 213 L83.0 213.0 " fill="none"></path>
					<path d="M88.3 186.3 L83.0 186.3 L77.7 186.3 L83.0 173.0 Z"></path>
					<path d="M448.7 96.8 L619.25 122 L619.25 142 L619.3 142.0 " fill="none"></path>
					<path d="M449.5 91.5 L448.7 96.8 L447.9 102.1 L435.5 94.8 Z"></path>
					<path d="M547.5 164.4 L251 193 L251 213 L251.0 213.0 " fill="none"></path>
					<path d="M548.0 169.7 L547.5 164.4 L547.0 159.1 L560.8 163.1 Z"></path>
					<path d="M204.1 249.4 L171.5 264 L171.5 284 L171.5 284.0 " fill="none"></path>
					<path d="M206.3 254.3 L204.1 249.4 L201.9 244.6 L216.3 244.0 Z"></path>
					<path d="M577.9 179.2 L551.5 193 L551.5 213 L551.5 213.0 " fill="none"></path>
					<path d="M580.3 183.9 L577.9 179.2 L575.4 174.5 L589.7 173.0 Z"></path>
					<path d="M510.2 250.2 L484 264 L484 284 L484.0 284.0 " fill="none"></path>
					<path d="M512.7 254.9 L510.2 250.2 L507.7 245.5 L522.0 244.0 Z"></path>
					<path d="M660.6 179.2 L687 193 L687 213 L687.0 213.0 " fill="none"></path>
					<path d="M663.1 174.5 L660.6 179.2 L658.2 183.9 L648.8 173.0 Z"></path>
					<path d="M592.8 250.2 L619 264 L619 284 L619.0 284.0 " fill="none"></path>
					<path d="M595.3 245.5 L592.8 250.2 L590.3 254.9 L581.0 244.0 Z"></path>
					<path d="M550.5 316.1 L472.5 335 L472.5 355 L472.5 355.0 " fill="none"></path>
					<path d="M551.8 321.3 L550.5 316.1 L549.3 310.9 L563.5 312.9 Z"></path>
					<path d="M428.6 391.8 L399.5 406 L399.5 426 L399.5 426.0 " fill="none"></path>
					<path d="M431.0 396.6 L428.6 391.8 L426.3 387.0 L440.6 386.0 Z"></path>
					<path d="M516.4 391.8 L545.5 406 L545.5 426 L545.5 426.0 " fill="none"></path>
					<path d="M518.7 387.0 L516.4 391.8 L514.0 396.6 L504.4 386.0 Z"></path>
					<path d="M297.9 249.4 L330.5 264 L330.5 284 L330.5 284.0 " fill="none"></path>
					<path d="M300.1 244.6 L297.9 249.4 L295.7 254.3 L285.7 244.0 Z"></path>
					<path d="M690.9 170.6 L813 193 L813 213 L813.0 213.0 " fill="none"></path>
					<path d="M691.8 165.4 L690.9 170.6 L689.9 175.9 L677.8 168.2 Z"></path>
					<path d="M771.5 250.2 L745 264 L745 284 L745.0 284.0 " fill="none"></path>
					<path d="M774.0 254.9 L771.5 250.2 L769.0 245.4 L783.3 244.0 Z"></path>
					<path d="M851.5 250.6 L874.75 264 L874.75 284 L874.8 284.0 " fill="none"></path>
					<path d="M854.2 246.0 L851.5 250.6 L848.9 255.3 L840.0 244.0 Z"></path>
					<path d="M687.4 317.1 L756.75 335 L756.75 355 L756.8 355.0 " fill="none"></path>
					<path d="M688.7 312.0 L687.4 317.1 L686.1 322.3 L674.5 313.8 Z"></path>
					<path d="M708.8 391.3 L675 406 L675 426 L675.0 426.0 " fill="none"></path>
					<path d="M711.0 396.2 L708.8 391.3 L706.7 386.4 L721.1 386.0 Z"></path>
					<path d="M804.7 391.3 L838.5 406 L838.5 426 L838.5 426.0 " fill="none"></path>
					<path d="M806.8 386.4 L804.7 391.3 L802.5 396.2 L792.4 386.0 Z"></path>
					<g data-name="Common">
							<g fill="#eee8d5" stroke="#33322E" data-name="Common">
								<rect x="336.5" y="0.0" height="31.0" width="85.0" data-name="Common"></rect>
							</g>
						<g transform="translate(336.5, 0)" font-family="Helvetica" font-size="12pt" font-weight="bold" font-style="normal" data-name="Common">
								<g transform="translate(8, 8)" fill="#33322E" text-align="center" data-name="Common">
									<text x="34.5" y="13.5" stroke="none" text-anchor="middle" data-name="Common">Common</text>
								
								</g>
							</g>
						</g>
					<g data-name="Measurables">
							<g fill="#eee8d5" stroke="#33322E" data-name="Measurables">
								<rect x="322.5" y="71.0" height="31.0" width="113.0" data-name="Measurables"></rect>
							</g>
						<g transform="translate(322.5, 71)" font-family="Helvetica" font-size="12pt" font-weight="bold" font-style="normal" data-name="Measurables">
								<g transform="translate(8, 8)" fill="#33322E" text-align="center" data-name="Measurables">
									<text x="48.5" y="13.5" stroke="none" text-anchor="middle" data-name="Measurables">Measurables</text>
								
								</g>
							</g>
						</g>
					<g data-name="BaseMeasurements">
							<g fill="#eee8d5" stroke="#33322E" data-name="BaseMeasurements">
								<rect x="0.0" y="142.0" height="31.0" width="166.0" data-name="BaseMeasurements"></rect>
							</g>
						<g transform="translate(0, 142)" font-family="Helvetica" font-size="12pt" font-weight="bold" font-style="normal" data-name="BaseMeasurements">
								<g transform="translate(8, 8)" fill="#33322E" text-align="center" data-name="BaseMeasurements">
									<text x="75.0" y="13.5" stroke="none" text-anchor="middle" data-name="BaseMeasurements">BaseMeasurements</text>
								
								</g>
							</g>
						</g>
					<g data-name="Measurements">
							<g fill="#eee8d5" stroke="#33322E" data-name="Measurements">
								<rect x="19.0" y="213.0" height="31.0" width="128.0" data-name="Measurements"></rect>
							</g>
						<g transform="translate(19, 213)" font-family="Helvetica" font-size="12pt" font-weight="bold" font-style="normal" data-name="Measurements">
								<g transform="translate(8, 8)" fill="#33322E" text-align="center" data-name="Measurements">
									<text x="56.0" y="13.5" stroke="none" text-anchor="middle" data-name="Measurements">Measurements</text>
								
								</g>
							</g>
						</g>
					<g data-name="Quantifiables">
							<g fill="#eee8d5" stroke="#33322E" data-name="Quantifiables">
								<rect x="560.8" y="142.0" height="31.0" width="117.0" data-name="Quantifiables"></rect>
							</g>
						<g transform="translate(560.75, 142)" font-family="Helvetica" font-size="12pt" font-weight="bold" font-style="normal" data-name="Quantifiables">
								<g transform="translate(8, 8)" fill="#33322E" text-align="center" data-name="Quantifiables">
									<text x="50.5" y="13.5" stroke="none" text-anchor="middle" data-name="Quantifiables">Quantifiables</text>
								
								</g>
							</g>
						</g>
					<g data-name="BaseMeasures">
							<g fill="#eee8d5" stroke="#33322E" data-name="BaseMeasures">
								<rect x="187.0" y="213.0" height="31.0" width="128.0" data-name="BaseMeasures"></rect>
							</g>
						<g transform="translate(187, 213)" font-family="Helvetica" font-size="12pt" font-weight="bold" font-style="normal" data-name="BaseMeasures">
								<g transform="translate(8, 8)" fill="#33322E" text-align="center" data-name="BaseMeasures">
									<text x="56.0" y="13.5" stroke="none" text-anchor="middle" data-name="BaseMeasures">BaseMeasures</text>
								
								</g>
							</g>
						</g>
					<g data-name="Measures">
							<g fill="#eee8d5" stroke="#33322E" data-name="Measures">
								<rect x="126.5" y="284.0" height="31.0" width="90.0" data-name="Measures"></rect>
							</g>
						<g transform="translate(126.5, 284)" font-family="Helvetica" font-size="12pt" font-weight="bold" font-style="normal" data-name="Measures">
								<g transform="translate(8, 8)" fill="#33322E" text-align="center" data-name="Measures">
									<text x="37.0" y="13.5" stroke="none" text-anchor="middle" data-name="Measures">Measures</text>
								
								</g>
							</g>
						</g>
					<g data-name="BaseSpreads">
							<g fill="#eee8d5" stroke="#33322E" data-name="BaseSpreads">
								<rect x="493.0" y="213.0" height="31.0" width="117.0" data-name="BaseSpreads"></rect>
							</g>
						<g transform="translate(493, 213)" font-family="Helvetica" font-size="12pt" font-weight="bold" font-style="normal" data-name="BaseSpreads">
								<g transform="translate(8, 8)" fill="#33322E" text-align="center" data-name="BaseSpreads">
									<text x="50.5" y="13.5" stroke="none" text-anchor="middle" data-name="BaseSpreads">BaseSpreads</text>
								
								</g>
							</g>
						</g>
					<g data-name="Spreads">
							<g fill="#eee8d5" stroke="#33322E" data-name="Spreads">
								<rect x="444.5" y="284.0" height="31.0" width="79.0" data-name="Spreads"></rect>
							</g>
						<g transform="translate(444.5, 284)" font-family="Helvetica" font-size="12pt" font-weight="bold" font-style="normal" data-name="Spreads">
								<g transform="translate(8, 8)" fill="#33322E" text-align="center" data-name="Spreads">
									<text x="31.5" y="13.5" stroke="none" text-anchor="middle" data-name="Spreads">Spreads</text>
								
								</g>
							</g>
						</g>
					<g data-name="Masses">
							<g fill="#eee8d5" stroke="#33322E" data-name="Masses">
								<rect x="650.0" y="213.0" height="31.0" width="74.0" data-name="Masses"></rect>
							</g>
						<g transform="translate(650, 213)" font-family="Helvetica" font-size="12pt" font-weight="bold" font-style="normal" data-name="Masses">
								<g transform="translate(8, 8)" fill="#33322E" text-align="center" data-name="Masses">
									<text x="29.0" y="13.5" stroke="none" text-anchor="middle" data-name="Masses">Masses</text>
								
								</g>
							</g>
						</g>
					<g data-name="BaseShapes">
							<g fill="#eee8d5" stroke="#33322E" data-name="BaseShapes">
								<rect x="563.5" y="284.0" height="31.0" width="111.0" data-name="BaseShapes"></rect>
							</g>
						<g transform="translate(563.5, 284)" font-family="Helvetica" font-size="12pt" font-weight="bold" font-style="normal" data-name="BaseShapes">
								<g transform="translate(8, 8)" fill="#33322E" text-align="center" data-name="BaseShapes">
									<text x="47.5" y="13.5" stroke="none" text-anchor="middle" data-name="BaseShapes">BaseShapes</text>
								
								</g>
							</g>
						</g>
					<g data-name="Shapes">
							<g fill="#eee8d5" stroke="#33322E" data-name="Shapes">
								<rect x="436.0" y="355.0" height="31.0" width="73.0" data-name="Shapes"></rect>
							</g>
						<g transform="translate(436, 355)" font-family="Helvetica" font-size="12pt" font-weight="bold" font-style="normal" data-name="Shapes">
								<g transform="translate(8, 8)" fill="#33322E" text-align="center" data-name="Shapes">
									<text x="28.5" y="13.5" stroke="none" text-anchor="middle" data-name="Shapes">Shapes</text>
								
								</g>
							</g>
						</g>
					<g data-name="PlaneShapes">
							<g fill="#eee8d5" stroke="#33322E" data-name="PlaneShapes">
								<rect x="341.5" y="426.0" height="31.0" width="116.0" data-name="PlaneShapes"></rect>
							</g>
						<g transform="translate(341.5, 426)" font-family="Helvetica" font-size="12pt" font-weight="bold" font-style="normal" data-name="PlaneShapes">
								<g transform="translate(8, 8)" fill="#33322E" text-align="center" data-name="PlaneShapes">
									<text x="50.0" y="13.5" stroke="none" text-anchor="middle" data-name="PlaneShapes">PlaneShapes</text>
								
								</g>
							</g>
						</g>
					<g data-name="DryBodies">
							<g fill="#eee8d5" stroke="#33322E" data-name="DryBodies">
								<rect x="497.5" y="426.0" height="31.0" width="96.0" data-name="DryBodies"></rect>
							</g>
						<g transform="translate(497.5, 426)" font-family="Helvetica" font-size="12pt" font-weight="bold" font-style="normal" data-name="DryBodies">
								<g transform="translate(8, 8)" fill="#33322E" text-align="center" data-name="DryBodies">
									<text x="40.0" y="13.5" stroke="none" text-anchor="middle" data-name="DryBodies">DryBodies</text>
								
								</g>
							</g>
						</g>
					<g data-name="RateComponents">
							<g fill="#eee8d5" stroke="#33322E" data-name="RateComponents">
								<rect x="256.5" y="284.0" height="31.0" width="148.0" data-name="RateComponents"></rect>
							</g>
						<g transform="translate(256.5, 284)" font-family="Helvetica" font-size="12pt" font-weight="bold" font-style="normal" data-name="RateComponents">
								<g transform="translate(8, 8)" fill="#33322E" text-align="center" data-name="RateComponents">
									<text x="66.0" y="13.5" stroke="none" text-anchor="middle" data-name="RateComponents">RateComponents</text>
								
								</g>
							</g>
						</g>
					<g data-name="BaseRates">
							<g fill="#eee8d5" stroke="#33322E" data-name="BaseRates">
								<rect x="764.0" y="213.0" height="31.0" width="98.0" data-name="BaseRates"></rect>
							</g>
						<g transform="translate(764, 213)" font-family="Helvetica" font-size="12pt" font-weight="bold" font-style="normal" data-name="BaseRates">
								<g transform="translate(8, 8)" fill="#33322E" text-align="center" data-name="BaseRates">
									<text x="41.0" y="13.5" stroke="none" text-anchor="middle" data-name="BaseRates">BaseRates</text>
								
								</g>
							</g>
						</g>
					<g data-name="Rates">
							<g fill="#eee8d5" stroke="#33322E" data-name="Rates">
								<rect x="715.0" y="284.0" height="31.0" width="60.0" data-name="Rates"></rect>
							</g>
						<g transform="translate(715, 284)" font-family="Helvetica" font-size="12pt" font-weight="bold" font-style="normal" data-name="Rates">
								<g transform="translate(8, 8)" fill="#33322E" text-align="center" data-name="Rates">
									<text x="22.0" y="13.5" stroke="none" text-anchor="middle" data-name="Rates">Rates</text>
								
								</g>
							</g>
						</g>
					<g data-name="Proportions">
							<g fill="#eee8d5" stroke="#33322E" data-name="Proportions">
								<rect x="821.3" y="284.0" height="31.0" width="107.0" data-name="Proportions"></rect>
							</g>
						<g transform="translate(821.25, 284)" font-family="Helvetica" font-size="12pt" font-weight="bold" font-style="normal" data-name="Proportions">
								<g transform="translate(8, 8)" fill="#33322E" text-align="center" data-name="Proportions">
									<text x="45.5" y="13.5" stroke="none" text-anchor="middle" data-name="Proportions">Proportions</text>
								
								</g>
							</g>
						</g>
					<g data-name="ComplexShapes">
							<g fill="#eee8d5" stroke="#33322E" data-name="ComplexShapes">
								<rect x="686.8" y="355.0" height="31.0" width="140.0" data-name="ComplexShapes"></rect>
							</g>
						<g transform="translate(686.75, 355)" font-family="Helvetica" font-size="12pt" font-weight="bold" font-style="normal" data-name="ComplexShapes">
								<g transform="translate(8, 8)" fill="#33322E" text-align="center" data-name="ComplexShapes">
									<text x="62.0" y="13.5" stroke="none" text-anchor="middle" data-name="ComplexShapes">ComplexShapes</text>
								
								</g>
							</g>
						</g>
					<g data-name="Sections">
							<g fill="#eee8d5" stroke="#33322E" data-name="Sections">
								<rect x="633.5" y="426.0" height="31.0" width="83.0" data-name="Sections"></rect>
							</g>
						<g transform="translate(633.5, 426)" font-family="Helvetica" font-size="12pt" font-weight="bold" font-style="normal" data-name="Sections">
								<g transform="translate(8, 8)" fill="#33322E" text-align="center" data-name="Sections">
									<text x="33.5" y="13.5" stroke="none" text-anchor="middle" data-name="Sections">Sections</text>
								
								</g>
							</g>
						</g>
					<g data-name="ComplexDryBodies">
							<g fill="#eee8d5" stroke="#33322E" data-name="ComplexDryBodies">
								<rect x="756.5" y="426.0" height="31.0" width="164.0" data-name="ComplexDryBodies"></rect>
							</g>
						<g transform="translate(756.5, 426)" font-family="Helvetica" font-size="12pt" font-weight="bold" font-style="normal" data-name="ComplexDryBodies">
								<g transform="translate(8, 8)" fill="#33322E" text-align="center" data-name="ComplexDryBodies">
									<text x="74.0" y="13.5" stroke="none" text-anchor="middle" data-name="ComplexDryBodies">ComplexDryBodies</text>
								
								</g>
							</g>
						</g>
					</g>
				</g>
			</g>
		</g>
	</svg>