<svg version="1.1" baseProfile="full" width="933.0" height="584.0" viewbox="0 0 933 584" xmlns="http://www.w3.org/2000/svg" xmlns:xlink="http://www.w3.org/1999/xlink" xmlns:ev="http://www.w3.org/2001/xml-events">
		<title >ProjectsInheritance</title>
	<desc >#title: ProjectsInheritance
	#.base: fill=orange dashed bold italic
	#.abstract: fill=yellow bold italic
	#.concrete: fill=lime bold
	
	[&lt;base&gt;Common]
	[&lt;base&gt;Measurables]
	[&lt;base&gt;BaseMeasurements]
	[&lt;base&gt;BaseQuantifiables]
	[&lt;base&gt;Quantifiables]
	[&lt;base&gt;BaseMeasures]
	[&lt;base&gt;Spreads]
	[&lt;base&gt;Shapes]
	[&lt;base&gt;BaseRates]
	
	[&lt;abstract&gt;SimpleShapes]
	[&lt;abstract&gt;ComplexShapes]
	[&lt;abstract&gt;SimpleRates]
	
	[&lt;concrete&gt;Measurements]
	[&lt;concrete&gt;Measures]
	[&lt;concrete&gt;RateComponents]
	[&lt;concrete&gt;Rates]
	[&lt;concrete&gt;ProportionLimits]
	[&lt;concrete&gt;Proportions]
	[&lt;concrete&gt;BulkSpreads]
	[&lt;concrete&gt;PlaneShapes]
	[&lt;concrete&gt;DryBodies]
	[&lt;concrete&gt;Masses]
	[&lt;concrete&gt;Sections]
	[&lt;concrete&gt;ComplexDryBodies]
	
	[Common]&lt;:-[Measurables]&lt;:-[BaseMeasurements]&lt;:-[Measurements]
	[Measurables]&lt;:-[BaseQuantifiables]&lt;:-[Quantifiables]&lt;:-[BaseMeasures]&lt;:-[RateComponents]
	[Quantifiables]&lt;:-[Spreads]&lt;:-[BulkSpreads]
	[BaseQuantifiables]&lt;:-[BaseRates]&lt;:-[Rates]
	[BaseQuantifiables]&lt;:-[Masses]
	[Spreads]&lt;:-[Shapes]&lt;:-[SimpleShapes]&lt;:-[PlaneShapes]
	[SimpleShapes]&lt;:-[DryBodies]
	[BaseMeasures]&lt;:-[Measures]
	[BaseRates]&lt;:-[SimpleRates]
	[SimpleRates]&lt;:-[ProportionLimits]
	[SimpleRates]&lt;:-[Proportions]
	[Shapes]&lt;:-[ComplexShapes]&lt;:-[Sections]
	[ComplexShapes]&lt;:-[ComplexDryBodies]</desc>
	<g stroke-width="1.0" text-align="left" font="12pt Helvetica, Arial, sans-serif" font-size="12pt" font-family="Helvetica" font-weight="bold" font-style="normal">
			<g font-family="Helvetica" font-size="12pt" font-weight="bold" font-style="normal" stroke-width="3.0" stroke-linejoin="round" stroke-linecap="round" stroke="#33322E">
				<g stroke="transparent" fill="transparent">
					<rect x="0.0" y="0.0" height="584.0" width="933.0" stroke="none"></rect>
				</g>
			<g transform="translate(8, 8)" fill="#33322E">
					<g transform="translate(20, 20)" fill="#eee8d5" font-family="Helvetica" font-size="12pt" font-weight="normal" font-style="normal">
						<path d="M367.5 44.3 L367.5 51 L367.5 71 L367.5 71.0 " fill="none"></path>
					<path d="M372.8 44.3 L367.5 44.3 L362.2 44.3 L367.5 31.0 Z"></path>
					<path d="M297.8 96.9 L128.75 122 L128.75 142 L128.8 142.0 " fill="none"></path>
					<path d="M298.6 102.1 L297.8 96.9 L297.0 91.6 L311.0 94.9 Z"></path>
					<path d="M128.8 186.3 L128.75 193 L128.75 213 L128.8 213.0 " fill="none"></path>
					<path d="M134.1 186.3 L128.8 186.3 L123.4 186.3 L128.8 173.0 Z"></path>
					<path d="M437.2 95.1 L654 122 L654 142 L654.0 142.0 " fill="none"></path>
					<path d="M437.9 89.8 L437.2 95.1 L436.6 100.4 L424.0 93.5 Z"></path>
					<path d="M562.7 166.9 L310.5 193 L310.5 213 L310.5 213.0 " fill="none"></path>
					<path d="M563.3 172.2 L562.7 166.9 L562.2 161.6 L576.0 165.6 Z"></path>
					<path d="M239.0 244.7 L154 264 L154 284 L154.0 284.0 " fill="none"></path>
					<path d="M240.2 249.9 L239.0 244.7 L237.8 239.5 L252.0 241.8 Z"></path>
					<path d="M106.9 320.4 L74 335 L74 355 L74.0 355.0 " fill="none"></path>
					<path d="M109.0 325.3 L106.9 320.4 L104.7 315.5 L119.1 315.0 Z"></path>
					<path d="M380.7 247.5 L441.75 264 L441.75 284 L441.8 284.0 " fill="none"></path>
					<path d="M382.1 242.3 L380.7 247.5 L379.3 252.6 L367.8 244.0 Z"></path>
					<path d="M400.8 321.3 L375 335 L375 355 L375.0 355.0 " fill="none"></path>
					<path d="M403.3 326.0 L400.8 321.3 L398.3 316.6 L412.6 315.0 Z"></path>
					<path d="M668.8 184.7 L673.25 193 L673.25 213 L673.3 213.0 " fill="none"></path>
					<path d="M673.4 182.2 L668.8 184.7 L664.1 187.3 L662.4 173.0 Z"></path>
					<path d="M611.4 246.5 L551.25 264 L551.25 284 L551.3 284.0 " fill="none"></path>
					<path d="M612.9 251.6 L611.4 246.5 L610.0 241.4 L624.3 242.8 Z"></path>
					<path d="M730.4 176.2 L799.25 193 L799.25 213 L799.3 213.0 " fill="none"></path>
					<path d="M731.6 171.0 L730.4 176.2 L729.1 181.3 L717.4 173.0 Z"></path>
					<path d="M482.7 321.3 L508.5 335 L508.5 355 L508.5 355.0 " fill="none"></path>
					<path d="M485.2 316.6 L482.7 321.3 L480.2 326.0 L470.9 315.0 Z"></path>
					<path d="M459.0 382.5 L362 406 L362 426 L362.0 426.0 " fill="none"></path>
					<path d="M460.3 387.7 L459.0 382.5 L457.8 377.3 L472.0 379.3 Z"></path>
					<path d="M318.1 462.8 L289 477 L289 497 L289.0 497.0 " fill="none"></path>
					<path d="M320.5 467.6 L318.1 462.8 L315.8 458.0 L330.1 457.0 Z"></path>
					<path d="M405.9 462.8 L435 477 L435 497 L435.0 497.0 " fill="none"></path>
					<path d="M408.2 458.0 L405.9 462.8 L403.5 467.6 L393.9 457.0 Z"></path>
					<path d="M200.7 320.5 L233 335 L233 355 L233.0 355.0 " fill="none"></path>
					<path d="M202.8 315.6 L200.7 320.5 L198.5 325.3 L188.5 315.0 Z"></path>
					<path d="M716.3 249.9 L744.5 264 L744.5 284 L744.5 284.0 " fill="none"></path>
					<path d="M718.7 245.2 L716.3 249.9 L713.9 254.7 L704.4 244.0 Z"></path>
					<path d="M694.2 320.0 L657.5 335 L657.5 355 L657.5 355.0 " fill="none"></path>
					<path d="M696.2 325.0 L694.2 320.0 L692.2 315.1 L706.5 315.0 Z"></path>
					<path d="M791.2 320.5 L823.5 335 L823.5 355 L823.5 355.0 " fill="none"></path>
					<path d="M793.3 315.6 L791.2 320.5 L789.0 325.3 L779.0 315.0 Z"></path>
					<path d="M557.9 383.2 L646.25 406 L646.25 426 L646.3 426.0 " fill="none"></path>
					<path d="M559.2 378.1 L557.9 383.2 L556.6 388.4 L545.0 379.9 Z"></path>
					<path d="M598.3 462.3 L564.5 477 L564.5 497 L564.5 497.0 " fill="none"></path>
					<path d="M600.5 467.2 L598.3 462.3 L596.2 457.4 L610.6 457.0 Z"></path>
					<path d="M694.2 462.3 L728 477 L728 497 L728.0 497.0 " fill="none"></path>
					<path d="M696.3 457.4 L694.2 462.3 L692.0 467.2 L681.9 457.0 Z"></path>
					<g data-name="Common">
							<g fill="orange" stroke="#33322E" stroke-dasharray="6 6" data-name="Common">
								<rect x="325.0" y="0.0" height="31.0" width="85.0" data-name="Common"></rect>
							</g>
						<g transform="translate(325, 0)" font-family="Helvetica" font-size="12pt" font-weight="bold" font-style="italic" data-name="Common">
								<g transform="translate(8, 8)" fill="#33322E" text-align="center" data-name="Common">
									<text x="34.5" y="13.5" stroke="none" text-anchor="middle" data-name="Common">Common</text>
								
								</g>
							</g>
						</g>
					<g data-name="Measurables">
							<g fill="orange" stroke="#33322E" stroke-dasharray="6 6" data-name="Measurables">
								<rect x="311.0" y="71.0" height="31.0" width="113.0" data-name="Measurables"></rect>
							</g>
						<g transform="translate(311, 71)" font-family="Helvetica" font-size="12pt" font-weight="bold" font-style="italic" data-name="Measurables">
								<g transform="translate(8, 8)" fill="#33322E" text-align="center" data-name="Measurables">
									<text x="48.5" y="13.5" stroke="none" text-anchor="middle" data-name="Measurables">Measurables</text>
								
								</g>
							</g>
						</g>
					<g data-name="BaseMeasurements">
							<g fill="orange" stroke="#33322E" stroke-dasharray="6 6" data-name="BaseMeasurements">
								<rect x="45.8" y="142.0" height="31.0" width="166.0" data-name="BaseMeasurements"></rect>
							</g>
						<g transform="translate(45.75, 142)" font-family="Helvetica" font-size="12pt" font-weight="bold" font-style="italic" data-name="BaseMeasurements">
								<g transform="translate(8, 8)" fill="#33322E" text-align="center" data-name="BaseMeasurements">
									<text x="75.0" y="13.5" stroke="none" text-anchor="middle" data-name="BaseMeasurements">BaseMeasurements</text>
								
								</g>
							</g>
						</g>
					<g data-name="BaseQuantifiables">
							<g fill="orange" stroke="#33322E" stroke-dasharray="6 6" data-name="BaseQuantifiables">
								<rect x="576.0" y="142.0" height="31.0" width="156.0" data-name="BaseQuantifiables"></rect>
							</g>
						<g transform="translate(576, 142)" font-family="Helvetica" font-size="12pt" font-weight="bold" font-style="italic" data-name="BaseQuantifiables">
								<g transform="translate(8, 8)" fill="#33322E" text-align="center" data-name="BaseQuantifiables">
									<text x="70.0" y="13.5" stroke="none" text-anchor="middle" data-name="BaseQuantifiables">BaseQuantifiables</text>
								
								</g>
							</g>
						</g>
					<g data-name="Quantifiables">
							<g fill="orange" stroke="#33322E" stroke-dasharray="6 6" data-name="Quantifiables">
								<rect x="252.0" y="213.0" height="31.0" width="117.0" data-name="Quantifiables"></rect>
							</g>
						<g transform="translate(252, 213)" font-family="Helvetica" font-size="12pt" font-weight="bold" font-style="italic" data-name="Quantifiables">
								<g transform="translate(8, 8)" fill="#33322E" text-align="center" data-name="Quantifiables">
									<text x="50.5" y="13.5" stroke="none" text-anchor="middle" data-name="Quantifiables">Quantifiables</text>
								
								</g>
							</g>
						</g>
					<g data-name="BaseMeasures">
							<g fill="orange" stroke="#33322E" stroke-dasharray="6 6" data-name="BaseMeasures">
								<rect x="90.0" y="284.0" height="31.0" width="128.0" data-name="BaseMeasures"></rect>
							</g>
						<g transform="translate(90, 284)" font-family="Helvetica" font-size="12pt" font-weight="bold" font-style="italic" data-name="BaseMeasures">
								<g transform="translate(8, 8)" fill="#33322E" text-align="center" data-name="BaseMeasures">
									<text x="56.0" y="13.5" stroke="none" text-anchor="middle" data-name="BaseMeasures">BaseMeasures</text>
								
								</g>
							</g>
						</g>
					<g data-name="Spreads">
							<g fill="orange" stroke="#33322E" stroke-dasharray="6 6" data-name="Spreads">
								<rect x="402.3" y="284.0" height="31.0" width="79.0" data-name="Spreads"></rect>
							</g>
						<g transform="translate(402.25, 284)" font-family="Helvetica" font-size="12pt" font-weight="bold" font-style="italic" data-name="Spreads">
								<g transform="translate(8, 8)" fill="#33322E" text-align="center" data-name="Spreads">
									<text x="31.5" y="13.5" stroke="none" text-anchor="middle" data-name="Spreads">Spreads</text>
								
								</g>
							</g>
						</g>
					<g data-name="Shapes">
							<g fill="orange" stroke="#33322E" stroke-dasharray="6 6" data-name="Shapes">
								<rect x="472.0" y="355.0" height="31.0" width="73.0" data-name="Shapes"></rect>
							</g>
						<g transform="translate(472, 355)" font-family="Helvetica" font-size="12pt" font-weight="bold" font-style="italic" data-name="Shapes">
								<g transform="translate(8, 8)" fill="#33322E" text-align="center" data-name="Shapes">
									<text x="28.5" y="13.5" stroke="none" text-anchor="middle" data-name="Shapes">Shapes</text>
								
								</g>
							</g>
						</g>
					<g data-name="BaseRates">
							<g fill="orange" stroke="#33322E" stroke-dasharray="6 6" data-name="BaseRates">
								<rect x="624.3" y="213.0" height="31.0" width="98.0" data-name="BaseRates"></rect>
							</g>
						<g transform="translate(624.25, 213)" font-family="Helvetica" font-size="12pt" font-weight="bold" font-style="italic" data-name="BaseRates">
								<g transform="translate(8, 8)" fill="#33322E" text-align="center" data-name="BaseRates">
									<text x="41.0" y="13.5" stroke="none" text-anchor="middle" data-name="BaseRates">BaseRates</text>
								
								</g>
							</g>
						</g>
					<g data-name="SimpleShapes">
							<g fill="yellow" stroke="#33322E" data-name="SimpleShapes">
								<rect x="299.5" y="426.0" height="31.0" width="125.0" data-name="SimpleShapes"></rect>
							</g>
						<g transform="translate(299.5, 426)" font-family="Helvetica" font-size="12pt" font-weight="bold" font-style="italic" data-name="SimpleShapes">
								<g transform="translate(8, 8)" fill="#33322E" text-align="center" data-name="SimpleShapes">
									<text x="54.5" y="13.5" stroke="none" text-anchor="middle" data-name="SimpleShapes">SimpleShapes</text>
								
								</g>
							</g>
						</g>
					<g data-name="ComplexShapes">
							<g fill="yellow" stroke="#33322E" data-name="ComplexShapes">
								<rect x="576.3" y="426.0" height="31.0" width="140.0" data-name="ComplexShapes"></rect>
							</g>
						<g transform="translate(576.25, 426)" font-family="Helvetica" font-size="12pt" font-weight="bold" font-style="italic" data-name="ComplexShapes">
								<g transform="translate(8, 8)" fill="#33322E" text-align="center" data-name="ComplexShapes">
									<text x="62.0" y="13.5" stroke="none" text-anchor="middle" data-name="ComplexShapes">ComplexShapes</text>
								
								</g>
							</g>
						</g>
					<g data-name="SimpleRates">
							<g fill="yellow" stroke="#33322E" data-name="SimpleRates">
								<rect x="688.5" y="284.0" height="31.0" width="112.0" data-name="SimpleRates"></rect>
							</g>
						<g transform="translate(688.5, 284)" font-family="Helvetica" font-size="12pt" font-weight="bold" font-style="italic" data-name="SimpleRates">
								<g transform="translate(8, 8)" fill="#33322E" text-align="center" data-name="SimpleRates">
									<text x="48.0" y="13.5" stroke="none" text-anchor="middle" data-name="SimpleRates">SimpleRates</text>
								
								</g>
							</g>
						</g>
					<g data-name="Measurements">
							<g fill="lime" stroke="#33322E" data-name="Measurements">
								<rect x="64.8" y="213.0" height="31.0" width="128.0" data-name="Measurements"></rect>
							</g>
						<g transform="translate(64.75, 213)" font-family="Helvetica" font-size="12pt" font-weight="bold" font-style="normal" data-name="Measurements">
								<g transform="translate(8, 8)" fill="#33322E" text-align="center" data-name="Measurements">
									<text x="56.0" y="13.5" stroke="none" text-anchor="middle" data-name="Measurements">Measurements</text>
								
								</g>
							</g>
						</g>
					<g data-name="Measures">
							<g fill="lime" stroke="#33322E" data-name="Measures">
								<rect x="188.0" y="355.0" height="31.0" width="90.0" data-name="Measures"></rect>
							</g>
						<g transform="translate(188, 355)" font-family="Helvetica" font-size="12pt" font-weight="bold" font-style="normal" data-name="Measures">
								<g transform="translate(8, 8)" fill="#33322E" text-align="center" data-name="Measures">
									<text x="37.0" y="13.5" stroke="none" text-anchor="middle" data-name="Measures">Measures</text>
								
								</g>
							</g>
						</g>
					<g data-name="RateComponents">
							<g fill="lime" stroke="#33322E" data-name="RateComponents">
								<rect x="0.0" y="355.0" height="31.0" width="148.0" data-name="RateComponents"></rect>
							</g>
						<g transform="translate(0, 355)" font-family="Helvetica" font-size="12pt" font-weight="bold" font-style="normal" data-name="RateComponents">
								<g transform="translate(8, 8)" fill="#33322E" text-align="center" data-name="RateComponents">
									<text x="66.0" y="13.5" stroke="none" text-anchor="middle" data-name="RateComponents">RateComponents</text>
								
								</g>
							</g>
						</g>
					<g data-name="Rates">
							<g fill="lime" stroke="#33322E" data-name="Rates">
								<rect x="521.3" y="284.0" height="31.0" width="60.0" data-name="Rates"></rect>
							</g>
						<g transform="translate(521.25, 284)" font-family="Helvetica" font-size="12pt" font-weight="bold" font-style="normal" data-name="Rates">
								<g transform="translate(8, 8)" fill="#33322E" text-align="center" data-name="Rates">
									<text x="22.0" y="13.5" stroke="none" text-anchor="middle" data-name="Rates">Rates</text>
								
								</g>
							</g>
						</g>
					<g data-name="ProportionLimits">
							<g fill="lime" stroke="#33322E" data-name="ProportionLimits">
								<rect x="585.0" y="355.0" height="31.0" width="145.0" data-name="ProportionLimits"></rect>
							</g>
						<g transform="translate(585, 355)" font-family="Helvetica" font-size="12pt" font-weight="bold" font-style="normal" data-name="ProportionLimits">
								<g transform="translate(8, 8)" fill="#33322E" text-align="center" data-name="ProportionLimits">
									<text x="64.5" y="13.5" stroke="none" text-anchor="middle" data-name="ProportionLimits">ProportionLimits</text>
								
								</g>
							</g>
						</g>
					<g data-name="Proportions">
							<g fill="lime" stroke="#33322E" data-name="Proportions">
								<rect x="770.0" y="355.0" height="31.0" width="107.0" data-name="Proportions"></rect>
							</g>
						<g transform="translate(770, 355)" font-family="Helvetica" font-size="12pt" font-weight="bold" font-style="normal" data-name="Proportions">
								<g transform="translate(8, 8)" fill="#33322E" text-align="center" data-name="Proportions">
									<text x="45.5" y="13.5" stroke="none" text-anchor="middle" data-name="Proportions">Proportions</text>
								
								</g>
							</g>
						</g>
					<g data-name="BulkSpreads">
							<g fill="lime" stroke="#33322E" data-name="BulkSpreads">
								<rect x="318.0" y="355.0" height="31.0" width="114.0" data-name="BulkSpreads"></rect>
							</g>
						<g transform="translate(318, 355)" font-family="Helvetica" font-size="12pt" font-weight="bold" font-style="normal" data-name="BulkSpreads">
								<g transform="translate(8, 8)" fill="#33322E" text-align="center" data-name="BulkSpreads">
									<text x="49.0" y="13.5" stroke="none" text-anchor="middle" data-name="BulkSpreads">BulkSpreads</text>
								
								</g>
							</g>
						</g>
					<g data-name="PlaneShapes">
							<g fill="lime" stroke="#33322E" data-name="PlaneShapes">
								<rect x="231.0" y="497.0" height="31.0" width="116.0" data-name="PlaneShapes"></rect>
							</g>
						<g transform="translate(231, 497)" font-family="Helvetica" font-size="12pt" font-weight="bold" font-style="normal" data-name="PlaneShapes">
								<g transform="translate(8, 8)" fill="#33322E" text-align="center" data-name="PlaneShapes">
									<text x="50.0" y="13.5" stroke="none" text-anchor="middle" data-name="PlaneShapes">PlaneShapes</text>
								
								</g>
							</g>
						</g>
					<g data-name="DryBodies">
							<g fill="lime" stroke="#33322E" data-name="DryBodies">
								<rect x="387.0" y="497.0" height="31.0" width="96.0" data-name="DryBodies"></rect>
							</g>
						<g transform="translate(387, 497)" font-family="Helvetica" font-size="12pt" font-weight="bold" font-style="normal" data-name="DryBodies">
								<g transform="translate(8, 8)" fill="#33322E" text-align="center" data-name="DryBodies">
									<text x="40.0" y="13.5" stroke="none" text-anchor="middle" data-name="DryBodies">DryBodies</text>
								
								</g>
							</g>
						</g>
					<g data-name="Masses">
							<g fill="lime" stroke="#33322E" data-name="Masses">
								<rect x="762.3" y="213.0" height="31.0" width="74.0" data-name="Masses"></rect>
							</g>
						<g transform="translate(762.25, 213)" font-family="Helvetica" font-size="12pt" font-weight="bold" font-style="normal" data-name="Masses">
								<g transform="translate(8, 8)" fill="#33322E" text-align="center" data-name="Masses">
									<text x="29.0" y="13.5" stroke="none" text-anchor="middle" data-name="Masses">Masses</text>
								
								</g>
							</g>
						</g>
					<g data-name="Sections">
							<g fill="lime" stroke="#33322E" data-name="Sections">
								<rect x="523.0" y="497.0" height="31.0" width="83.0" data-name="Sections"></rect>
							</g>
						<g transform="translate(523, 497)" font-family="Helvetica" font-size="12pt" font-weight="bold" font-style="normal" data-name="Sections">
								<g transform="translate(8, 8)" fill="#33322E" text-align="center" data-name="Sections">
									<text x="33.5" y="13.5" stroke="none" text-anchor="middle" data-name="Sections">Sections</text>
								
								</g>
							</g>
						</g>
					<g data-name="ComplexDryBodies">
							<g fill="lime" stroke="#33322E" data-name="ComplexDryBodies">
								<rect x="646.0" y="497.0" height="31.0" width="164.0" data-name="ComplexDryBodies"></rect>
							</g>
						<g transform="translate(646, 497)" font-family="Helvetica" font-size="12pt" font-weight="bold" font-style="normal" data-name="ComplexDryBodies">
								<g transform="translate(8, 8)" fill="#33322E" text-align="center" data-name="ComplexDryBodies">
									<text x="74.0" y="13.5" stroke="none" text-anchor="middle" data-name="ComplexDryBodies">ComplexDryBodies</text>
								
								</g>
							</g>
						</g>
					</g>
				</g>
			</g>
		</g>
	</svg>