<svg version="1.1" baseProfile="full" width="637.8" height="868.0" viewbox="0 0 637.75 868" xmlns="http://www.w3.org/2000/svg" xmlns:xlink="http://www.w3.org/1999/xlink" xmlns:ev="http://www.w3.org/2001/xml-events">
		<title >ProjectsDependencies</title>
	<desc >#title: ProjectsDependencies
	[Common]&lt;--[Measurables]&lt;--[BaseMeasurements]
	[Measurables]&lt;--[Quantifiables]&lt;--[BaseMeasures]
	[Quantifiables]&lt;--[BaseSpreads]&lt;--[BaseShapes]&lt;--[Shapes]
	[BaseSpreads]&lt;--[Spreads]&lt;--[Shapes]&lt;--[PlaneShapes]
	[BaseMeasurements]&lt;--[BaseMeasures]&lt;--[BaseRates]&lt;--[Measures]
	[BaseMeasurements]&lt;--[Measurements]&lt;--[Measures]&lt;--[Spreads]
	[Measures]&lt;--[RateComponents]&lt;--[Rates]
	[PlaneShapes]&lt;--[DryBodies]&lt;--[Masses]
	[Measures]&lt;--[Proportions]&lt;--[Masses]
	[BaseShapes]&lt;--[ComplexShapes]&lt;--[Sections]
	[DryBodies]&lt;--[Sections]&lt;--[ComplexDryBodies]</desc>
	<g stroke-width="1.0" text-align="left" font="12pt Helvetica, Arial, sans-serif" font-size="12pt" font-family="Helvetica" font-weight="bold" font-style="normal">
			<g font-family="Helvetica" font-size="12pt" font-weight="bold" font-style="normal" stroke-width="3.0" stroke-linejoin="round" stroke-linecap="round" stroke="#33322E">
				<g stroke="transparent" fill="transparent">
					<rect x="0.0" y="0.0" height="868.0" width="637.8" stroke="none"></rect>
				</g>
			<g transform="translate(8, 8)" fill="#33322E">
					<g transform="translate(20, 20)" fill="#33322E" font-family="Helvetica" font-size="12pt" font-weight="normal" font-style="normal">
						<g stroke-dasharray="6 6">
							<path d="M343.3 37.7 L343.25 51 L343.25 71 L343.3 71.0 " fill="none"></path>
						</g>
					<path d="M348.6 44.3 L343.3 37.7 L337.9 44.3 L343.3 31.0 Z"></path>
					<g stroke-dasharray="6 6">
							<path d="M280.2 96.1 L110.75 122 L110.75 142 L110.8 142.0 " fill="none"></path>
						</g>
					<path d="M274.4 102.4 L280.2 96.1 L272.8 91.9 L286.8 95.1 Z"></path>
					<g stroke-dasharray="6 6">
							<path d="M397.0 104.1 L451.75 122 L451.75 142 L451.8 142.0 " fill="none"></path>
						</g>
					<path d="M405.0 101.1 L397.0 104.1 L401.6 111.2 L390.6 102.0 Z"></path>
					<g stroke-dasharray="6 6">
							<path d="M391.5 174.8 L328.5 193 L310.4718309859155 213 L310.5 213.0 " fill="none"></path>
						</g>
					<path d="M386.6 181.8 L391.5 174.8 L383.6 171.6 L397.9 173.0 Z"></path>
					<g stroke-dasharray="6 6">
							<path d="M463.8 178.8 L471.75 193 L471.75 228.5 L471.75 228.5 L471.75 264 L471.75 264 L471.75 299.5 L471.75 299.5 L471.75 335 L471.75 335 L471.75 355 L471.8 355.0 " fill="none"></path>
						</g>
					<path d="M471.7 182.0 L463.8 178.8 L462.4 187.2 L460.5 173.0 Z"></path>
					<g stroke-dasharray="6 6">
							<path d="M483.8 391.8 L491.75 406 L491.75 426 L491.8 426.0 " fill="none"></path>
						</g>
					<path d="M491.7 395.0 L483.8 391.8 L482.4 400.2 L480.5 386.0 Z"></path>
					<g stroke-dasharray="6 6">
							<path d="M449.3 459.6 L408.5 477 L372.8661971830986 497 L372.9 497.0 " fill="none"></path>
						</g>
					<path d="M445.2 467.1 L449.3 459.6 L441.0 457.3 L455.4 457.0 Z"></path>
					<g stroke-dasharray="6 6">
							<path d="M420.4 388.2 L368.5 406 L341.73943661971833 426 L341.7 426.0 " fill="none"></path>
						</g>
					<path d="M415.8 395.4 L420.4 388.2 L412.3 385.3 L426.7 386.0 Z"></path>
					<g stroke-dasharray="6 6">
							<path d="M321.0 463.7 L321 477 L334.6619718309859 497 L334.7 497.0 " fill="none"></path>
						</g>
					<path d="M326.3 470.3 L321.0 463.7 L315.7 470.3 L321.0 457.0 Z"></path>
					<g stroke-dasharray="6 6">
							<path d="M345.3 534.7 L345.25 548 L345.25 568 L345.3 568.0 " fill="none"></path>
						</g>
					<path d="M350.6 541.3 L345.3 534.7 L339.9 541.3 L345.3 528.0 Z"></path>
					<g stroke-dasharray="6 6">
							<path d="M173.6 174.8 L240 193 L271.83098591549293 213 L271.8 213.0 " fill="none"></path>
						</g>
					<path d="M181.5 171.4 L173.6 174.8 L178.6 181.7 L167.2 173.0 Z"></path>
					<g stroke-dasharray="6 6">
							<path d="M296.5 250.7 L296.5 264 L296.5 284 L296.5 284.0 " fill="none"></path>
						</g>
					<path d="M301.8 257.3 L296.5 250.7 L291.2 257.3 L296.5 244.0 Z"></path>
					<g stroke-dasharray="6 6">
							<path d="M296.5 321.7 L296.5 335 L212.5 358.1162790697674 L212.5 358.1 " fill="none"></path>
						</g>
					<path d="M301.8 328.3 L296.5 321.7 L291.2 328.3 L296.5 315.0 Z"></path>
					<g stroke-dasharray="6 6">
							<path d="M98.7 178.8 L90.75 193 L90.75 228.5 L90.75 228.5 L90.75 264 L90.75 264 L90.75 284 L90.8 284.0 " fill="none"></path>
						</g>
					<path d="M100.1 187.2 L98.7 178.8 L90.8 182.0 L102.0 173.0 Z"></path>
					<g stroke-dasharray="6 6">
							<path d="M90.8 321.7 L90.75 335 L133.9894366197183 355 L134.0 355.0 " fill="none"></path>
						</g>
					<path d="M96.1 328.3 L90.8 321.7 L85.4 328.3 L90.8 315.0 Z"></path>
					<g stroke-dasharray="6 6">
							<path d="M218.9 384.2 L301 406 L312.2676056338028 426 L312.3 426.0 " fill="none"></path>
						</g>
					<path d="M226.8 380.7 L218.9 384.2 L224.0 391.0 L212.5 382.5 Z"></path>
					<g stroke-dasharray="6 6">
							<path d="M167.5 392.7 L167.5 406 L167.5 426 L167.5 426.0 " fill="none"></path>
						</g>
					<path d="M172.8 399.3 L167.5 392.7 L162.2 399.3 L167.5 386.0 Z"></path>
					<g stroke-dasharray="6 6">
							<path d="M167.5 463.7 L167.5 477 L167.5 497 L167.5 497.0 " fill="none"></path>
						</g>
					<path d="M172.8 470.3 L167.5 463.7 L162.2 470.3 L167.5 457.0 Z"></path>
					<g stroke-dasharray="6 6">
							<path d="M345.3 605.7 L345.25 619 L345.25 639 L345.3 639.0 " fill="none"></path>
						</g>
					<path d="M350.6 612.3 L345.3 605.7 L339.9 612.3 L345.3 599.0 Z"></path>
					<g stroke-dasharray="6 6">
							<path d="M290.8 668.5 L207.25 690 L110.5 715.6794392523365 L110.5 715.7 " fill="none"></path>
						</g>
					<path d="M285.7 675.3 L290.8 668.5 L283.0 665.0 L297.3 666.8 Z"></path>
					<g stroke-dasharray="6 6">
							<path d="M116.1 386.5 L53.5 406 L53.5 441.5 L53.5 441.5 L53.5 477 L53.5 477 L53.5 512.5 L53.5 512.5 L53.5 548 L53.5 548 L53.5 583.5 L53.5 583.5 L53.5 619 L53.5 619 L53.5 639 L53.5 639.0 " fill="none"></path>
						</g>
					<path d="M111.4 393.6 L116.1 386.5 L108.2 383.4 L122.5 384.5 Z"></path>
					<g stroke-dasharray="6 6">
							<path d="M53.5 676.7 L53.5 690 L64.76760563380282 710 L64.8 710.0 " fill="none"></path>
						</g>
					<path d="M58.8 683.3 L53.5 676.7 L48.2 683.3 L53.5 670.0 Z"></path>
					<g stroke-dasharray="6 6">
							<path d="M503.8 462.8 L511.75 477 L511.75 512.5 L511.75 512.5 L511.75 548 L511.75 548 L511.75 583.5 L511.75 583.5 L511.75 619 L511.75 619 L511.75 639 L511.8 639.0 " fill="none"></path>
						</g>
					<path d="M511.7 466.0 L503.8 462.8 L502.4 471.2 L500.5 457.0 Z"></path>
					<g stroke-dasharray="6 6">
							<path d="M511.8 676.7 L511.75 690 L500.4823943661972 710 L500.5 710.0 " fill="none"></path>
						</g>
					<path d="M517.1 683.3 L511.8 676.7 L506.4 683.3 L511.8 670.0 Z"></path>
					<g stroke-dasharray="6 6">
							<path d="M378.7 673.3 L408.5 690 L455.40140845070425 710 L455.4 710.0 " fill="none"></path>
						</g>
					<path d="M387.1 671.9 L378.7 673.3 L381.9 681.2 L372.9 670.0 Z"></path>
					<g stroke-dasharray="6 6">
							<path d="M491.8 747.7 L491.75 761 L491.75 781 L491.8 781.0 " fill="none"></path>
						</g>
					<path d="M497.1 754.3 L491.8 747.7 L486.4 754.3 L491.8 741.0 Z"></path>
					<g data-name="Common">
							<g fill="#eee8d5" stroke="#33322E" data-name="Common">
								<rect x="300.8" y="0.0" height="31.0" width="85.0" data-name="Common"></rect>
							</g>
						<g transform="translate(300.75, 0)" font-family="Helvetica" font-size="12pt" font-weight="bold" font-style="normal" data-name="Common">
								<g transform="translate(8, 8)" fill="#33322E" text-align="center" data-name="Common">
									<text x="34.5" y="13.5" stroke="none" text-anchor="middle" data-name="Common">Common</text>
								
								</g>
							</g>
						</g>
					<g data-name="Measurables">
							<g fill="#eee8d5" stroke="#33322E" data-name="Measurables">
								<rect x="286.8" y="71.0" height="31.0" width="113.0" data-name="Measurables"></rect>
							</g>
						<g transform="translate(286.75, 71)" font-family="Helvetica" font-size="12pt" font-weight="bold" font-style="normal" data-name="Measurables">
								<g transform="translate(8, 8)" fill="#33322E" text-align="center" data-name="Measurables">
									<text x="48.5" y="13.5" stroke="none" text-anchor="middle" data-name="Measurables">Measurables</text>
								
								</g>
							</g>
						</g>
					<g data-name="BaseMeasurements">
							<g fill="#eee8d5" stroke="#33322E" data-name="BaseMeasurements">
								<rect x="27.8" y="142.0" height="31.0" width="166.0" data-name="BaseMeasurements"></rect>
							</g>
						<g transform="translate(27.75, 142)" font-family="Helvetica" font-size="12pt" font-weight="bold" font-style="normal" data-name="BaseMeasurements">
								<g transform="translate(8, 8)" fill="#33322E" text-align="center" data-name="BaseMeasurements">
									<text x="75.0" y="13.5" stroke="none" text-anchor="middle" data-name="BaseMeasurements">BaseMeasurements</text>
								
								</g>
							</g>
						</g>
					<g data-name="Quantifiables">
							<g fill="#eee8d5" stroke="#33322E" data-name="Quantifiables">
								<rect x="393.3" y="142.0" height="31.0" width="117.0" data-name="Quantifiables"></rect>
							</g>
						<g transform="translate(393.25, 142)" font-family="Helvetica" font-size="12pt" font-weight="bold" font-style="normal" data-name="Quantifiables">
								<g transform="translate(8, 8)" fill="#33322E" text-align="center" data-name="Quantifiables">
									<text x="50.5" y="13.5" stroke="none" text-anchor="middle" data-name="Quantifiables">Quantifiables</text>
								
								</g>
							</g>
						</g>
					<g data-name="BaseMeasures">
							<g fill="#eee8d5" stroke="#33322E" data-name="BaseMeasures">
								<rect x="232.5" y="213.0" height="31.0" width="128.0" data-name="BaseMeasures"></rect>
							</g>
						<g transform="translate(232.5, 213)" font-family="Helvetica" font-size="12pt" font-weight="bold" font-style="normal" data-name="BaseMeasures">
								<g transform="translate(8, 8)" fill="#33322E" text-align="center" data-name="BaseMeasures">
									<text x="56.0" y="13.5" stroke="none" text-anchor="middle" data-name="BaseMeasures">BaseMeasures</text>
								
								</g>
							</g>
						</g>
					<g data-name="BaseSpreads">
							<g fill="#eee8d5" stroke="#33322E" data-name="BaseSpreads">
								<rect x="413.3" y="355.0" height="31.0" width="117.0" data-name="BaseSpreads"></rect>
							</g>
						<g transform="translate(413.25, 355)" font-family="Helvetica" font-size="12pt" font-weight="bold" font-style="normal" data-name="BaseSpreads">
								<g transform="translate(8, 8)" fill="#33322E" text-align="center" data-name="BaseSpreads">
									<text x="50.5" y="13.5" stroke="none" text-anchor="middle" data-name="BaseSpreads">BaseSpreads</text>
								
								</g>
							</g>
						</g>
					<g data-name="BaseShapes">
							<g fill="#eee8d5" stroke="#33322E" data-name="BaseShapes">
								<rect x="436.3" y="426.0" height="31.0" width="111.0" data-name="BaseShapes"></rect>
							</g>
						<g transform="translate(436.25, 426)" font-family="Helvetica" font-size="12pt" font-weight="bold" font-style="normal" data-name="BaseShapes">
								<g transform="translate(8, 8)" fill="#33322E" text-align="center" data-name="BaseShapes">
									<text x="47.5" y="13.5" stroke="none" text-anchor="middle" data-name="BaseShapes">BaseShapes</text>
								
								</g>
							</g>
						</g>
					<g data-name="Shapes">
							<g fill="#eee8d5" stroke="#33322E" data-name="Shapes">
								<rect x="308.8" y="497.0" height="31.0" width="73.0" data-name="Shapes"></rect>
							</g>
						<g transform="translate(308.75, 497)" font-family="Helvetica" font-size="12pt" font-weight="bold" font-style="normal" data-name="Shapes">
								<g transform="translate(8, 8)" fill="#33322E" text-align="center" data-name="Shapes">
									<text x="28.5" y="13.5" stroke="none" text-anchor="middle" data-name="Shapes">Shapes</text>
								
								</g>
							</g>
						</g>
					<g data-name="Spreads">
							<g fill="#eee8d5" stroke="#33322E" data-name="Spreads">
								<rect x="281.5" y="426.0" height="31.0" width="79.0" data-name="Spreads"></rect>
							</g>
						<g transform="translate(281.5, 426)" font-family="Helvetica" font-size="12pt" font-weight="bold" font-style="normal" data-name="Spreads">
								<g transform="translate(8, 8)" fill="#33322E" text-align="center" data-name="Spreads">
									<text x="31.5" y="13.5" stroke="none" text-anchor="middle" data-name="Spreads">Spreads</text>
								
								</g>
							</g>
						</g>
					<g data-name="PlaneShapes">
							<g fill="#eee8d5" stroke="#33322E" data-name="PlaneShapes">
								<rect x="287.3" y="568.0" height="31.0" width="116.0" data-name="PlaneShapes"></rect>
							</g>
						<g transform="translate(287.25, 568)" font-family="Helvetica" font-size="12pt" font-weight="bold" font-style="normal" data-name="PlaneShapes">
								<g transform="translate(8, 8)" fill="#33322E" text-align="center" data-name="PlaneShapes">
									<text x="50.0" y="13.5" stroke="none" text-anchor="middle" data-name="PlaneShapes">PlaneShapes</text>
								
								</g>
							</g>
						</g>
					<g data-name="BaseRates">
							<g fill="#eee8d5" stroke="#33322E" data-name="BaseRates">
								<rect x="247.5" y="284.0" height="31.0" width="98.0" data-name="BaseRates"></rect>
							</g>
						<g transform="translate(247.5, 284)" font-family="Helvetica" font-size="12pt" font-weight="bold" font-style="normal" data-name="BaseRates">
								<g transform="translate(8, 8)" fill="#33322E" text-align="center" data-name="BaseRates">
									<text x="41.0" y="13.5" stroke="none" text-anchor="middle" data-name="BaseRates">BaseRates</text>
								
								</g>
							</g>
						</g>
					<g data-name="Measures">
							<g fill="#eee8d5" stroke="#33322E" data-name="Measures">
								<rect x="122.5" y="355.0" height="31.0" width="90.0" data-name="Measures"></rect>
							</g>
						<g transform="translate(122.5, 355)" font-family="Helvetica" font-size="12pt" font-weight="bold" font-style="normal" data-name="Measures">
								<g transform="translate(8, 8)" fill="#33322E" text-align="center" data-name="Measures">
									<text x="37.0" y="13.5" stroke="none" text-anchor="middle" data-name="Measures">Measures</text>
								
								</g>
							</g>
						</g>
					<g data-name="Measurements">
							<g fill="#eee8d5" stroke="#33322E" data-name="Measurements">
								<rect x="26.8" y="284.0" height="31.0" width="128.0" data-name="Measurements"></rect>
							</g>
						<g transform="translate(26.75, 284)" font-family="Helvetica" font-size="12pt" font-weight="bold" font-style="normal" data-name="Measurements">
								<g transform="translate(8, 8)" fill="#33322E" text-align="center" data-name="Measurements">
									<text x="56.0" y="13.5" stroke="none" text-anchor="middle" data-name="Measurements">Measurements</text>
								
								</g>
							</g>
						</g>
					<g data-name="RateComponents">
							<g fill="#eee8d5" stroke="#33322E" data-name="RateComponents">
								<rect x="93.5" y="426.0" height="31.0" width="148.0" data-name="RateComponents"></rect>
							</g>
						<g transform="translate(93.5, 426)" font-family="Helvetica" font-size="12pt" font-weight="bold" font-style="normal" data-name="RateComponents">
								<g transform="translate(8, 8)" fill="#33322E" text-align="center" data-name="RateComponents">
									<text x="66.0" y="13.5" stroke="none" text-anchor="middle" data-name="RateComponents">RateComponents</text>
								
								</g>
							</g>
						</g>
					<g data-name="Rates">
							<g fill="#eee8d5" stroke="#33322E" data-name="Rates">
								<rect x="137.5" y="497.0" height="31.0" width="60.0" data-name="Rates"></rect>
							</g>
						<g transform="translate(137.5, 497)" font-family="Helvetica" font-size="12pt" font-weight="bold" font-style="normal" data-name="Rates">
								<g transform="translate(8, 8)" fill="#33322E" text-align="center" data-name="Rates">
									<text x="22.0" y="13.5" stroke="none" text-anchor="middle" data-name="Rates">Rates</text>
								
								</g>
							</g>
						</g>
					<g data-name="DryBodies">
							<g fill="#eee8d5" stroke="#33322E" data-name="DryBodies">
								<rect x="297.3" y="639.0" height="31.0" width="96.0" data-name="DryBodies"></rect>
							</g>
						<g transform="translate(297.25, 639)" font-family="Helvetica" font-size="12pt" font-weight="bold" font-style="normal" data-name="DryBodies">
								<g transform="translate(8, 8)" fill="#33322E" text-align="center" data-name="DryBodies">
									<text x="40.0" y="13.5" stroke="none" text-anchor="middle" data-name="DryBodies">DryBodies</text>
								
								</g>
							</g>
						</g>
					<g data-name="Masses">
							<g fill="#eee8d5" stroke="#33322E" data-name="Masses">
								<rect x="36.5" y="710.0" height="31.0" width="74.0" data-name="Masses"></rect>
							</g>
						<g transform="translate(36.5, 710)" font-family="Helvetica" font-size="12pt" font-weight="bold" font-style="normal" data-name="Masses">
								<g transform="translate(8, 8)" fill="#33322E" text-align="center" data-name="Masses">
									<text x="29.0" y="13.5" stroke="none" text-anchor="middle" data-name="Masses">Masses</text>
								
								</g>
							</g>
						</g>
					<g data-name="Proportions">
							<g fill="#eee8d5" stroke="#33322E" data-name="Proportions">
								<rect x="0.0" y="639.0" height="31.0" width="107.0" data-name="Proportions"></rect>
							</g>
						<g transform="translate(0, 639)" font-family="Helvetica" font-size="12pt" font-weight="bold" font-style="normal" data-name="Proportions">
								<g transform="translate(8, 8)" fill="#33322E" text-align="center" data-name="Proportions">
									<text x="45.5" y="13.5" stroke="none" text-anchor="middle" data-name="Proportions">Proportions</text>
								
								</g>
							</g>
						</g>
					<g data-name="ComplexShapes">
							<g fill="#eee8d5" stroke="#33322E" data-name="ComplexShapes">
								<rect x="441.8" y="639.0" height="31.0" width="140.0" data-name="ComplexShapes"></rect>
							</g>
						<g transform="translate(441.75, 639)" font-family="Helvetica" font-size="12pt" font-weight="bold" font-style="normal" data-name="ComplexShapes">
								<g transform="translate(8, 8)" fill="#33322E" text-align="center" data-name="ComplexShapes">
									<text x="62.0" y="13.5" stroke="none" text-anchor="middle" data-name="ComplexShapes">ComplexShapes</text>
								
								</g>
							</g>
						</g>
					<g data-name="Sections">
							<g fill="#eee8d5" stroke="#33322E" data-name="Sections">
								<rect x="450.3" y="710.0" height="31.0" width="83.0" data-name="Sections"></rect>
							</g>
						<g transform="translate(450.25, 710)" font-family="Helvetica" font-size="12pt" font-weight="bold" font-style="normal" data-name="Sections">
								<g transform="translate(8, 8)" fill="#33322E" text-align="center" data-name="Sections">
									<text x="33.5" y="13.5" stroke="none" text-anchor="middle" data-name="Sections">Sections</text>
								
								</g>
							</g>
						</g>
					<g data-name="ComplexDryBodies">
							<g fill="#eee8d5" stroke="#33322E" data-name="ComplexDryBodies">
								<rect x="409.8" y="781.0" height="31.0" width="164.0" data-name="ComplexDryBodies"></rect>
							</g>
						<g transform="translate(409.75, 781)" font-family="Helvetica" font-size="12pt" font-weight="bold" font-style="normal" data-name="ComplexDryBodies">
								<g transform="translate(8, 8)" fill="#33322E" text-align="center" data-name="ComplexDryBodies">
									<text x="74.0" y="13.5" stroke="none" text-anchor="middle" data-name="ComplexDryBodies">ComplexDryBodies</text>
								
								</g>
							</g>
						</g>
					</g>
				</g>
			</g>
		</g>
	</svg>