<svg version="1.1" baseProfile="full" width="1319.8" height="1096.0" viewBox="0 0 1319.75 1096" xmlns="http://www.w3.org/2000/svg" xmlns:xlink="http://www.w3.org/1999/xlink" xmlns:ev="http://www.w3.org/2001/xml-events">
	<title >ProjectsInheritanceAndDependencies</title>
	<desc >#title: ProjectsInheritanceAndDependencies
	#.base: fill=#FFC080 bold italic
	#.abstract: fill=#FFFF80 bold italic
	#.concrete: fill=#80FF80 bold
	
	[&lt;base&gt;Common]
	[&lt;base&gt;Measurables]
	[&lt;base&gt;BaseMeasurements]
	[&lt;base&gt;BaseQuantifiables]
	[&lt;base&gt;Quantifiables]
	[&lt;base&gt;BaseMeasures]
	[&lt;base&gt;Spreads]
	[&lt;base&gt;Shapes]
	[&lt;base&gt;BaseRates]
	
	[&lt;abstract&gt;SimpleShapes]
	[&lt;abstract&gt;ComplexShapes]
	
	[&lt;concrete&gt;Measurements]
	[&lt;concrete&gt;Measures]
	[&lt;concrete&gt;ShapeLimits]
	[&lt;concrete&gt;RateComponents]
	[&lt;concrete&gt;SimpleRates]
	[&lt;concrete&gt;Rates]
	[&lt;concrete&gt;BulkSpreads]
	[&lt;concrete&gt;PlaneShapes]
	[&lt;concrete&gt;DryBodies]
	[&lt;concrete&gt;Masses]
	[&lt;concrete&gt;Sections]
	[&lt;concrete&gt;ComplexDryBodies]
	
	[Common]&lt;:-[Measurables]
	[BaseMeasurements]-:&gt;[Measurables]
	[BaseMeasurements]&lt;:-[Measurements]
	[Measurables]&lt;:-[BaseQuantifiables]
	[BaseQuantifiables]&lt;:-[Quantifiables]
	[BaseQuantifiables]&lt;:-[BaseRates]
	[Masses]-:&gt;[BaseQuantifiables]
	[Quantifiables]&lt;:-[BaseMeasures]
	[Quantifiables]&lt;:-[Spreads]
	[Spreads]&lt;:-[BulkSpreads]
	[Spreads]&lt;:-[Shapes]
	[SimpleShapes]&lt;:-[PlaneShapes]
	[SimpleShapes]&lt;:-[DryBodies]
	[BaseMeasures]&lt;:-[Measures]
	[BaseMeasures]&lt;:-[RateComponents]
	[BaseRates]&lt;:-[Rates]
	[BaseRates]&lt;:-[SimpleRates]
	[Shapes]&lt;:-[SimpleShapes]
	[Shapes]&lt;:-[ComplexShapes]
	[Shapes]&lt;:-[ShapeLimits]
	[ComplexShapes]&lt;:-[Sections]
	[ComplexShapes]&lt;:-[ComplexDryBodies]
	
	[Measurements]&lt;--[Measures]
	[Measures]&lt;--[RateComponents]
	[RateComponents]&lt;--[Rates]
	[Quantifiables]&lt;--[BaseRates]
	[Masses]--&gt;[SimpleRates]
	[DryBodies]&lt;--[Masses]
	[ComplexDryBodies]--&gt;[Sections]
	[SimpleRates]--&gt;[Measures]
	[PlaneShapes]&lt;--[DryBodies]
	[DryBodies]&lt;--[Sections]
	[BulkSpreads]--&gt;[Measures]
	[BulkSpreads]&lt;--[SimpleShapes]
	[Spreads]--&gt;[BaseMeasures]
	[BaseMeasurements]&lt;--[BaseMeasures]
	[SimpleShapes]&lt;--[ComplexShapes]
	[ShapeLimits]--&gt;[SimpleShapes]</desc>
	<g stroke-width="1.0" text-align="left" font="12pt Helvetica, Arial, sans-serif" font-size="12pt" font-family="Helvetica" font-weight="bold" font-style="normal">
		<g font-family="Helvetica" font-size="12pt" font-weight="bold" font-style="normal" stroke-width="3.0" stroke-linejoin="round" stroke-linecap="round" stroke="#33322E">
			<g stroke="transparent" fill="transparent">
				<rect x="0.0" y="0.0" height="1096.0" width="1319.8" stroke="none"></rect>
			</g>
			<g transform="translate(59.25, 8)" fill="#33322E">
				<g transform="translate(20, 20)" fill="#33322E" font-family="Helvetica" font-size="12pt" font-weight="normal" font-style="normal">
					<path d="M915.0 32.5 L849.5 52 L815.4722222222222 72 L815.5 72.0 " fill="none"></path>
					<path d="M916.5 37.6 L915.0 32.5 L913.4 27.4 L927.8 28.7 Z"></path>
					<path d="M756.0 32.0 L728.75 52 L750.3977704652142 65.09781070164223 L750.4 65.1 " fill="none"></path>
					<path d="M747.6 69.7 L750.4 65.1 L753.2 60.5 L761.8 72.0 Z"></path>
					<path d="M691.4 34.8 L612.75 52 L612.75 88 L612.75 88 L612.75 124 L612.75 124 L612.75 160 L612.75 160 L612.75 196 L612.75 196 L612.75 232 L612.75 232 L612.75 268 L612.75 268 L612.75 304 L612.75 304 L612.75 340 L612.75 340 L612.75 376 L612.75 376 L612.75 412 L612.75 412 L612.75 448 L612.75 448 L612.75 484 L612.75 484 L612.75 520 L612.75 520 L612.75 556 L612.75 556 L612.75 592 L612.75 592 L612.75 628 L612.75 628 L612.75 664 L612.75 664 L612.75 700 L612.75 700 L612.75 736 L612.75 736 L612.75 772 L612.75 772 L612.75 792 L612.8 792.0 " fill="none"></path>
					<path d="M692.5 40.1 L691.4 34.8 L690.3 29.6 L704.4 32.0 Z"></path>
					<path d="M788.3 117.3 L788.25 124 L788.25 144 L788.3 144.0 " fill="none"></path>
					<path d="M793.6 117.3 L788.3 117.3 L782.9 117.3 L788.3 104.0 Z"></path>
					<path d="M788.3 189.3 L788.25 196 L788.25 216 L788.3 216.0 " fill="none"></path>
					<path d="M793.6 189.3 L788.3 189.3 L782.9 189.3 L788.3 176.0 Z"></path>
					<path d="M878.5 171.5 L1071.5 196 L1071.5 232 L1071.5 232 L1071.5 268 L1071.5 268 L1071.5 304 L1071.5 304 L1071.5 340 L1071.5 340 L1071.5 376 L1071.5 376 L1071.5 412 L1071.5 412 L1071.5 448 L1071.5 448 L1071.5 484 L1071.5 484 L1071.5 520 L1071.5 520 L1071.5 556 L1071.5 556 L1071.5 592 L1071.5 592 L1071.5 628 L1071.5 628 L1071.5 664 L1071.5 664 L1071.5 700 L1071.5 700 L1014 720 L1014.0 720.0 " fill="none"></path>
					<path d="M879.1 166.2 L878.5 171.5 L877.8 176.8 L865.3 169.8 Z"></path>
					<path d="M27.6 720.0 L16.5 700 L16.5 664 L16.5 664 L16.5 628 L16.5 628 L16.5 592 L16.5 592 L16.5 556 L16.5 556 L16.5 520 L16.5 520 L16.5 484 L16.5 484 L16.5 448 L16.5 448 L16.5 412 L16.5 412 L16.5 376 L16.5 376 L16.5 340 L16.5 340 L16.5 304 L16.5 304 L16.5 268 L16.5 268 L16.5 232 L16.5 232 L16.5 196 L16.5 196 L697.9311494627253 164.21312422331312 L697.9 164.2 " fill="none"></path>
					<path d="M698.2 169.5 L697.9 164.2 L697.7 158.9 L711.3 163.6 Z"></path>
					<path d="M859.9 243.1 L1019.75 268 L1019.75 304 L1019.75 304 L1019.75 340 L1019.75 340 L991 360 L991.0 360.0 " fill="none"></path>
					<path d="M860.7 237.9 L859.9 243.1 L859.1 248.4 L846.8 241.1 Z"></path>
					<path d="M740.8 253.5 L708.75 268 L708.75 288 L708.8 288.0 " fill="none"></path>
					<path d="M743.0 258.4 L740.8 253.5 L738.6 248.6 L752.9 248.0 Z"></path>
					<path d="M655.9 307.6 L182.25 340 L182.25 376 L182.25 376 L182.25 412 L182.25 412 L182.25 432 L182.3 432.0 " fill="none"></path>
					<path d="M656.3 312.9 L655.9 307.6 L655.6 302.3 L669.3 306.7 Z"></path>
					<path d="M656.0 310.2 L401.25 340 L401.25 360 L401.3 360.0 " fill="none"></path>
					<path d="M656.6 315.5 L656.0 310.2 L655.4 304.9 L669.3 308.6 Z"></path>
					<path d="M166.5 539.9 L114 556 L114 576 L114.0 576.0 " fill="none"></path>
					<path d="M168.1 545.0 L166.5 539.9 L165.0 534.8 L179.3 536.0 Z"></path>
					<path d="M216.1 547.7 L211.5 556 L211.5 592 L211.5 592 L211.5 628 L211.5 628 L184.41666666666666 648 L184.4 648.0 " fill="none"></path>
					<path d="M220.8 550.2 L216.1 547.7 L211.5 545.1 L222.6 536.0 Z"></path>
					<path d="M891.3 387.0 L716.25 412 L716.25 448 L716.25 448 L716.25 484 L716.25 484 L716.25 520 L716.25 520 L716.25 556 L716.25 556 L716.25 592 L716.25 592 L716.25 628 L716.25 628 L716.25 664 L716.25 664 L716.25 700 L716.25 700 L716.25 736 L716.25 736 L716.25 772 L716.25 772 L716.25 808 L716.25 808 L716.25 844 L716.25 844 L376.5 875.8308392973324 L376.5 875.8 " fill="none"></path>
					<path d="M892.1 392.2 L891.3 387.0 L890.5 381.7 L904.5 385.1 Z"></path>
					<path d="M1044.5 392.4 L1135.75 412 L1135.75 448 L1135.75 448 L1135.75 484 L1135.75 484 L1135.75 520 L1135.75 520 L1135.75 556 L1135.75 556 L1135.75 592 L1135.75 592 L1135.75 628 L1135.75 628 L1135.75 664 L1135.75 664 L1135.75 700 L1135.75 700 L1135.75 736 L1135.75 736 L1135.75 772 L1135.75 772 L1135.75 808 L1135.75 808 L1135.75 844 L1135.75 844 L1135.75 880 L1135.75 880 L1135.75 916 L1135.75 916 L659.5 947.18690313779 L659.5 947.2 " fill="none"></path>
					<path d="M1045.7 387.2 L1044.5 392.4 L1043.4 397.6 L1031.5 389.6 Z"></path>
					<path d="M1029.7 745.1 L1212.5 772 L1212.5 808 L1212.5 808 L1212.5 844 L1212.5 844 L1212.5 880 L1212.5 880 L1212.5 916 L1212.5 916 L1212.5 952 L1212.5 952 L1212.5 988 L1212.5 988 L672.25 1022.1360245721808 L672.3 1022.1 " fill="none"></path>
					<path d="M1030.5 739.8 L1029.7 745.1 L1028.9 750.4 L1016.5 743.1 Z"></path>
					<path d="M906.2 739.4 L317.25 772 L112 800.3374880153403 L112.0 800.3 " fill="none"></path>
					<path d="M906.5 744.7 L906.2 739.4 L905.9 734.1 L919.5 738.7 Z"></path>
					<path d="M449.7 394.0 L498 412 L498 448 L498 448 L498 484 L498 484 L293.5 511.624765478424 L293.5 511.6 " fill="none"></path>
					<path d="M451.6 389.0 L449.7 394.0 L447.9 399.0 L437.3 389.4 Z"></path>
					<path d="M450.1 388.9 L538 412 L538 448 L538 448 L538 484 L538 484 L538 520 L538 520 L538 556 L538 556 L504.3888888888889 576 L504.4 576.0 " fill="none"></path>
					<path d="M451.5 383.7 L450.1 388.9 L448.8 394.0 L437.3 385.5 Z"></path>
					<path d="M359.5 398.3 L333.75 412 L333.75 432 L333.8 432.0 " fill="none"></path>
					<path d="M362.0 403.0 L359.5 398.3 L357.0 393.6 L371.3 392.0 Z"></path>
					<path d="M515.8 614.8 L538 628 L538 664 L538 664 L538 700 L538 700 L455.5 724.0485829959514 L455.5 724.0 " fill="none"></path>
					<path d="M518.6 610.2 L515.8 614.8 L513.1 619.4 L504.4 608.0 Z"></path>
					<path d="M430.3 613.5 L398.5 628 L398.5 648 L398.5 648.0 " fill="none"></path>
					<path d="M432.5 618.4 L430.3 613.5 L428.0 608.7 L442.4 608.0 Z"></path>
					<g stroke-dasharray="6 6">
						<path d="M612.8 830.7 L612.75 844 L376.5 874.2938557435441 L376.5 874.3 " fill="none"></path>
					</g>
					<path d="M618.1 837.3 L612.8 830.7 L607.4 837.3 L612.8 824.0 Z"></path>
					<g stroke-dasharray="6 6">
						<path d="M332.0 902.7 L332 916 L512.5 941.5826771653543 L512.5 941.6 " fill="none"></path>
					</g>
					<path d="M337.3 909.3 L332.0 902.7 L326.7 909.3 L332.0 896.0 Z"></path>
					<g stroke-dasharray="6 6">
						<path d="M586.0 974.7 L586 988 L617.5277777777778 1008 L617.5 1008.0 " fill="none"></path>
					</g>
					<path d="M591.3 981.3 L586.0 974.7 L580.7 981.3 L586.0 968.0 Z"></path>
					<g stroke-dasharray="6 6">
						<path d="M788.3 254.7 L788.25 268 L788.25 304 L788.25 304 L788.25 340 L788.25 340 L788.25 376 L788.25 376 L788.25 412 L788.25 412 L788.25 448 L788.25 448 L788.25 484 L788.25 484 L788.25 520 L788.25 520 L788.25 556 L788.25 556 L788.25 592 L788.25 592 L788.25 628 L788.25 628 L788.25 664 L788.25 664 L788.25 700 L788.25 700 L919.5 726.2865090403338 L919.5 726.3 " fill="none"></path>
					</g>
					<path d="M793.6 261.3 L788.3 254.7 L782.9 261.3 L788.3 248.0 Z"></path>
					<g stroke-dasharray="6 6">
						<path d="M36.5 752.0 L36.5 772 L44.37349156992023 786.1722848258564 L44.4 786.2 " fill="none"></path>
					</g>
					<path d="M36.5 782.9 L44.4 786.2 L45.8 777.8 L47.6 792.0 Z"></path>
					<g stroke-dasharray="6 6">
						<path d="M122.3 682.8 L85.25 700 L58.16666666666667 720 L58.2 720.0 " fill="none"></path>
					</g>
					<path d="M118.5 690.5 L122.3 682.8 L114.0 680.8 L128.3 680.0 Z"></path>
					<g stroke-dasharray="6 6">
						<path d="M398.5 680.0 L398.5 700 L404.68129911519924 713.9079230091983 L404.7 713.9 " fill="none"></path>
					</g>
					<path d="M397.1 710.0 L404.7 713.9 L406.8 705.6 L407.4 720.0 Z"></path>
					<g stroke-dasharray="6 6">
						<path d="M56.5 824.0 L56.5 844 L280.8895314681588 873.3213180865833 L280.9 873.3 " fill="none"></path>
					</g>
					<path d="M273.6 877.7 L280.9 873.3 L275.0 867.2 L287.5 874.2 Z"></path>
					<g stroke-dasharray="6 6">
						<path d="M114.0 614.7 L114 628 L141.08333333333334 648 L141.1 648.0 " fill="none"></path>
					</g>
					<path d="M119.3 621.3 L114.0 614.7 L108.7 621.3 L114.0 608.0 Z"></path>
					<g stroke-dasharray="6 6">
						<path d="M216.7 678.8 L294.25 700 L373.5 723.7255717255717 L373.5 723.7 " fill="none"></path>
					</g>
					<path d="M224.5 675.4 L216.7 678.8 L221.7 685.7 L210.3 677.0 Z"></path>
					<g stroke-dasharray="6 6">
						<path d="M125.8 456.7 L-51.25 484 L-51.25 520 L-51.25 520 L-51.25 556 L-51.25 556 L-51.25 592 L-51.25 592 L-51.25 628 L-51.25 628 L-51.25 664 L-51.25 664 L-51.25 700 L-51.25 700 L-51.25 736 L-51.25 736 L-51.25 772 L-51.25 772 L-51.25 808 L-51.25 808 L-51.25 844 L-51.25 844 L280.86255177038873 875.1964823580796 L280.9 875.2 " fill="none"></path>
					</g>
					<path d="M273.7 879.9 L280.9 875.2 L274.7 869.3 L287.5 875.8 Z"></path>
					<g stroke-dasharray="6 6">
						<path d="M218.9 467.1 L251.5 484 L240.38888888888889 504 L240.4 504.0 " fill="none"></path>
					</g>
					<path d="M227.3 465.4 L218.9 467.1 L222.4 474.9 L213.0 464.0 Z"></path>
					<g stroke-dasharray="6 6">
						<path d="M748.3 309.5 L968 340 L968 353.3333333333333 L968.0 353.3 " fill="none"></path>
					</g>
					<path d="M962.7 346.7 L968.0 353.3 L973.3 346.7 L968.0 360.0 Z"></path>
					<g stroke-dasharray="6 6">
						<path d="M851.0 33.6 L928 52 L928 88 L928 88 L928 124 L928 124 L928 160 L928 160 L928 196 L928 196 L928 232 L928 232 L928 268 L928 268 L928 304 L928 304 L928 340 L928 340 L950.2222222222222 360 L950.2 360.0 " fill="none"></path>
					</g>
					<path d="M858.7 29.9 L851.0 33.6 L856.3 40.3 L844.5 32.0 Z"></path>
					<g stroke-dasharray="6 6">
						<path d="M283.5 538.2 L334.25 556 L413.8333333333333 576 L413.8 576.0 " fill="none"></path>
					</g>
					<path d="M291.5 535.4 L283.5 538.2 L288.0 545.4 L277.2 536.0 Z"></path>
					<g stroke-dasharray="6 6">
						<path d="M278.8 458.2 L139.5 484 L184.40282591307275 501.57067100946324 L184.4 501.6 " fill="none"></path>
					</g>
					<path d="M176.3 504.1 L184.4 501.6 L180.1 494.2 L190.6 504.0 Z"></path>
					<g data-name="Common">
						<g fill="#FFC080" stroke="#33322E" data-name="Common">
							<rect x="927.8" y="0.0" height="32.0" width="85.0" data-name="Common"></rect>
						</g>
						<g transform="translate(927.75, 0)" font-family="Helvetica" font-size="12pt" font-weight="bold" font-style="italic" data-name="Common">
							<g transform="translate(8, 8)" fill="#33322E" text-align="center" data-name="Common">
								<text x="34.5" y="14.1" stroke="none" text-anchor="middle" data-name="Common">Common</text>
								
							</g>
						</g>
					</g>
					<g data-name="Measurables">
						<g fill="#FFC080" stroke="#33322E" data-name="Measurables">
							<rect x="732.3" y="72.0" height="32.0" width="112.0" data-name="Measurables"></rect>
						</g>
						<g transform="translate(732.25, 72)" font-family="Helvetica" font-size="12pt" font-weight="bold" font-style="italic" data-name="Measurables">
							<g transform="translate(8, 8)" fill="#33322E" text-align="center" data-name="Measurables">
								<text x="48.0" y="14.1" stroke="none" text-anchor="middle" data-name="Measurables">Measurables</text>
								
							</g>
						</g>
					</g>
					<g data-name="BaseMeasurements">
						<g fill="#FFC080" stroke="#33322E" data-name="BaseMeasurements">
							<rect x="695.3" y="0.0" height="32.0" width="165.0" data-name="BaseMeasurements"></rect>
						</g>
						<g transform="translate(695.25, 0)" font-family="Helvetica" font-size="12pt" font-weight="bold" font-style="italic" data-name="BaseMeasurements">
							<g transform="translate(8, 8)" fill="#33322E" text-align="center" data-name="BaseMeasurements">
								<text x="74.5" y="14.1" stroke="none" text-anchor="middle" data-name="BaseMeasurements">BaseMeasurements</text>
								
							</g>
						</g>
					</g>
					<g data-name="BaseQuantifiables">
						<g fill="#FFC080" stroke="#33322E" data-name="BaseQuantifiables">
							<rect x="711.3" y="144.0" height="32.0" width="154.0" data-name="BaseQuantifiables"></rect>
						</g>
						<g transform="translate(711.25, 144)" font-family="Helvetica" font-size="12pt" font-weight="bold" font-style="italic" data-name="BaseQuantifiables">
							<g transform="translate(8, 8)" fill="#33322E" text-align="center" data-name="BaseQuantifiables">
								<text x="69.0" y="14.1" stroke="none" text-anchor="middle" data-name="BaseQuantifiables">BaseQuantifiables</text>
								
							</g>
						</g>
					</g>
					<g data-name="Quantifiables">
						<g fill="#FFC080" stroke="#33322E" data-name="Quantifiables">
							<rect x="729.8" y="216.0" height="32.0" width="117.0" data-name="Quantifiables"></rect>
						</g>
						<g transform="translate(729.75, 216)" font-family="Helvetica" font-size="12pt" font-weight="bold" font-style="italic" data-name="Quantifiables">
							<g transform="translate(8, 8)" fill="#33322E" text-align="center" data-name="Quantifiables">
								<text x="50.5" y="14.1" stroke="none" text-anchor="middle" data-name="Quantifiables">Quantifiables</text>
								
							</g>
						</g>
					</g>
					<g data-name="BaseMeasures">
						<g fill="#FFC080" stroke="#33322E" data-name="BaseMeasures">
							<rect x="904.5" y="360.0" height="32.0" width="127.0" data-name="BaseMeasures"></rect>
						</g>
						<g transform="translate(904.5, 360)" font-family="Helvetica" font-size="12pt" font-weight="bold" font-style="italic" data-name="BaseMeasures">
							<g transform="translate(8, 8)" fill="#33322E" text-align="center" data-name="BaseMeasures">
								<text x="55.5" y="14.1" stroke="none" text-anchor="middle" data-name="BaseMeasures">BaseMeasures</text>
								
							</g>
						</g>
					</g>
					<g data-name="Spreads">
						<g fill="#FFC080" stroke="#33322E" data-name="Spreads">
							<rect x="669.3" y="288.0" height="32.0" width="79.0" data-name="Spreads"></rect>
						</g>
						<g transform="translate(669.25, 288)" font-family="Helvetica" font-size="12pt" font-weight="bold" font-style="italic" data-name="Spreads">
							<g transform="translate(8, 8)" fill="#33322E" text-align="center" data-name="Spreads">
								<text x="31.5" y="14.1" stroke="none" text-anchor="middle" data-name="Spreads">Spreads</text>
								
							</g>
						</g>
					</g>
					<g data-name="Shapes">
						<g fill="#FFC080" stroke="#33322E" data-name="Shapes">
							<rect x="365.3" y="360.0" height="32.0" width="72.0" data-name="Shapes"></rect>
						</g>
						<g transform="translate(365.25, 360)" font-family="Helvetica" font-size="12pt" font-weight="bold" font-style="italic" data-name="Shapes">
							<g transform="translate(8, 8)" fill="#33322E" text-align="center" data-name="Shapes">
								<text x="28.0" y="14.1" stroke="none" text-anchor="middle" data-name="Shapes">Shapes</text>
								
							</g>
						</g>
					</g>
					<g data-name="BaseRates">
						<g fill="#FFC080" stroke="#33322E" data-name="BaseRates">
							<rect x="919.5" y="720.0" height="32.0" width="97.0" data-name="BaseRates"></rect>
						</g>
						<g transform="translate(919.5, 720)" font-family="Helvetica" font-size="12pt" font-weight="bold" font-style="italic" data-name="BaseRates">
							<g transform="translate(8, 8)" fill="#33322E" text-align="center" data-name="BaseRates">
								<text x="40.5" y="14.1" stroke="none" text-anchor="middle" data-name="BaseRates">BaseRates</text>
								
							</g>
						</g>
					</g>
					<g data-name="SimpleShapes">
						<g fill="#FFFF80" stroke="#33322E" data-name="SimpleShapes">
							<rect x="169.5" y="504.0" height="32.0" width="124.0" data-name="SimpleShapes"></rect>
						</g>
						<g transform="translate(169.5, 504)" font-family="Helvetica" font-size="12pt" font-weight="bold" font-style="italic" data-name="SimpleShapes">
							<g transform="translate(8, 8)" fill="#33322E" text-align="center" data-name="SimpleShapes">
								<text x="54.0" y="14.1" stroke="none" text-anchor="middle" data-name="SimpleShapes">SimpleShapes</text>
								
							</g>
						</g>
					</g>
					<g data-name="ComplexShapes">
						<g fill="#FFFF80" stroke="#33322E" data-name="ComplexShapes">
							<rect x="408.0" y="576.0" height="32.0" width="139.0" data-name="ComplexShapes"></rect>
						</g>
						<g transform="translate(408, 576)" font-family="Helvetica" font-size="12pt" font-weight="bold" font-style="italic" data-name="ComplexShapes">
							<g transform="translate(8, 8)" fill="#33322E" text-align="center" data-name="ComplexShapes">
								<text x="61.5" y="14.1" stroke="none" text-anchor="middle" data-name="ComplexShapes">ComplexShapes</text>
								
							</g>
						</g>
					</g>
					<g data-name="Measurements">
						<g fill="#80FF80" stroke="#33322E" data-name="Measurements">
							<rect x="549.3" y="792.0" height="32.0" width="127.0" data-name="Measurements"></rect>
						</g>
						<g transform="translate(549.25, 792)" font-family="Helvetica" font-size="12pt" font-weight="bold" font-style="normal" data-name="Measurements">
							<g transform="translate(8, 8)" fill="#33322E" text-align="center" data-name="Measurements">
								<text x="55.5" y="14.1" stroke="none" text-anchor="middle" data-name="Measurements">Measurements</text>
								
							</g>
						</g>
					</g>
					<g data-name="Measures">
						<g fill="#80FF80" stroke="#33322E" data-name="Measures">
							<rect x="287.5" y="864.0" height="32.0" width="89.0" data-name="Measures"></rect>
						</g>
						<g transform="translate(287.5, 864)" font-family="Helvetica" font-size="12pt" font-weight="bold" font-style="normal" data-name="Measures">
							<g transform="translate(8, 8)" fill="#33322E" text-align="center" data-name="Measures">
								<text x="36.5" y="14.1" stroke="none" text-anchor="middle" data-name="Measures">Measures</text>
								
							</g>
						</g>
					</g>
					<g data-name="ShapeLimits">
						<g fill="#80FF80" stroke="#33322E" data-name="ShapeLimits">
							<rect x="278.8" y="432.0" height="32.0" width="110.0" data-name="ShapeLimits"></rect>
						</g>
						<g transform="translate(278.75, 432)" font-family="Helvetica" font-size="12pt" font-weight="bold" font-style="normal" data-name="ShapeLimits">
							<g transform="translate(8, 8)" fill="#33322E" text-align="center" data-name="ShapeLimits">
								<text x="47.0" y="14.1" stroke="none" text-anchor="middle" data-name="ShapeLimits">ShapeLimits</text>
								
							</g>
						</g>
					</g>
					<g data-name="RateComponents">
						<g fill="#80FF80" stroke="#33322E" data-name="RateComponents">
							<rect x="512.5" y="936.0" height="32.0" width="147.0" data-name="RateComponents"></rect>
						</g>
						<g transform="translate(512.5, 936)" font-family="Helvetica" font-size="12pt" font-weight="bold" font-style="normal" data-name="RateComponents">
							<g transform="translate(8, 8)" fill="#33322E" text-align="center" data-name="RateComponents">
								<text x="65.5" y="14.1" stroke="none" text-anchor="middle" data-name="RateComponents">RateComponents</text>
								
							</g>
						</g>
					</g>
					<g data-name="SimpleRates">
						<g fill="#80FF80" stroke="#33322E" data-name="SimpleRates">
							<rect x="1.0" y="792.0" height="32.0" width="111.0" data-name="SimpleRates"></rect>
						</g>
						<g transform="translate(1, 792)" font-family="Helvetica" font-size="12pt" font-weight="bold" font-style="normal" data-name="SimpleRates">
							<g transform="translate(8, 8)" fill="#33322E" text-align="center" data-name="SimpleRates">
								<text x="47.5" y="14.1" stroke="none" text-anchor="middle" data-name="SimpleRates">SimpleRates</text>
								
							</g>
						</g>
					</g>
					<g data-name="Rates">
						<g fill="#80FF80" stroke="#33322E" data-name="Rates">
							<rect x="613.3" y="1008.0" height="32.0" width="59.0" data-name="Rates"></rect>
						</g>
						<g transform="translate(613.25, 1008)" font-family="Helvetica" font-size="12pt" font-weight="bold" font-style="normal" data-name="Rates">
							<g transform="translate(8, 8)" fill="#33322E" text-align="center" data-name="Rates">
								<text x="21.5" y="14.1" stroke="none" text-anchor="middle" data-name="Rates">Rates</text>
								
							</g>
						</g>
					</g>
					<g data-name="BulkSpreads">
						<g fill="#80FF80" stroke="#33322E" data-name="BulkSpreads">
							<rect x="125.8" y="432.0" height="32.0" width="113.0" data-name="BulkSpreads"></rect>
						</g>
						<g transform="translate(125.75, 432)" font-family="Helvetica" font-size="12pt" font-weight="bold" font-style="normal" data-name="BulkSpreads">
							<g transform="translate(8, 8)" fill="#33322E" text-align="center" data-name="BulkSpreads">
								<text x="48.5" y="14.1" stroke="none" text-anchor="middle" data-name="BulkSpreads">BulkSpreads</text>
								
							</g>
						</g>
					</g>
					<g data-name="PlaneShapes">
						<g fill="#80FF80" stroke="#33322E" data-name="PlaneShapes">
							<rect x="56.5" y="576.0" height="32.0" width="115.0" data-name="PlaneShapes"></rect>
						</g>
						<g transform="translate(56.5, 576)" font-family="Helvetica" font-size="12pt" font-weight="bold" font-style="normal" data-name="PlaneShapes">
							<g transform="translate(8, 8)" fill="#33322E" text-align="center" data-name="PlaneShapes">
								<text x="49.5" y="14.1" stroke="none" text-anchor="middle" data-name="PlaneShapes">PlaneShapes</text>
								
							</g>
						</g>
					</g>
					<g data-name="DryBodies">
						<g fill="#80FF80" stroke="#33322E" data-name="DryBodies">
							<rect x="115.3" y="648.0" height="32.0" width="95.0" data-name="DryBodies"></rect>
						</g>
						<g transform="translate(115.25, 648)" font-family="Helvetica" font-size="12pt" font-weight="bold" font-style="normal" data-name="DryBodies">
							<g transform="translate(8, 8)" fill="#33322E" text-align="center" data-name="DryBodies">
								<text x="39.5" y="14.1" stroke="none" text-anchor="middle" data-name="DryBodies">DryBodies</text>
								
							</g>
						</g>
					</g>
					<g data-name="Masses">
						<g fill="#80FF80" stroke="#33322E" data-name="Masses">
							<rect x="0.0" y="720.0" height="32.0" width="73.0" data-name="Masses"></rect>
						</g>
						<g transform="translate(0, 720)" font-family="Helvetica" font-size="12pt" font-weight="bold" font-style="normal" data-name="Masses">
							<g transform="translate(8, 8)" fill="#33322E" text-align="center" data-name="Masses">
								<text x="28.5" y="14.1" stroke="none" text-anchor="middle" data-name="Masses">Masses</text>
								
							</g>
						</g>
					</g>
					<g data-name="Sections">
						<g fill="#80FF80" stroke="#33322E" data-name="Sections">
							<rect x="373.5" y="720.0" height="32.0" width="82.0" data-name="Sections"></rect>
						</g>
						<g transform="translate(373.5, 720)" font-family="Helvetica" font-size="12pt" font-weight="bold" font-style="normal" data-name="Sections">
							<g transform="translate(8, 8)" fill="#33322E" text-align="center" data-name="Sections">
								<text x="33.0" y="14.1" stroke="none" text-anchor="middle" data-name="Sections">Sections</text>
								
							</g>
						</g>
					</g>
					<g data-name="ComplexDryBodies">
						<g fill="#80FF80" stroke="#33322E" data-name="ComplexDryBodies">
							<rect x="317.5" y="648.0" height="32.0" width="162.0" data-name="ComplexDryBodies"></rect>
						</g>
						<g transform="translate(317.5, 648)" font-family="Helvetica" font-size="12pt" font-weight="bold" font-style="normal" data-name="ComplexDryBodies">
							<g transform="translate(8, 8)" fill="#33322E" text-align="center" data-name="ComplexDryBodies">
								<text x="73.0" y="14.1" stroke="none" text-anchor="middle" data-name="ComplexDryBodies">ComplexDryBodies</text>
								
							</g>
						</g>
					</g>
				</g>
			</g>
		</g>
	</g>
</svg>