<svg version="1.1" baseProfile="full" width="921.3" height="1096.0" viewBox="0 0 921.25 1096" xmlns="http://www.w3.org/2000/svg" xmlns:xlink="http://www.w3.org/1999/xlink" xmlns:ev="http://www.w3.org/2001/xml-events">
	<title >ProjectsInheritanceAndDependencies</title>
	<desc >#title: ProjectsInheritanceAndDependencies
	#.base: fill=#FFC080 bold italic
	#.abstract: fill=#FFFF80 bold italic
	#.concrete: fill=#80FF80 bold
	
	[&lt;base&gt;Common]
	[&lt;base&gt;Measurables]
	[&lt;base&gt;BaseMeasurements]
	[&lt;base&gt;BaseQuantifiables]
	[&lt;base&gt;Quantifiables]
	[&lt;base&gt;BaseMeasures]
	[&lt;base&gt;Spreads]
	[&lt;base&gt;Shapes]
	[&lt;base&gt;BaseRates]
	
	[&lt;abstract&gt;SimpleShapes]
	[&lt;abstract&gt;ComplexShapes]
	
	[&lt;concrete&gt;Measurements]
	[&lt;concrete&gt;Measures]
	[&lt;concrete&gt;ShapeLimits]
	[&lt;concrete&gt;RateComponents]
	[&lt;concrete&gt;SimpleRates]
	[&lt;concrete&gt;Rates]
	[&lt;concrete&gt;BulkSpreads]
	[&lt;concrete&gt;PlaneShapes]
	[&lt;concrete&gt;DryBodies]
	[&lt;concrete&gt;Masses]
	[&lt;concrete&gt;Sections]
	[&lt;concrete&gt;ComplexDryBodies]
	
	[Common]&lt;:-[Measurables]
	[Measurables]&lt;:-[BaseMeasurements]
	[BaseMeasurements]&lt;:-[Measurements]
	[Measurables]&lt;:-[BaseQuantifiables]
	[BaseQuantifiables]&lt;:-[Quantifiables]
	[BaseQuantifiables]&lt;:-[BaseRates]
	[BaseQuantifiables]&lt;:-[Masses]
	[Quantifiables]&lt;:-[BaseMeasures]
	[Quantifiables]&lt;:-[Spreads]
	[Spreads]&lt;:-[BulkSpreads]
	[Spreads]&lt;:-[Shapes]
	[SimpleShapes]&lt;:-[PlaneShapes]
	[SimpleShapes]&lt;:-[DryBodies]
	[BaseMeasures]&lt;:-[Measures]
	[BaseMeasures]&lt;:-[RateComponents]
	[BaseRates]&lt;:-[Rates]
	[BaseRates]&lt;:-[SimpleRates]
	[Shapes]&lt;:-[SimpleShapes]
	[Shapes]&lt;:-[ComplexShapes]
	[Shapes]&lt;:-[ShapeLimits]
	[ComplexShapes]&lt;:-[Sections]
	[ComplexShapes]&lt;:-[ComplexDryBodies]
	
	[Measurements]&lt;--[Measures]
	[RateComponents]--&gt;[Measures]
	[RateComponents]&lt;--[Rates]
	[Quantifiables]&lt;--[BaseRates]
	[Masses]--&gt;[SimpleRates]
	[DryBodies]&lt;--[Masses]
	[ComplexDryBodies]--&gt;[Sections]
	[Measures]&lt;--[SimpleRates]
	[PlaneShapes]&lt;--[DryBodies]
	[Sections]--&gt;[DryBodies]
	[Measures]&lt;--[BulkSpreads]
	[BulkSpreads]&lt;--[SimpleShapes]
	[BaseMeasures]&lt;--[Spreads]
	[BaseMeasurements]&lt;--[BaseMeasures]
	[SimpleShapes]&lt;--[ComplexShapes]
	[ShapeLimits]--&gt;[SimpleShapes]</desc>
	<g stroke-width="1.0" text-align="left" font="12pt Helvetica, Arial, sans-serif" font-size="12pt" font-family="Helvetica" font-weight="bold" font-style="normal">
		<g font-family="Helvetica" font-size="12pt" font-weight="bold" font-style="normal" stroke-width="3.0" stroke-linejoin="round" stroke-linecap="round" stroke="#33322E">
			<g stroke="transparent" fill="transparent">
				<rect x="0.0" y="0.0" height="1096.0" width="921.3" stroke="none"></rect>
			</g>
			<g transform="translate(8, 8)" fill="#33322E">
				<g transform="translate(20, 20)" fill="#33322E" font-family="Helvetica" font-size="12pt" font-weight="normal" font-style="normal">
					<path d="M418.3 45.3 L418.25 52 L418.25 72 L418.3 72.0 " fill="none"></path>
					<path d="M423.6 45.3 L418.3 45.3 L412.9 45.3 L418.3 32.0 Z"></path>
					<path d="M348.5 95.5 L84 124 L84 160 L84 160 L84 196 L84 196 L84 216 L84.0 216.0 " fill="none"></path>
					<path d="M349.1 100.8 L348.5 95.5 L347.9 90.2 L361.8 94.1 Z"></path>
					<path d="M68.6 259.7 L64 268 L64 304 L64 304 L64 340 L64 340 L64 360 L64.0 360.0 " fill="none"></path>
					<path d="M73.3 262.2 L68.6 259.7 L64.0 257.1 L75.1 248.0 Z"></path>
					<path d="M488.0 94.8 L787.25 124 L787.25 144 L787.3 144.0 " fill="none"></path>
					<path d="M488.5 89.5 L488.0 94.8 L487.5 100.1 L474.8 93.5 Z"></path>
					<path d="M696.1 175.8 L579 196 L579 216 L579.0 216.0 " fill="none"></path>
					<path d="M697.0 181.0 L696.1 175.8 L695.2 170.5 L709.3 173.5 Z"></path>
					<path d="M787.3 189.3 L787.25 196 L787.25 232 L787.25 232 L787.25 268 L787.25 268 L787.25 304 L787.25 304 L787.25 340 L787.25 340 L773.6388888888889 360 L773.6 360.0 " fill="none"></path>
					<path d="M792.6 189.3 L787.3 189.3 L781.9 189.3 L787.3 176.0 Z"></path>
					<path d="M832.2 181.8 L861.5 196 L861.5 232 L861.5 232 L861.5 268 L861.5 268 L861.5 304 L861.5 304 L861.5 340 L861.5 340 L861.5 376 L861.5 376 L861.5 412 L861.5 412 L861.5 448 L861.5 448 L861.5 484 L861.5 484 L861.5 520 L861.5 520 L861.5 556 L861.5 556 L861.5 592 L861.5 592 L861.5 628 L861.5 628 L861.5 664 L861.5 664 L861.5 700 L861.5 700 L861.5 736 L861.5 736 L861.5 772 L861.5 772 L861.5 808 L861.5 808 L861.5 844 L861.5 844 L861.5 880 L861.5 880 L861.5 916 L861.5 916 L498.25 948.6720799500313 L498.3 948.7 " fill="none"></path>
					<path d="M834.6 177.0 L832.2 181.8 L829.9 186.6 L820.3 176.0 Z"></path>
					<path d="M507.5 247.4 L411.5 268 L339.55555555555554 288 L339.6 288.0 " fill="none"></path>
					<path d="M508.6 252.6 L507.5 247.4 L506.3 242.2 L520.5 244.6 Z"></path>
					<path d="M579.0 261.3 L579 268 L579 304 L579 304 L579 340 L579 340 L475 366.0905923344948 L475.0 366.1 " fill="none"></path>
					<path d="M584.3 261.3 L579.0 261.3 L573.7 261.3 L579.0 248.0 Z"></path>
					<path d="M403.4 400.0 L387.25 412 L387.25 448 L387.25 448 L387.25 484 L387.25 484 L376.1388888888889 504 L376.1 504.0 " fill="none"></path>
					<path d="M406.6 404.2 L403.4 400.0 L400.2 395.7 L414.1 392.0 Z"></path>
					<path d="M487.9 390.3 L567.5 412 L598.0555555555555 432 L598.1 432.0 " fill="none"></path>
					<path d="M489.3 385.1 L487.9 390.3 L486.5 395.4 L475.0 386.8 Z"></path>
					<path d="M356.8 611.5 L296.75 628 L296.75 664 L296.75 664 L296.75 700 L296.75 700 L296.75 736 L296.75 736 L296.75 772 L296.75 772 L296.75 792 L296.8 792.0 " fill="none"></path>
					<path d="M358.2 616.7 L356.8 611.5 L355.4 606.4 L369.7 608.0 Z"></path>
					<path d="M412.5 619.6 L407.75 628 L407.75 664 L407.75 664 L407.75 700 L407.75 700 L407.75 736 L407.75 736 L407.75 772 L407.75 772 L407.75 808 L407.75 808 L407.75 844 L407.75 844 L437.47222222222223 864 L437.5 864.0 " fill="none"></path>
					<path d="M417.1 622.2 L412.5 619.6 L407.8 617.0 L419.0 608.0 Z"></path>
					<path d="M218.6 324.0 L168 340 L168 376 L168 376 L168 412 L168 412 L172.72222222222223 432 L172.7 432.0 " fill="none"></path>
					<path d="M220.2 329.1 L218.6 324.0 L217.0 318.9 L231.3 320.0 Z"></path>
					<path d="M282.0 333.3 L282 340 L282 360 L282.0 360.0 " fill="none"></path>
					<path d="M287.3 333.3 L282.0 333.3 L276.7 333.3 L282.0 320.0 Z"></path>
					<path d="M700.8 391.5 L619 412 L519.75 439.7514563106796 L519.8 439.8 " fill="none"></path>
					<path d="M702.1 396.7 L700.8 391.5 L699.5 386.3 L713.8 388.3 Z"></path>
					<path d="M781.1 403.0 L787.25 412 L787.25 448 L787.25 448 L787.25 484 L787.25 484 L787.25 520 L787.25 520 L787.25 556 L787.25 556 L787.25 592 L787.25 592 L787.25 628 L787.25 628 L787.25 664 L787.25 664 L787.25 700 L787.25 700 L787.25 736 L787.25 736 L787.25 772 L787.25 772 L787.25 808 L787.25 808 L787.25 844 L787.25 844 L787.25 880 L787.25 880 L787.25 916 L787.25 916 L787.25 952 L787.25 952 L787.25 988 L787.25 988 L610.5 1015.3383458646616 L610.5 1015.3 " fill="none"></path>
					<path d="M785.5 400.0 L781.1 403.0 L776.7 406.0 L773.6 392.0 Z"></path>
					<path d="M573.2 462.9 L503.5 484 L503.5 520 L503.5 520 L503.5 556 L503.5 556 L461.55555555555554 576 L461.6 576.0 " fill="none"></path>
					<path d="M574.8 468.0 L573.2 462.9 L571.7 457.8 L586.0 459.0 Z"></path>
					<path d="M603.0 474.8 L596.25 484 L596.25 520 L596.25 520 L596.25 556 L596.25 556 L596.25 592 L596.25 592 L596.25 628 L596.25 628 L581.8055555555555 648 L581.8 648.0 " fill="none"></path>
					<path d="M607.3 477.9 L603.0 474.8 L598.7 471.6 L610.8 464.0 Z"></path>
					<path d="M665.1 470.2 L691.75 484 L691.75 504 L691.8 504.0 " fill="none"></path>
					<path d="M667.6 465.4 L665.1 470.2 L662.6 474.9 L653.3 464.0 Z"></path>
					<path d="M531.8 686.8 L509.5 700 L509.5 736 L509.5 736 L509.5 772 L509.5 772 L543.25 792 L543.3 792.0 " fill="none"></path>
					<path d="M534.5 691.4 L531.8 686.8 L529.1 682.2 L543.3 680.0 Z"></path>
					<path d="M608.7 686.8 L631 700 L631 720 L631.0 720.0 " fill="none"></path>
					<path d="M611.4 682.2 L608.7 686.8 L606.0 691.4 L597.3 680.0 Z"></path>
					<g stroke-dasharray="6 6">
						<path d="M64.0 398.7 L64 412 L131.5 433.6 L131.5 433.6 " fill="none"></path>
					</g>
					<path d="M69.3 405.3 L64.0 398.7 L58.7 405.3 L64.0 392.0 Z"></path>
					<g stroke-dasharray="6 6">
						<path d="M272.2 392.0 L260 412 L219.73304191770694 429.36060468218625 L219.7 429.4 " fill="none"></path>
					</g>
					<path d="M223.7 421.8 L219.7 429.4 L228.0 431.6 L213.6 432.0 Z"></path>
					<g stroke-dasharray="6 6">
						<path d="M316.8 395.2 L347.25 412 L460.75 440.57342657342656 L460.8 440.6 " fill="none"></path>
					</g>
					<path d="M325.3 393.8 L316.8 395.2 L320.1 403.1 L311.0 392.0 Z"></path>
					<g stroke-dasharray="6 6">
						<path d="M601.7 252.5 L619 268 L619 304 L619 304 L619 340 L619 340 L713.75 363.72869565217394 L713.8 363.7 " fill="none"></path>
					</g>
					<path d="M610.3 253.0 L601.7 252.5 L603.1 260.9 L596.8 248.0 Z"></path>
					<g stroke-dasharray="6 6">
						<path d="M461.3 968.0 L461.25 988 L506.8362645718214 1005.5989868588265 L506.8 1005.6 " fill="none"></path>
					</g>
					<path d="M498.7 1008.2 L506.8 1005.6 L502.5 998.2 L513.1 1008.0 Z"></path>
					<g stroke-dasharray="6 6">
						<path d="M461.3 902.7 L461.25 916 L461.25 936 L461.3 936.0 " fill="none"></path>
					</g>
					<path d="M466.6 909.3 L461.3 902.7 L455.9 909.3 L461.3 896.0 Z"></path>
					<g stroke-dasharray="6 6">
						<path d="M631.0 752.0 L631 772 L602.9852768908945 788.6013173979884 L603.0 788.6 " fill="none"></path>
					</g>
					<path d="M606.0 780.6 L603.0 788.6 L611.4 789.8 L597.3 792.0 Z"></path>
					<g stroke-dasharray="6 6">
						<path d="M164.4 469.8 L156.5 484 L156.5 520 L156.5 520 L156.5 556 L156.5 556 L156.5 592 L156.5 592 L156.5 628 L156.5 628 L156.5 664 L156.5 664 L156.5 700 L156.5 700 L156.5 736 L156.5 736 L156.5 772 L156.5 772 L156.5 808 L156.5 808 L156.5 844 L156.5 844 L156.5 880 L156.5 880 L156.5 916 L156.5 916 L156.5 952 L156.5 952 L156.5 988 L156.5 988 L498.5 1018.9346733668342 L498.5 1018.9 " fill="none"></path>
					</g>
					<path d="M165.8 478.2 L164.4 469.8 L156.5 473.1 L167.6 464.0 Z"></path>
					<g stroke-dasharray="6 6">
						<path d="M296.8 830.7 L296.75 844 L413.25 869.4954407294833 L413.3 869.5 " fill="none"></path>
					</g>
					<path d="M302.1 837.3 L296.8 830.7 L291.4 837.3 L296.8 824.0 Z"></path>
					<g stroke-dasharray="6 6">
						<path d="M570.3 824.0 L570.25 844 L515.58033897226 862.0560348348499 L515.6 862.1 " fill="none"></path>
					</g>
					<path d="M520.2 854.9 L515.6 862.1 L523.6 865.0 L509.3 864.1 Z"></path>
					<g stroke-dasharray="6 6">
						<path d="M228.0 461.2 L316.75 484 L344.80555555555554 504 L344.8 504.0 " fill="none"></path>
					</g>
					<path d="M235.7 457.7 L228.0 461.2 L233.1 468.0 L221.5 459.6 Z"></path>
					<g stroke-dasharray="6 6">
						<path d="M367.3 542.7 L367.25 556 L401 576 L401.0 576.0 " fill="none"></path>
					</g>
					<path d="M372.6 549.3 L367.3 542.7 L361.9 549.3 L367.3 536.0 Z"></path>
					<g stroke-dasharray="6 6">
						<path d="M335.1 322.2 L387.25 340 L414.05555555555554 360 L414.1 360.0 " fill="none"></path>
					</g>
					<path d="M343.1 319.3 L335.1 322.2 L339.7 329.4 L328.8 320.0 Z"></path>
					<g stroke-dasharray="6 6">
						<path d="M116.6 251.4 L144.5 268 L220.88888888888889 288 L220.9 288.0 " fill="none"></path>
					</g>
					<path d="M125.1 250.2 L116.6 251.4 L119.6 259.4 L110.9 248.0 Z"></path>
					<g stroke-dasharray="6 6">
						<path d="M470.3 610.7 L509.5 628 L543.25 648 L543.3 648.0 " fill="none"></path>
					</g>
					<path d="M478.6 608.5 L470.3 610.7 L474.3 618.3 L464.2 608.0 Z"></path>
					<g stroke-dasharray="6 6">
						<path d="M691.8 536.0 L691.75 556 L497.1054201011473 582.5676014269524 L497.1 582.6 " fill="none"></path>
					</g>
					<path d="M503.0 576.4 L497.1 582.6 L504.4 587.0 L490.5 583.5 Z"></path>
					<g data-name="Common">
						<g fill="#FFC080" stroke="#33322E" data-name="Common">
							<rect x="375.8" y="0.0" height="32.0" width="85.0" data-name="Common"></rect>
						</g>
						<g transform="translate(375.75, 0)" font-family="Helvetica" font-size="12pt" font-weight="bold" font-style="italic" data-name="Common">
							<g transform="translate(8, 8)" fill="#33322E" text-align="center" data-name="Common">
								<text x="34.5" y="14.1" stroke="none" text-anchor="middle" data-name="Common">Common</text>
								
							</g>
						</g>
					</g>
					<g data-name="Measurables">
						<g fill="#FFC080" stroke="#33322E" data-name="Measurables">
							<rect x="361.8" y="72.0" height="32.0" width="113.0" data-name="Measurables"></rect>
						</g>
						<g transform="translate(361.75, 72)" font-family="Helvetica" font-size="12pt" font-weight="bold" font-style="italic" data-name="Measurables">
							<g transform="translate(8, 8)" fill="#33322E" text-align="center" data-name="Measurables">
								<text x="48.5" y="14.1" stroke="none" text-anchor="middle" data-name="Measurables">Measurables</text>
								
							</g>
						</g>
					</g>
					<g data-name="BaseMeasurements">
						<g fill="#FFC080" stroke="#33322E" data-name="BaseMeasurements">
							<rect x="1.0" y="216.0" height="32.0" width="166.0" data-name="BaseMeasurements"></rect>
						</g>
						<g transform="translate(1, 216)" font-family="Helvetica" font-size="12pt" font-weight="bold" font-style="italic" data-name="BaseMeasurements">
							<g transform="translate(8, 8)" fill="#33322E" text-align="center" data-name="BaseMeasurements">
								<text x="75.0" y="14.1" stroke="none" text-anchor="middle" data-name="BaseMeasurements">BaseMeasurements</text>
								
							</g>
						</g>
					</g>
					<g data-name="BaseQuantifiables">
						<g fill="#FFC080" stroke="#33322E" data-name="BaseQuantifiables">
							<rect x="709.3" y="144.0" height="32.0" width="156.0" data-name="BaseQuantifiables"></rect>
						</g>
						<g transform="translate(709.25, 144)" font-family="Helvetica" font-size="12pt" font-weight="bold" font-style="italic" data-name="BaseQuantifiables">
							<g transform="translate(8, 8)" fill="#33322E" text-align="center" data-name="BaseQuantifiables">
								<text x="70.0" y="14.1" stroke="none" text-anchor="middle" data-name="BaseQuantifiables">BaseQuantifiables</text>
								
							</g>
						</g>
					</g>
					<g data-name="Quantifiables">
						<g fill="#FFC080" stroke="#33322E" data-name="Quantifiables">
							<rect x="520.5" y="216.0" height="32.0" width="117.0" data-name="Quantifiables"></rect>
						</g>
						<g transform="translate(520.5, 216)" font-family="Helvetica" font-size="12pt" font-weight="bold" font-style="italic" data-name="Quantifiables">
							<g transform="translate(8, 8)" fill="#33322E" text-align="center" data-name="Quantifiables">
								<text x="50.5" y="14.1" stroke="none" text-anchor="middle" data-name="Quantifiables">Quantifiables</text>
								
							</g>
						</g>
					</g>
					<g data-name="BaseMeasures">
						<g fill="#FFC080" stroke="#33322E" data-name="BaseMeasures">
							<rect x="218.0" y="288.0" height="32.0" width="128.0" data-name="BaseMeasures"></rect>
						</g>
						<g transform="translate(218, 288)" font-family="Helvetica" font-size="12pt" font-weight="bold" font-style="italic" data-name="BaseMeasures">
							<g transform="translate(8, 8)" fill="#33322E" text-align="center" data-name="BaseMeasures">
								<text x="56.0" y="14.1" stroke="none" text-anchor="middle" data-name="BaseMeasures">BaseMeasures</text>
								
							</g>
						</g>
					</g>
					<g data-name="Spreads">
						<g fill="#FFC080" stroke="#33322E" data-name="Spreads">
							<rect x="396.0" y="360.0" height="32.0" width="79.0" data-name="Spreads"></rect>
						</g>
						<g transform="translate(396, 360)" font-family="Helvetica" font-size="12pt" font-weight="bold" font-style="italic" data-name="Spreads">
							<g transform="translate(8, 8)" fill="#33322E" text-align="center" data-name="Spreads">
								<text x="31.5" y="14.1" stroke="none" text-anchor="middle" data-name="Spreads">Spreads</text>
								
							</g>
						</g>
					</g>
					<g data-name="Shapes">
						<g fill="#FFC080" stroke="#33322E" data-name="Shapes">
							<rect x="586.0" y="432.0" height="32.0" width="73.0" data-name="Shapes"></rect>
						</g>
						<g transform="translate(586, 432)" font-family="Helvetica" font-size="12pt" font-weight="bold" font-style="italic" data-name="Shapes">
							<g transform="translate(8, 8)" fill="#33322E" text-align="center" data-name="Shapes">
								<text x="28.5" y="14.1" stroke="none" text-anchor="middle" data-name="Shapes">Shapes</text>
								
							</g>
						</g>
					</g>
					<g data-name="BaseRates">
						<g fill="#FFC080" stroke="#33322E" data-name="BaseRates">
							<rect x="713.8" y="360.0" height="32.0" width="98.0" data-name="BaseRates"></rect>
						</g>
						<g transform="translate(713.75, 360)" font-family="Helvetica" font-size="12pt" font-weight="bold" font-style="italic" data-name="BaseRates">
							<g transform="translate(8, 8)" fill="#33322E" text-align="center" data-name="BaseRates">
								<text x="41.0" y="14.1" stroke="none" text-anchor="middle" data-name="BaseRates">BaseRates</text>
								
							</g>
						</g>
					</g>
					<g data-name="SimpleShapes">
						<g fill="#FFFF80" stroke="#33322E" data-name="SimpleShapes">
							<rect x="365.5" y="576.0" height="32.0" width="125.0" data-name="SimpleShapes"></rect>
						</g>
						<g transform="translate(365.5, 576)" font-family="Helvetica" font-size="12pt" font-weight="bold" font-style="italic" data-name="SimpleShapes">
							<g transform="translate(8, 8)" fill="#33322E" text-align="center" data-name="SimpleShapes">
								<text x="54.5" y="14.1" stroke="none" text-anchor="middle" data-name="SimpleShapes">SimpleShapes</text>
								
							</g>
						</g>
					</g>
					<g data-name="ComplexShapes">
						<g fill="#FFFF80" stroke="#33322E" data-name="ComplexShapes">
							<rect x="500.3" y="648.0" height="32.0" width="140.0" data-name="ComplexShapes"></rect>
						</g>
						<g transform="translate(500.25, 648)" font-family="Helvetica" font-size="12pt" font-weight="bold" font-style="italic" data-name="ComplexShapes">
							<g transform="translate(8, 8)" fill="#33322E" text-align="center" data-name="ComplexShapes">
								<text x="62.0" y="14.1" stroke="none" text-anchor="middle" data-name="ComplexShapes">ComplexShapes</text>
								
							</g>
						</g>
					</g>
					<g data-name="Measurements">
						<g fill="#80FF80" stroke="#33322E" data-name="Measurements">
							<rect x="0.0" y="360.0" height="32.0" width="128.0" data-name="Measurements"></rect>
						</g>
						<g transform="translate(0, 360)" font-family="Helvetica" font-size="12pt" font-weight="bold" font-style="normal" data-name="Measurements">
							<g transform="translate(8, 8)" fill="#33322E" text-align="center" data-name="Measurements">
								<text x="56.0" y="14.1" stroke="none" text-anchor="middle" data-name="Measurements">Measurements</text>
								
							</g>
						</g>
					</g>
					<g data-name="Measures">
						<g fill="#80FF80" stroke="#33322E" data-name="Measures">
							<rect x="131.5" y="432.0" height="32.0" width="90.0" data-name="Measures"></rect>
						</g>
						<g transform="translate(131.5, 432)" font-family="Helvetica" font-size="12pt" font-weight="bold" font-style="normal" data-name="Measures">
							<g transform="translate(8, 8)" fill="#33322E" text-align="center" data-name="Measures">
								<text x="37.0" y="14.1" stroke="none" text-anchor="middle" data-name="Measures">Measures</text>
								
							</g>
						</g>
					</g>
					<g data-name="ShapeLimits">
						<g fill="#80FF80" stroke="#33322E" data-name="ShapeLimits">
							<rect x="636.3" y="504.0" height="32.0" width="111.0" data-name="ShapeLimits"></rect>
						</g>
						<g transform="translate(636.25, 504)" font-family="Helvetica" font-size="12pt" font-weight="bold" font-style="normal" data-name="ShapeLimits">
							<g transform="translate(8, 8)" fill="#33322E" text-align="center" data-name="ShapeLimits">
								<text x="47.5" y="14.1" stroke="none" text-anchor="middle" data-name="ShapeLimits">ShapeLimits</text>
								
							</g>
						</g>
					</g>
					<g data-name="RateComponents">
						<g fill="#80FF80" stroke="#33322E" data-name="RateComponents">
							<rect x="208.0" y="360.0" height="32.0" width="148.0" data-name="RateComponents"></rect>
						</g>
						<g transform="translate(208, 360)" font-family="Helvetica" font-size="12pt" font-weight="bold" font-style="normal" data-name="RateComponents">
							<g transform="translate(8, 8)" fill="#33322E" text-align="center" data-name="RateComponents">
								<text x="66.0" y="14.1" stroke="none" text-anchor="middle" data-name="RateComponents">RateComponents</text>
								
							</g>
						</g>
					</g>
					<g data-name="SimpleRates">
						<g fill="#80FF80" stroke="#33322E" data-name="SimpleRates">
							<rect x="498.5" y="1008.0" height="32.0" width="112.0" data-name="SimpleRates"></rect>
						</g>
						<g transform="translate(498.5, 1008)" font-family="Helvetica" font-size="12pt" font-weight="bold" font-style="normal" data-name="SimpleRates">
							<g transform="translate(8, 8)" fill="#33322E" text-align="center" data-name="SimpleRates">
								<text x="48.0" y="14.1" stroke="none" text-anchor="middle" data-name="SimpleRates">SimpleRates</text>
								
							</g>
						</g>
					</g>
					<g data-name="Rates">
						<g fill="#80FF80" stroke="#33322E" data-name="Rates">
							<rect x="460.8" y="432.0" height="32.0" width="59.0" data-name="Rates"></rect>
						</g>
						<g transform="translate(460.75, 432)" font-family="Helvetica" font-size="12pt" font-weight="bold" font-style="normal" data-name="Rates">
							<g transform="translate(8, 8)" fill="#33322E" text-align="center" data-name="Rates">
								<text x="21.5" y="14.1" stroke="none" text-anchor="middle" data-name="Rates">Rates</text>
								
							</g>
						</g>
					</g>
					<g data-name="BulkSpreads">
						<g fill="#80FF80" stroke="#33322E" data-name="BulkSpreads">
							<rect x="310.3" y="504.0" height="32.0" width="114.0" data-name="BulkSpreads"></rect>
						</g>
						<g transform="translate(310.25, 504)" font-family="Helvetica" font-size="12pt" font-weight="bold" font-style="normal" data-name="BulkSpreads">
							<g transform="translate(8, 8)" fill="#33322E" text-align="center" data-name="BulkSpreads">
								<text x="49.0" y="14.1" stroke="none" text-anchor="middle" data-name="BulkSpreads">BulkSpreads</text>
								
							</g>
						</g>
					</g>
					<g data-name="PlaneShapes">
						<g fill="#80FF80" stroke="#33322E" data-name="PlaneShapes">
							<rect x="238.8" y="792.0" height="32.0" width="116.0" data-name="PlaneShapes"></rect>
						</g>
						<g transform="translate(238.75, 792)" font-family="Helvetica" font-size="12pt" font-weight="bold" font-style="normal" data-name="PlaneShapes">
							<g transform="translate(8, 8)" fill="#33322E" text-align="center" data-name="PlaneShapes">
								<text x="50.0" y="14.1" stroke="none" text-anchor="middle" data-name="PlaneShapes">PlaneShapes</text>
								
							</g>
						</g>
					</g>
					<g data-name="DryBodies">
						<g fill="#80FF80" stroke="#33322E" data-name="DryBodies">
							<rect x="413.3" y="864.0" height="32.0" width="96.0" data-name="DryBodies"></rect>
						</g>
						<g transform="translate(413.25, 864)" font-family="Helvetica" font-size="12pt" font-weight="bold" font-style="normal" data-name="DryBodies">
							<g transform="translate(8, 8)" fill="#33322E" text-align="center" data-name="DryBodies">
								<text x="40.0" y="14.1" stroke="none" text-anchor="middle" data-name="DryBodies">DryBodies</text>
								
							</g>
						</g>
					</g>
					<g data-name="Masses">
						<g fill="#80FF80" stroke="#33322E" data-name="Masses">
							<rect x="424.3" y="936.0" height="32.0" width="74.0" data-name="Masses"></rect>
						</g>
						<g transform="translate(424.25, 936)" font-family="Helvetica" font-size="12pt" font-weight="bold" font-style="normal" data-name="Masses">
							<g transform="translate(8, 8)" fill="#33322E" text-align="center" data-name="Masses">
								<text x="29.0" y="14.1" stroke="none" text-anchor="middle" data-name="Masses">Masses</text>
								
							</g>
						</g>
					</g>
					<g data-name="Sections">
						<g fill="#80FF80" stroke="#33322E" data-name="Sections">
							<rect x="528.8" y="792.0" height="32.0" width="83.0" data-name="Sections"></rect>
						</g>
						<g transform="translate(528.75, 792)" font-family="Helvetica" font-size="12pt" font-weight="bold" font-style="normal" data-name="Sections">
							<g transform="translate(8, 8)" fill="#33322E" text-align="center" data-name="Sections">
								<text x="33.5" y="14.1" stroke="none" text-anchor="middle" data-name="Sections">Sections</text>
								
							</g>
						</g>
					</g>
					<g data-name="ComplexDryBodies">
						<g fill="#80FF80" stroke="#33322E" data-name="ComplexDryBodies">
							<rect x="549.5" y="720.0" height="32.0" width="163.0" data-name="ComplexDryBodies"></rect>
						</g>
						<g transform="translate(549.5, 720)" font-family="Helvetica" font-size="12pt" font-weight="bold" font-style="normal" data-name="ComplexDryBodies">
							<g transform="translate(8, 8)" fill="#33322E" text-align="center" data-name="ComplexDryBodies">
								<text x="73.5" y="14.1" stroke="none" text-anchor="middle" data-name="ComplexDryBodies">ComplexDryBodies</text>
								
							</g>
						</g>
					</g>
				</g>
			</g>
		</g>
	</g>
</svg>