<svg version="1.1" baseProfile="full" width="734.3" height="880.0" viewBox="0 0 734.25 880" xmlns="http://www.w3.org/2000/svg" xmlns:xlink="http://www.w3.org/1999/xlink" xmlns:ev="http://www.w3.org/2001/xml-events">
	<title >ProjectsDependencies</title>
	<desc >#title: ProjectsDependencies
	#.base: fill=#FFC080 bold italic
	#.abstract: fill=#FFFF80 bold italic
	#.concrete: fill=#80FF80 bold
	
	[&lt;base&gt;Common]
	[&lt;base&gt;Measurables]
	[&lt;base&gt;BaseMeasurements]
	[&lt;base&gt;BaseQuantifiables]
	[&lt;base&gt;Quantifiables]
	[&lt;base&gt;BaseMeasures]
	[&lt;base&gt;Spreads]
	[&lt;base&gt;Shapes]
	[&lt;base&gt;BaseRates]
	
	[&lt;abstract&gt;SimpleShapes]
	[&lt;abstract&gt;ComplexShapes]
	
	[&lt;concrete&gt;Measurements]
	[&lt;concrete&gt;Measures]
	[&lt;concrete&gt;ShapeLimits]
	[&lt;concrete&gt;RateComponents]
	[&lt;concrete&gt;SimpleRates]
	[&lt;concrete&gt;Rates]
	[&lt;concrete&gt;BulkSpreads]
	[&lt;concrete&gt;PlaneShapes]
	[&lt;concrete&gt;DryBodies]
	[&lt;concrete&gt;Masses]
	[&lt;concrete&gt;Sections]
	[&lt;concrete&gt;ComplexDryBodies]
	
	[Common]&lt;--[Measurables]
	[Measurables]&lt;--[BaseMeasurements]
	[BaseQuantifiables]--&gt;[Measurables]
	[Quantifiables]--&gt;[BaseQuantifiables]
	[BaseMeasurements]&lt;--[BaseMeasures]
	[Quantifiables]&lt;--[BaseMeasures]
	[BaseMeasures]&lt;--[Spreads]
	[Spreads]&lt;--[Shapes]
	[BaseMeasurements]&lt;--[Measurements]
	[Measurements]&lt;--[Measures]
	[BaseMeasures]&lt;--[Measures]
	[Quantifiables]&lt;--[BaseRates]
	[Measures]&lt;--[RateComponents]
	[Rates]--&gt;[BaseRates]
	[RateComponents]&lt;--[Rates]
	[BaseRates]&lt;--[SimpleRates]
	[Measures]&lt;--[SimpleRates]
	[Measures]&lt;--[BulkSpreads]
	[Spreads]&lt;--[BulkSpreads]
	[BulkSpreads]&lt;--[SimpleShapes]
	[Shapes]&lt;--[SimpleShapes]
	[SimpleShapes]&lt;--[PlaneShapes]
	[PlaneShapes]&lt;--[DryBodies]
	[SimpleRates]&lt;--[Masses]
	[DryBodies]&lt;--[Masses]
	[SimpleShapes]&lt;--[ComplexShapes]
	[ShapeLimits]--&gt;[SimpleShapes]
	[DryBodies]&lt;--[Sections]
	[ComplexShapes]&lt;--[Sections]
	[Sections]&lt;--[ComplexDryBodies]</desc>
	<g stroke-width="1.0" text-align="left" font="12pt Helvetica, Arial, sans-serif" font-size="12pt" font-family="Helvetica" font-weight="bold" font-style="normal">
		<g font-family="Helvetica" font-size="12pt" font-weight="bold" font-style="normal" stroke-width="3.0" stroke-linejoin="round" stroke-linecap="round" stroke="#33322E">
			<g stroke="transparent" fill="transparent">
				<rect x="0.0" y="0.0" height="880.0" width="734.3" stroke="none"></rect>
			</g>
			<g transform="translate(8, 8)" fill="#33322E">
				<g transform="translate(20, 20)" fill="#33322E" font-family="Helvetica" font-size="12pt" font-weight="normal" font-style="normal">
					<g stroke-dasharray="6 6">
						<path d="M130.5 110.7 L130.5 124 L184.38888888888889 144 L184.4 144.0 " fill="none"></path>
					</g>
					<path d="M135.8 117.3 L130.5 110.7 L125.2 117.3 L130.5 104.0 Z"></path>
					<g stroke-dasharray="6 6">
						<path d="M227.5 182.7 L227.5 196 L227.5 216 L227.5 216.0 " fill="none"></path>
					</g>
					<path d="M232.8 189.3 L227.5 182.7 L222.2 189.3 L227.5 176.0 Z"></path>
					<g stroke-dasharray="6 6">
						<path d="M291.0 104.0 L291 124 L261.52171710314536 140.7120973903428 L261.5 140.7 " fill="none"></path>
					</g>
					<path d="M264.7 132.8 L261.5 140.7 L270.0 142.1 L255.7 144.0 Z"></path>
					<g stroke-dasharray="6 6">
						<path d="M320.2 32.0 L291 52 L291 65.33333333333333 L291.0 65.3 " fill="none"></path>
					</g>
					<path d="M285.7 58.7 L291.0 65.3 L296.3 58.7 L291.0 72.0 Z"></path>
					<g stroke-dasharray="6 6">
						<path d="M279.3 250.2 L330 268 L399.44444444444446 288 L399.4 288.0 " fill="none"></path>
					</g>
					<path d="M287.4 247.4 L279.3 250.2 L283.9 257.5 L273.1 248.0 Z"></path>
					<g stroke-dasharray="6 6">
						<path d="M408.5 32.4 L486.25 52 L486.25 88 L486.25 88 L486.25 124 L486.25 124 L486.25 160 L486.25 160 L486.25 196 L486.25 196 L486.25 232 L486.25 232 L486.25 268 L486.25 268 L468.8888888888889 288 L468.9 288.0 " fill="none"></path>
					</g>
					<path d="M416.2 28.8 L408.5 32.4 L413.6 39.2 L402.0 30.8 Z"></path>
					<g stroke-dasharray="6 6">
						<path d="M467.1 325.8 L475 340 L475 360 L475.0 360.0 " fill="none"></path>
					</g>
					<path d="M475.0 329.1 L467.1 325.8 L465.7 334.2 L463.9 320.0 Z"></path>
					<g stroke-dasharray="6 6">
						<path d="M484.7 398.1 L490.75 412 L490.75 432 L490.8 432.0 " fill="none"></path>
					</g>
					<path d="M492.2 402.1 L484.7 398.1 L482.5 406.4 L482.0 392.0 Z"></path>
					<g stroke-dasharray="6 6">
						<path d="M183.0 250.6 L141.25 268 L141.25 288 L141.3 288.0 " fill="none"></path>
					</g>
					<path d="M178.9 258.1 L183.0 250.6 L174.8 248.2 L189.2 248.0 Z"></path>
					<g stroke-dasharray="6 6">
						<path d="M141.3 326.7 L141.25 340 L196.11111111111111 360 L196.1 360.0 " fill="none"></path>
					</g>
					<path d="M146.6 333.3 L141.3 326.7 L135.9 333.3 L141.3 320.0 Z"></path>
					<g stroke-dasharray="6 6">
						<path d="M389.7 321.7 L322.5 340 L276.6666666666667 360 L276.7 360.0 " fill="none"></path>
					</g>
					<path d="M384.6 328.6 L389.7 321.7 L381.8 318.3 L396.1 320.0 Z"></path>
					<g stroke-dasharray="6 6">
						<path d="M278.4 23.4 L27.75 52 L27.75 88 L27.75 88 L27.75 124 L27.75 124 L27.75 160 L27.75 160 L27.75 196 L27.75 196 L27.75 232 L27.75 232 L27.75 268 L27.75 268 L27.75 304 L27.75 304 L27.75 340 L27.75 340 L27.75 376 L27.75 376 L27.75 412 L27.75 412 L27.75 448 L27.75 448 L27.75 484 L27.75 484 L27.75 520 L27.75 520 L27.75 556 L27.75 556 L39.55555555555556 576 L39.6 576.0 " fill="none"></path>
					</g>
					<path d="M272.4 29.5 L278.4 23.4 L271.1 18.9 L285.0 22.7 Z"></path>
					<g stroke-dasharray="6 6">
						<path d="M190.1 394.3 L141.75 412 L141.75 432 L141.8 432.0 " fill="none"></path>
					</g>
					<path d="M185.6 401.6 L190.1 394.3 L182.0 391.6 L196.3 392.0 Z"></path>
					<g stroke-dasharray="6 6">
						<path d="M141.8 536.0 L141.75 556 L96.43715727351783 573.5877341040793 L96.4 573.6 " fill="none"></path>
					</g>
					<path d="M100.7 566.2 L96.4 573.6 L104.6 576.1 L90.2 576.0 Z"></path>
					<g stroke-dasharray="6 6">
						<path d="M141.8 470.7 L141.75 484 L141.75 504 L141.8 504.0 " fill="none"></path>
					</g>
					<path d="M147.1 477.3 L141.8 470.7 L136.4 477.3 L141.8 464.0 Z"></path>
					<g stroke-dasharray="6 6">
						<path d="M49.0 614.7 L49 628 L80.66666666666667 648 L80.7 648.0 " fill="none"></path>
					</g>
					<path d="M54.3 621.3 L49.0 614.7 L43.7 621.3 L49.0 608.0 Z"></path>
					<g stroke-dasharray="6 6">
						<path d="M249.7 398.1 L255.75 412 L255.75 448 L255.75 448 L255.75 484 L255.75 484 L255.75 520 L255.75 520 L255.75 556 L255.75 556 L255.75 592 L255.75 592 L255.75 628 L255.75 628 L162 650.5375626043406 L162.0 650.5 " fill="none"></path>
					</g>
					<path d="M257.2 402.1 L249.7 398.1 L247.5 406.4 L247.0 392.0 Z"></path>
					<g stroke-dasharray="6 6">
						<path d="M284.8 394.5 L327 412 L342.8333333333333 432 L342.8 432.0 " fill="none"></path>
					</g>
					<path d="M293.0 392.2 L284.8 394.5 L288.9 402.0 L278.7 392.0 Z"></path>
					<g stroke-dasharray="6 6">
						<path d="M437.5 395.0 L404 412 L377.05555555555554 432 L377.1 432.0 " fill="none"></path>
					</g>
					<path d="M434.0 402.8 L437.5 395.0 L429.1 393.3 L443.4 392.0 Z"></path>
					<g stroke-dasharray="6 6">
						<path d="M355.5 470.7 L355.5 484 L430.6388888888889 504 L430.6 504.0 " fill="none"></path>
					</g>
					<path d="M360.8 477.3 L355.5 470.7 L350.2 477.3 L355.5 464.0 Z"></path>
					<g stroke-dasharray="6 6">
						<path d="M490.8 470.7 L490.75 484 L490.75 504 L490.8 504.0 " fill="none"></path>
					</g>
					<path d="M496.1 477.3 L490.8 470.7 L485.4 477.3 L490.8 464.0 Z"></path>
					<g stroke-dasharray="6 6">
						<path d="M434.7 538.0 L379 556 L379 576 L379.0 576.0 " fill="none"></path>
					</g>
					<path d="M430.0 545.2 L434.7 538.0 L426.8 535.0 L441.1 536.0 Z"></path>
					<g stroke-dasharray="6 6">
						<path d="M379.0 614.7 L379 628 L379 648 L379.0 648.0 " fill="none"></path>
					</g>
					<path d="M384.3 621.3 L379.0 614.7 L373.7 621.3 L379.0 608.0 Z"></path>
					<g stroke-dasharray="6 6">
						<path d="M106.0 686.7 L106 700 L117.11111111111111 720 L117.1 720.0 " fill="none"></path>
					</g>
					<path d="M111.3 693.3 L106.0 686.7 L100.7 693.3 L106.0 680.0 Z"></path>
					<g stroke-dasharray="6 6">
						<path d="M350.4 683.8 L327 700 L163 729.3731343283582 L163.0 729.4 " fill="none"></path>
					</g>
					<path d="M348.0 692.0 L350.4 683.8 L341.9 683.2 L355.9 680.0 Z"></path>
					<g stroke-dasharray="6 6">
						<path d="M530.8 538.8 L567.25 556 L567.25 592 L567.25 592 L567.25 628 L567.25 628 L567.25 648 L567.3 648.0 " fill="none"></path>
					</g>
					<path d="M539.1 536.9 L530.8 538.8 L534.5 546.5 L524.8 536.0 Z"></path>
					<g stroke-dasharray="6 6">
						<path d="M622.8 464.0 L622.75 484 L555.8484254749181 502.24588396138597 L555.8 502.2 " fill="none"></path>
					</g>
					<path d="M560.9 495.3 L555.8 502.2 L563.7 505.6 L549.4 504.0 Z"></path>
					<g stroke-dasharray="6 6">
						<path d="M410.9 683.5 L438 700 L508.25 722.6308724832214 L508.3 722.6 " fill="none"></path>
					</g>
					<path d="M419.4 682.4 L410.9 683.5 L413.8 691.5 L405.2 680.0 Z"></path>
					<g stroke-dasharray="6 6">
						<path d="M567.3 686.7 L567.25 700 L557.5277777777778 720 L557.5 720.0 " fill="none"></path>
					</g>
					<path d="M572.6 693.3 L567.3 686.7 L561.9 693.3 L567.3 680.0 Z"></path>
					<g stroke-dasharray="6 6">
						<path d="M549.8 758.7 L549.75 772 L549.75 792 L549.8 792.0 " fill="none"></path>
					</g>
					<path d="M555.1 765.3 L549.8 758.7 L544.4 765.3 L549.8 752.0 Z"></path>
					<g data-name="Common">
						<g fill="#FFC080" stroke="#33322E" data-name="Common">
							<rect x="88.0" y="72.0" height="32.0" width="85.0" data-name="Common"></rect>
						</g>
						<g transform="translate(88, 72)" font-family="Helvetica" font-size="12pt" font-weight="bold" font-style="italic" data-name="Common">
							<g transform="translate(8, 8)" fill="#33322E" text-align="center" data-name="Common">
								<text x="34.5" y="14.1" stroke="none" text-anchor="middle" data-name="Common">Common</text>
								
							</g>
						</g>
					</g>
					<g data-name="Measurables">
						<g fill="#FFC080" stroke="#33322E" data-name="Measurables">
							<rect x="171.0" y="144.0" height="32.0" width="113.0" data-name="Measurables"></rect>
						</g>
						<g transform="translate(171, 144)" font-family="Helvetica" font-size="12pt" font-weight="bold" font-style="italic" data-name="Measurables">
							<g transform="translate(8, 8)" fill="#33322E" text-align="center" data-name="Measurables">
								<text x="48.5" y="14.1" stroke="none" text-anchor="middle" data-name="Measurables">Measurables</text>
								
							</g>
						</g>
					</g>
					<g data-name="BaseMeasurements">
						<g fill="#FFC080" stroke="#33322E" data-name="BaseMeasurements">
							<rect x="144.5" y="216.0" height="32.0" width="166.0" data-name="BaseMeasurements"></rect>
						</g>
						<g transform="translate(144.5, 216)" font-family="Helvetica" font-size="12pt" font-weight="bold" font-style="italic" data-name="BaseMeasurements">
							<g transform="translate(8, 8)" fill="#33322E" text-align="center" data-name="BaseMeasurements">
								<text x="75.0" y="14.1" stroke="none" text-anchor="middle" data-name="BaseMeasurements">BaseMeasurements</text>
								
							</g>
						</g>
					</g>
					<g data-name="BaseQuantifiables">
						<g fill="#FFC080" stroke="#33322E" data-name="BaseQuantifiables">
							<rect x="213.0" y="72.0" height="32.0" width="156.0" data-name="BaseQuantifiables"></rect>
						</g>
						<g transform="translate(213, 72)" font-family="Helvetica" font-size="12pt" font-weight="bold" font-style="italic" data-name="BaseQuantifiables">
							<g transform="translate(8, 8)" fill="#33322E" text-align="center" data-name="BaseQuantifiables">
								<text x="70.0" y="14.1" stroke="none" text-anchor="middle" data-name="BaseQuantifiables">BaseQuantifiables</text>
								
							</g>
						</g>
					</g>
					<g data-name="Quantifiables">
						<g fill="#FFC080" stroke="#33322E" data-name="Quantifiables">
							<rect x="285.0" y="0.0" height="32.0" width="117.0" data-name="Quantifiables"></rect>
						</g>
						<g transform="translate(285, 0)" font-family="Helvetica" font-size="12pt" font-weight="bold" font-style="italic" data-name="Quantifiables">
							<g transform="translate(8, 8)" fill="#33322E" text-align="center" data-name="Quantifiables">
								<text x="50.5" y="14.1" stroke="none" text-anchor="middle" data-name="Quantifiables">Quantifiables</text>
								
							</g>
						</g>
					</g>
					<g data-name="BaseMeasures">
						<g fill="#FFC080" stroke="#33322E" data-name="BaseMeasures">
							<rect x="391.0" y="288.0" height="32.0" width="128.0" data-name="BaseMeasures"></rect>
						</g>
						<g transform="translate(391, 288)" font-family="Helvetica" font-size="12pt" font-weight="bold" font-style="italic" data-name="BaseMeasures">
							<g transform="translate(8, 8)" fill="#33322E" text-align="center" data-name="BaseMeasures">
								<text x="56.0" y="14.1" stroke="none" text-anchor="middle" data-name="BaseMeasures">BaseMeasures</text>
								
							</g>
						</g>
					</g>
					<g data-name="Spreads">
						<g fill="#FFC080" stroke="#33322E" data-name="Spreads">
							<rect x="435.5" y="360.0" height="32.0" width="79.0" data-name="Spreads"></rect>
						</g>
						<g transform="translate(435.5, 360)" font-family="Helvetica" font-size="12pt" font-weight="bold" font-style="italic" data-name="Spreads">
							<g transform="translate(8, 8)" fill="#33322E" text-align="center" data-name="Spreads">
								<text x="31.5" y="14.1" stroke="none" text-anchor="middle" data-name="Spreads">Spreads</text>
								
							</g>
						</g>
					</g>
					<g data-name="Shapes">
						<g fill="#FFC080" stroke="#33322E" data-name="Shapes">
							<rect x="454.3" y="432.0" height="32.0" width="73.0" data-name="Shapes"></rect>
						</g>
						<g transform="translate(454.25, 432)" font-family="Helvetica" font-size="12pt" font-weight="bold" font-style="italic" data-name="Shapes">
							<g transform="translate(8, 8)" fill="#33322E" text-align="center" data-name="Shapes">
								<text x="28.5" y="14.1" stroke="none" text-anchor="middle" data-name="Shapes">Shapes</text>
								
							</g>
						</g>
					</g>
					<g data-name="BaseRates">
						<g fill="#FFC080" stroke="#33322E" data-name="BaseRates">
							<rect x="0.0" y="576.0" height="32.0" width="98.0" data-name="BaseRates"></rect>
						</g>
						<g transform="translate(0, 576)" font-family="Helvetica" font-size="12pt" font-weight="bold" font-style="italic" data-name="BaseRates">
							<g transform="translate(8, 8)" fill="#33322E" text-align="center" data-name="BaseRates">
								<text x="41.0" y="14.1" stroke="none" text-anchor="middle" data-name="BaseRates">BaseRates</text>
								
							</g>
						</g>
					</g>
					<g data-name="SimpleShapes">
						<g fill="#FFFF80" stroke="#33322E" data-name="SimpleShapes">
							<rect x="428.3" y="504.0" height="32.0" width="125.0" data-name="SimpleShapes"></rect>
						</g>
						<g transform="translate(428.25, 504)" font-family="Helvetica" font-size="12pt" font-weight="bold" font-style="italic" data-name="SimpleShapes">
							<g transform="translate(8, 8)" fill="#33322E" text-align="center" data-name="SimpleShapes">
								<text x="54.5" y="14.1" stroke="none" text-anchor="middle" data-name="SimpleShapes">SimpleShapes</text>
								
							</g>
						</g>
					</g>
					<g data-name="ComplexShapes">
						<g fill="#FFFF80" stroke="#33322E" data-name="ComplexShapes">
							<rect x="497.3" y="648.0" height="32.0" width="140.0" data-name="ComplexShapes"></rect>
						</g>
						<g transform="translate(497.25, 648)" font-family="Helvetica" font-size="12pt" font-weight="bold" font-style="italic" data-name="ComplexShapes">
							<g transform="translate(8, 8)" fill="#33322E" text-align="center" data-name="ComplexShapes">
								<text x="62.0" y="14.1" stroke="none" text-anchor="middle" data-name="ComplexShapes">ComplexShapes</text>
								
							</g>
						</g>
					</g>
					<g data-name="Measurements">
						<g fill="#80FF80" stroke="#33322E" data-name="Measurements">
							<rect x="77.3" y="288.0" height="32.0" width="128.0" data-name="Measurements"></rect>
						</g>
						<g transform="translate(77.25, 288)" font-family="Helvetica" font-size="12pt" font-weight="bold" font-style="normal" data-name="Measurements">
							<g transform="translate(8, 8)" fill="#33322E" text-align="center" data-name="Measurements">
								<text x="56.0" y="14.1" stroke="none" text-anchor="middle" data-name="Measurements">Measurements</text>
								
							</g>
						</g>
					</g>
					<g data-name="Measures">
						<g fill="#80FF80" stroke="#33322E" data-name="Measures">
							<rect x="195.0" y="360.0" height="32.0" width="90.0" data-name="Measures"></rect>
						</g>
						<g transform="translate(195, 360)" font-family="Helvetica" font-size="12pt" font-weight="bold" font-style="normal" data-name="Measures">
							<g transform="translate(8, 8)" fill="#33322E" text-align="center" data-name="Measures">
								<text x="37.0" y="14.1" stroke="none" text-anchor="middle" data-name="Measures">Measures</text>
								
							</g>
						</g>
					</g>
					<g data-name="ShapeLimits">
						<g fill="#80FF80" stroke="#33322E" data-name="ShapeLimits">
							<rect x="567.3" y="432.0" height="32.0" width="111.0" data-name="ShapeLimits"></rect>
						</g>
						<g transform="translate(567.25, 432)" font-family="Helvetica" font-size="12pt" font-weight="bold" font-style="normal" data-name="ShapeLimits">
							<g transform="translate(8, 8)" fill="#33322E" text-align="center" data-name="ShapeLimits">
								<text x="47.5" y="14.1" stroke="none" text-anchor="middle" data-name="ShapeLimits">ShapeLimits</text>
								
							</g>
						</g>
					</g>
					<g data-name="RateComponents">
						<g fill="#80FF80" stroke="#33322E" data-name="RateComponents">
							<rect x="67.8" y="432.0" height="32.0" width="148.0" data-name="RateComponents"></rect>
						</g>
						<g transform="translate(67.75, 432)" font-family="Helvetica" font-size="12pt" font-weight="bold" font-style="normal" data-name="RateComponents">
							<g transform="translate(8, 8)" fill="#33322E" text-align="center" data-name="RateComponents">
								<text x="66.0" y="14.1" stroke="none" text-anchor="middle" data-name="RateComponents">RateComponents</text>
								
							</g>
						</g>
					</g>
					<g data-name="SimpleRates">
						<g fill="#80FF80" stroke="#33322E" data-name="SimpleRates">
							<rect x="50.0" y="648.0" height="32.0" width="112.0" data-name="SimpleRates"></rect>
						</g>
						<g transform="translate(50, 648)" font-family="Helvetica" font-size="12pt" font-weight="bold" font-style="normal" data-name="SimpleRates">
							<g transform="translate(8, 8)" fill="#33322E" text-align="center" data-name="SimpleRates">
								<text x="48.0" y="14.1" stroke="none" text-anchor="middle" data-name="SimpleRates">SimpleRates</text>
								
							</g>
						</g>
					</g>
					<g data-name="Rates">
						<g fill="#80FF80" stroke="#33322E" data-name="Rates">
							<rect x="111.8" y="504.0" height="32.0" width="60.0" data-name="Rates"></rect>
						</g>
						<g transform="translate(111.75, 504)" font-family="Helvetica" font-size="12pt" font-weight="bold" font-style="normal" data-name="Rates">
							<g transform="translate(8, 8)" fill="#33322E" text-align="center" data-name="Rates">
								<text x="22.0" y="14.1" stroke="none" text-anchor="middle" data-name="Rates">Rates</text>
								
							</g>
						</g>
					</g>
					<g data-name="BulkSpreads">
						<g fill="#80FF80" stroke="#33322E" data-name="BulkSpreads">
							<rect x="298.5" y="432.0" height="32.0" width="114.0" data-name="BulkSpreads"></rect>
						</g>
						<g transform="translate(298.5, 432)" font-family="Helvetica" font-size="12pt" font-weight="bold" font-style="normal" data-name="BulkSpreads">
							<g transform="translate(8, 8)" fill="#33322E" text-align="center" data-name="BulkSpreads">
								<text x="49.0" y="14.1" stroke="none" text-anchor="middle" data-name="BulkSpreads">BulkSpreads</text>
								
							</g>
						</g>
					</g>
					<g data-name="PlaneShapes">
						<g fill="#80FF80" stroke="#33322E" data-name="PlaneShapes">
							<rect x="321.0" y="576.0" height="32.0" width="116.0" data-name="PlaneShapes"></rect>
						</g>
						<g transform="translate(321, 576)" font-family="Helvetica" font-size="12pt" font-weight="bold" font-style="normal" data-name="PlaneShapes">
							<g transform="translate(8, 8)" fill="#33322E" text-align="center" data-name="PlaneShapes">
								<text x="50.0" y="14.1" stroke="none" text-anchor="middle" data-name="PlaneShapes">PlaneShapes</text>
								
							</g>
						</g>
					</g>
					<g data-name="DryBodies">
						<g fill="#80FF80" stroke="#33322E" data-name="DryBodies">
							<rect x="331.0" y="648.0" height="32.0" width="96.0" data-name="DryBodies"></rect>
						</g>
						<g transform="translate(331, 648)" font-family="Helvetica" font-size="12pt" font-weight="bold" font-style="normal" data-name="DryBodies">
							<g transform="translate(8, 8)" fill="#33322E" text-align="center" data-name="DryBodies">
								<text x="40.0" y="14.1" stroke="none" text-anchor="middle" data-name="DryBodies">DryBodies</text>
								
							</g>
						</g>
					</g>
					<g data-name="Masses">
						<g fill="#80FF80" stroke="#33322E" data-name="Masses">
							<rect x="89.0" y="720.0" height="32.0" width="74.0" data-name="Masses"></rect>
						</g>
						<g transform="translate(89, 720)" font-family="Helvetica" font-size="12pt" font-weight="bold" font-style="normal" data-name="Masses">
							<g transform="translate(8, 8)" fill="#33322E" text-align="center" data-name="Masses">
								<text x="29.0" y="14.1" stroke="none" text-anchor="middle" data-name="Masses">Masses</text>
								
							</g>
						</g>
					</g>
					<g data-name="Sections">
						<g fill="#80FF80" stroke="#33322E" data-name="Sections">
							<rect x="508.3" y="720.0" height="32.0" width="83.0" data-name="Sections"></rect>
						</g>
						<g transform="translate(508.25, 720)" font-family="Helvetica" font-size="12pt" font-weight="bold" font-style="normal" data-name="Sections">
							<g transform="translate(8, 8)" fill="#33322E" text-align="center" data-name="Sections">
								<text x="33.5" y="14.1" stroke="none" text-anchor="middle" data-name="Sections">Sections</text>
								
							</g>
						</g>
					</g>
					<g data-name="ComplexDryBodies">
						<g fill="#80FF80" stroke="#33322E" data-name="ComplexDryBodies">
							<rect x="467.8" y="792.0" height="32.0" width="164.0" data-name="ComplexDryBodies"></rect>
						</g>
						<g transform="translate(467.75, 792)" font-family="Helvetica" font-size="12pt" font-weight="bold" font-style="normal" data-name="ComplexDryBodies">
							<g transform="translate(8, 8)" fill="#33322E" text-align="center" data-name="ComplexDryBodies">
								<text x="74.0" y="14.1" stroke="none" text-anchor="middle" data-name="ComplexDryBodies">ComplexDryBodies</text>
								
							</g>
						</g>
					</g>
				</g>
			</g>
		</g>
	</g>
</svg>