<svg version="1.1" baseProfile="full" width="863.5" height="939.0" viewbox="0 0 863.5 939" xmlns="http://www.w3.org/2000/svg" xmlns:xlink="http://www.w3.org/1999/xlink" xmlns:ev="http://www.w3.org/2001/xml-events">
		<title >ProjectsDependencies</title>
	<desc >#title: ProjectsDependencies
	#.base: fill=orange dashed bold italic
	#.abstract: fill=yellow bold italic
	#.concrete: fill=lime bold
	
	[&lt;base&gt;Common]
	[&lt;base&gt;Measurables]
	[&lt;base&gt;BaseMeasurements]
	[&lt;base&gt;BaseQuantifiables]
	[&lt;base&gt;Quantifiables]
	[&lt;base&gt;BaseMeasures]
	[&lt;base&gt;Spreads]
	[&lt;base&gt;Shapes]
	[&lt;base&gt;BaseRates]
	
	[&lt;abstract&gt;SimpleShapes]
	[&lt;abstract&gt;ComplexShapes]
	[&lt;abstract&gt;SimpleRates]
	
	[&lt;concrete&gt;Measurements]
	[&lt;concrete&gt;Measures]
	[&lt;concrete&gt;ShapeLimits]
	[&lt;concrete&gt;RateComponents]
	[&lt;concrete&gt;Rates]
	[&lt;concrete&gt;Proportions]
	[&lt;concrete&gt;ProportionLimits]
	[&lt;concrete&gt;BulkSpreads]
	[&lt;concrete&gt;PlaneShapes]
	[&lt;concrete&gt;DryBodies]
	[&lt;concrete&gt;Masses]
	[&lt;concrete&gt;Sections]
	[&lt;concrete&gt;ComplexDryBodies]
	
	[Common]&lt;--[Measurables]
	[Measurables]&lt;--[BaseMeasurements]
	[BaseQuantifiables]--&gt;[Measurables]
	[Quantifiables]--&gt;[BaseQuantifiables]
	[BaseMeasures]--&gt;[BaseMeasurements]
	[BaseMeasures]--&gt;[Quantifiables]
	[BaseMeasures]&lt;--[Spreads]
	[Spreads]&lt;--[Shapes]
	[BaseMeasurements]&lt;--[Measurements]
	[Measurements]&lt;--[Measures]
	[BaseMeasures]&lt;--[Measures]
	[BaseMeasures]&lt;--[BaseRates]
	[Measures]&lt;--[RateComponents]
	[Rates]--&gt;[BaseRates]
	[RateComponents]&lt;--[Rates]
	[BaseRates]&lt;--[SimpleRates]
	[SimpleRates]&lt;--[ProportionLimits]
	[Proportions]--&gt;[SimpleRates]
	[Measures]&lt;--[Proportions]
	[Measures]&lt;--[BulkSpreads]
	[Spreads]&lt;--[BulkSpreads]
	[BulkSpreads]&lt;--[SimpleShapes]
	[Shapes]&lt;--[SimpleShapes]
	[SimpleShapes]&lt;--[PlaneShapes]
	[PlaneShapes]&lt;--[DryBodies]
	[Proportions]&lt;--[Masses]
	[DryBodies]&lt;--[Masses]
	[SimpleShapes]&lt;--[ComplexShapes]
	[ShapeLimits]--&gt;[SimpleShapes]
	[DryBodies]&lt;--[Sections]
	[ComplexShapes]&lt;--[Sections]
	[Sections]&lt;--[ComplexDryBodies]</desc>
	<g stroke-width="1.0" text-align="left" font="12pt Helvetica, Arial, sans-serif" font-size="12pt" font-family="Helvetica" font-weight="bold" font-style="normal">
			<g font-family="Helvetica" font-size="12pt" font-weight="bold" font-style="normal" stroke-width="3.0" stroke-linejoin="round" stroke-linecap="round" stroke="#33322E">
				<g stroke="transparent" fill="transparent">
					<rect x="0.0" y="0.0" height="939.0" width="863.5" stroke="none"></rect>
				</g>
			<g transform="translate(8, 8)" fill="#33322E">
					<g transform="translate(20, 20)" fill="#33322E" font-family="Helvetica" font-size="12pt" font-weight="normal" font-style="normal">
						<g stroke-dasharray="6 6">
							<path d="M120.3 179.7 L120.25 193 L165.4612676056338 213 L165.5 213.0 " fill="none"></path>
						</g>
					<path d="M125.6 186.3 L120.3 179.7 L114.9 186.3 L120.3 173.0 Z"></path>
					<g stroke-dasharray="6 6">
							<path d="M200.5 250.7 L200.5 264 L247.2605633802817 284 L247.3 284.0 " fill="none"></path>
						</g>
					<path d="M205.8 257.3 L200.5 250.7 L195.2 257.3 L200.5 244.0 Z"></path>
					<g stroke-dasharray="6 6">
							<path d="M280.8 173.0 L280.75 193 L241.6354995193467 210.30298775156626 L241.6 210.3 " fill="none"></path>
						</g>
					<path d="M245.6 202.7 L241.6 210.3 L249.9 212.5 L235.5 213.0 Z"></path>
					<g stroke-dasharray="6 6">
							<path d="M280.8 102.0 L280.75 122 L280.75 135.33333333333334 L280.8 135.3 " fill="none"></path>
						</g>
					<path d="M275.4 128.7 L280.8 135.3 L286.1 128.7 L280.8 142.0 Z"></path>
					<g stroke-dasharray="6 6">
							<path d="M412.3 31.0 L398.75 51 L398.75 86.5 L398.75 86.5 L398.75 122 L398.75 122 L398.75 157.5 L398.75 157.5 L398.75 193 L398.75 193 L398.75 228.5 L398.75 228.5 L398.75 264 L398.75 264 L340.19168465298065 282.0374854214246 L340.2 282.0 " fill="none"></path>
						</g>
					<path d="M345.0 275.0 L340.2 282.0 L348.1 285.2 L333.8 284.0 Z"></path>
					<g stroke-dasharray="6 6">
							<path d="M360.8 31.0 L280.75 51 L280.75 64.33333333333333 L280.8 64.3 " fill="none"></path>
						</g>
					<path d="M275.4 57.7 L280.8 64.3 L286.1 57.7 L280.8 71.0 Z"></path>
					<g stroke-dasharray="6 6">
							<path d="M493.3 28.2 L620 51 L620 86.5 L620 86.5 L620 122 L620 122 L620 157.5 L620 157.5 L620 193 L620 193 L620 228.5 L620 228.5 L620 264 L620 264 L620 299.5 L620 299.5 L620 335 L620 335 L620 370.5 L620 370.5 L620 406 L620 406 L620 426 L620.0 426.0 " fill="none"></path>
						</g>
					<path d="M500.8 24.1 L493.3 28.2 L498.9 34.6 L486.8 27.0 Z"></path>
					<g stroke-dasharray="6 6">
							<path d="M620.0 463.7 L620 477 L620 497 L620.0 497.0 " fill="none"></path>
						</g>
					<path d="M625.3 470.3 L620.0 463.7 L614.7 470.3 L620.0 457.0 Z"></path>
					<g stroke-dasharray="6 6">
							<path d="M283.5 321.7 L283.5 335 L283.5 355 L283.5 355.0 " fill="none"></path>
						</g>
					<path d="M288.8 328.3 L283.5 321.7 L278.2 328.3 L283.5 315.0 Z"></path>
					<g stroke-dasharray="6 6">
							<path d="M283.5 392.7 L283.5 406 L318.1478873239437 426 L318.1 426.0 " fill="none"></path>
						</g>
					<path d="M288.8 399.3 L283.5 392.7 L278.2 399.3 L283.5 386.0 Z"></path>
					<g stroke-dasharray="6 6">
							<path d="M453.5 34.5 L480.25 51 L480.25 86.5 L480.25 86.5 L480.25 122 L480.25 122 L480.25 157.5 L480.25 157.5 L480.25 193 L480.25 193 L480.25 228.5 L480.25 228.5 L480.25 264 L480.25 264 L480.25 299.5 L480.25 299.5 L480.25 335 L480.25 335 L480.25 370.5 L480.25 370.5 L480.25 406 L480.25 406 L390 429.68853974122 L390.0 429.7 " fill="none"></path>
						</g>
					<path d="M462.0 33.5 L453.5 34.5 L456.4 42.5 L447.9 31.0 Z"></path>
					<g stroke-dasharray="6 6">
							<path d="M352.1 21.7 L17.5 51 L17.5 86.5 L17.5 86.5 L17.5 122 L17.5 122 L17.5 157.5 L17.5 157.5 L17.5 193 L17.5 193 L17.5 228.5 L17.5 228.5 L17.5 264 L17.5 264 L17.5 299.5 L17.5 299.5 L17.5 335 L17.5 335 L17.5 370.5 L17.5 370.5 L17.5 406 L17.5 406 L17.5 441.5 L17.5 441.5 L17.5 477 L17.5 477 L17.5 512.5 L17.5 512.5 L17.5 548 L17.5 548 L17.5 583.5 L17.5 583.5 L17.5 619 L17.5 619 L48.485915492957744 639 L48.5 639.0 " fill="none"></path>
						</g>
					<path d="M345.9 27.6 L352.1 21.7 L345.0 17.0 L358.8 21.1 Z"></path>
					<g stroke-dasharray="6 6">
							<path d="M293.4 450.1 L131.5 477 L131.5 497 L131.5 497.0 " fill="none"></path>
						</g>
					<path d="M287.7 456.4 L293.4 450.1 L286.0 445.9 L300.0 449.0 Z"></path>
					<g stroke-dasharray="6 6">
							<path d="M131.5 599.0 L131.5 619 L103.97290700884525 635.5629118845084 L104.0 635.6 " fill="none"></path>
						</g>
					<path d="M106.9 627.6 L104.0 635.6 L112.4 636.7 L98.3 639.0 Z"></path>
					<g stroke-dasharray="6 6">
							<path d="M131.5 534.7 L131.5 548 L131.5 568 L131.5 568.0 " fill="none"></path>
						</g>
					<path d="M136.8 541.3 L131.5 534.7 L126.2 541.3 L131.5 528.0 Z"></path>
					<g stroke-dasharray="6 6">
							<path d="M72.5 676.7 L72.5 690 L72.5 710 L72.5 710.0 " fill="none"></path>
						</g>
					<path d="M77.8 683.3 L72.5 676.7 L67.2 683.3 L72.5 670.0 Z"></path>
					<g stroke-dasharray="6 6">
							<path d="M72.5 747.7 L72.5 761 L72.5 781 L72.5 781.0 " fill="none"></path>
						</g>
					<path d="M77.8 754.3 L72.5 747.7 L67.2 754.3 L72.5 741.0 Z"></path>
					<g stroke-dasharray="6 6">
							<path d="M278.5 669.9 L208.5 690 L134.95052990108414 709.1985749155258 L135.0 709.2 " fill="none"></path>
						</g>
					<path d="M140.1 702.4 L135.0 709.2 L142.7 712.7 L128.5 710.9 Z"></path>
					<g stroke-dasharray="6 6">
							<path d="M337.0 463.3 L332 477 L332 512.5 L332 512.5 L332 548 L332 548 L332 583.5 L332 583.5 L332 619 L332 619 L332 639 L332.0 639.0 " fill="none"></path>
						</g>
					<path d="M339.7 471.4 L337.0 463.3 L329.7 467.7 L339.3 457.0 Z"></path>
					<g stroke-dasharray="6 6">
							<path d="M396.3 459.0 L449.25 477 L462.9119718309859 497 L462.9 497.0 " fill="none"></path>
						</g>
					<path d="M404.3 456.1 L396.3 459.0 L400.9 466.2 L390.0 456.8 Z"></path>
					<g stroke-dasharray="6 6">
							<path d="M574.2 457.8 L520.25 477 L493.9119718309859 497 L493.9 497.0 " fill="none"></path>
						</g>
					<path d="M569.7 465.1 L574.2 457.8 L566.2 455.0 L580.5 455.6 Z"></path>
					<g stroke-dasharray="6 6">
							<path d="M473.5 534.7 L473.5 548 L548.7112676056338 568 L548.7 568.0 " fill="none"></path>
						</g>
					<path d="M478.8 541.3 L473.5 534.7 L468.2 541.3 L473.5 528.0 Z"></path>
					<g stroke-dasharray="6 6">
							<path d="M620.0 534.7 L620 548 L612.6760563380282 568 L612.7 568.0 " fill="none"></path>
						</g>
					<path d="M625.3 541.3 L620.0 534.7 L614.7 541.3 L620.0 528.0 Z"></path>
					<g stroke-dasharray="6 6">
							<path d="M552.4 601.0 L496.5 619 L496.5 639 L496.5 639.0 " fill="none"></path>
						</g>
					<path d="M547.7 608.2 L552.4 601.0 L544.4 598.0 L558.8 599.0 Z"></path>
					<g stroke-dasharray="6 6">
							<path d="M496.5 676.7 L496.5 690 L496.5 710 L496.5 710.0 " fill="none"></path>
						</g>
					<path d="M501.8 683.3 L496.5 676.7 L491.2 683.3 L496.5 670.0 Z"></path>
					<g stroke-dasharray="6 6">
							<path d="M356.8 674.1 L376.75 690 L376.75 725.5 L376.75 725.5 L376.75 761 L376.75 761 L388.0176056338028 781 L388.0 781.0 " fill="none"></path>
						</g>
					<path d="M365.3 674.1 L356.8 674.1 L358.7 682.5 L351.5 670.0 Z"></path>
					<g stroke-dasharray="6 6">
							<path d="M466.5 744.6 L440.75 761 L415.9612676056338 781 L416.0 781.0 " fill="none"></path>
						</g>
					<path d="M463.8 752.7 L466.5 744.6 L458.0 743.7 L472.2 741.0 Z"></path>
					<g stroke-dasharray="6 6">
							<path d="M647.6 601.7 L686 619 L686 654.5 L686 654.5 L686 690 L686 690 L686 710 L686.0 710.0 " fill="none"></path>
						</g>
					<path d="M655.8 599.6 L647.6 601.7 L651.5 609.3 L641.5 599.0 Z"></path>
					<g stroke-dasharray="6 6">
							<path d="M752.0 528.0 L752 548 L675.9754206808685 566.6129142470977 L676.0 566.6 " fill="none"></path>
						</g>
					<path d="M681.2 559.8 L676.0 566.6 L683.7 570.2 L669.5 568.2 Z"></path>
					<g stroke-dasharray="6 6">
							<path d="M528.0 744.4 L555.5 761 L624.5 783.1674208144797 L624.5 783.2 " fill="none"></path>
						</g>
					<path d="M536.4 743.3 L528.0 744.4 L530.9 752.4 L522.3 741.0 Z"></path>
					<g stroke-dasharray="6 6">
							<path d="M686.0 747.7 L686 761 L674.7323943661972 781 L674.7 781.0 " fill="none"></path>
						</g>
					<path d="M691.3 754.3 L686.0 747.7 L680.7 754.3 L686.0 741.0 Z"></path>
					<g stroke-dasharray="6 6">
							<path d="M666.0 818.7 L666 832 L666 852 L666.0 852.0 " fill="none"></path>
						</g>
					<path d="M671.3 825.3 L666.0 818.7 L660.7 825.3 L666.0 812.0 Z"></path>
					<g data-name="Common">
							<g fill="orange" stroke="#33322E" stroke-dasharray="6 6" data-name="Common">
								<rect x="77.8" y="142.0" height="31.0" width="85.0" data-name="Common"></rect>
							</g>
						<g transform="translate(77.75, 142)" font-family="Helvetica" font-size="12pt" font-weight="bold" font-style="italic" data-name="Common">
								<g transform="translate(8, 8)" fill="#33322E" text-align="center" data-name="Common">
									<text x="34.5" y="13.5" stroke="none" text-anchor="middle" data-name="Common">Common</text>
								
								</g>
							</g>
						</g>
					<g data-name="Measurables">
							<g fill="orange" stroke="#33322E" stroke-dasharray="6 6" data-name="Measurables">
								<rect x="144.0" y="213.0" height="31.0" width="113.0" data-name="Measurables"></rect>
							</g>
						<g transform="translate(144, 213)" font-family="Helvetica" font-size="12pt" font-weight="bold" font-style="italic" data-name="Measurables">
								<g transform="translate(8, 8)" fill="#33322E" text-align="center" data-name="Measurables">
									<text x="48.5" y="13.5" stroke="none" text-anchor="middle" data-name="Measurables">Measurables</text>
								
								</g>
							</g>
						</g>
					<g data-name="BaseMeasurements">
							<g fill="orange" stroke="#33322E" stroke-dasharray="6 6" data-name="BaseMeasurements">
								<rect x="200.5" y="284.0" height="31.0" width="166.0" data-name="BaseMeasurements"></rect>
							</g>
						<g transform="translate(200.5, 284)" font-family="Helvetica" font-size="12pt" font-weight="bold" font-style="italic" data-name="BaseMeasurements">
								<g transform="translate(8, 8)" fill="#33322E" text-align="center" data-name="BaseMeasurements">
									<text x="75.0" y="13.5" stroke="none" text-anchor="middle" data-name="BaseMeasurements">BaseMeasurements</text>
								
								</g>
							</g>
						</g>
					<g data-name="BaseQuantifiables">
							<g fill="orange" stroke="#33322E" stroke-dasharray="6 6" data-name="BaseQuantifiables">
								<rect x="202.8" y="142.0" height="31.0" width="156.0" data-name="BaseQuantifiables"></rect>
							</g>
						<g transform="translate(202.75, 142)" font-family="Helvetica" font-size="12pt" font-weight="bold" font-style="italic" data-name="BaseQuantifiables">
								<g transform="translate(8, 8)" fill="#33322E" text-align="center" data-name="BaseQuantifiables">
									<text x="70.0" y="13.5" stroke="none" text-anchor="middle" data-name="BaseQuantifiables">BaseQuantifiables</text>
								
								</g>
							</g>
						</g>
					<g data-name="Quantifiables">
							<g fill="orange" stroke="#33322E" stroke-dasharray="6 6" data-name="Quantifiables">
								<rect x="222.3" y="71.0" height="31.0" width="117.0" data-name="Quantifiables"></rect>
							</g>
						<g transform="translate(222.25, 71)" font-family="Helvetica" font-size="12pt" font-weight="bold" font-style="italic" data-name="Quantifiables">
								<g transform="translate(8, 8)" fill="#33322E" text-align="center" data-name="Quantifiables">
									<text x="50.5" y="13.5" stroke="none" text-anchor="middle" data-name="Quantifiables">Quantifiables</text>
								
								</g>
							</g>
						</g>
					<g data-name="BaseMeasures">
							<g fill="orange" stroke="#33322E" stroke-dasharray="6 6" data-name="BaseMeasures">
								<rect x="358.8" y="0.0" height="31.0" width="128.0" data-name="BaseMeasures"></rect>
							</g>
						<g transform="translate(358.75, 0)" font-family="Helvetica" font-size="12pt" font-weight="bold" font-style="italic" data-name="BaseMeasures">
								<g transform="translate(8, 8)" fill="#33322E" text-align="center" data-name="BaseMeasures">
									<text x="56.0" y="13.5" stroke="none" text-anchor="middle" data-name="BaseMeasures">BaseMeasures</text>
								
								</g>
							</g>
						</g>
					<g data-name="Spreads">
							<g fill="orange" stroke="#33322E" stroke-dasharray="6 6" data-name="Spreads">
								<rect x="580.5" y="426.0" height="31.0" width="79.0" data-name="Spreads"></rect>
							</g>
						<g transform="translate(580.5, 426)" font-family="Helvetica" font-size="12pt" font-weight="bold" font-style="italic" data-name="Spreads">
								<g transform="translate(8, 8)" fill="#33322E" text-align="center" data-name="Spreads">
									<text x="31.5" y="13.5" stroke="none" text-anchor="middle" data-name="Spreads">Spreads</text>
								
								</g>
							</g>
						</g>
					<g data-name="Shapes">
							<g fill="orange" stroke="#33322E" stroke-dasharray="6 6" data-name="Shapes">
								<rect x="583.5" y="497.0" height="31.0" width="73.0" data-name="Shapes"></rect>
							</g>
						<g transform="translate(583.5, 497)" font-family="Helvetica" font-size="12pt" font-weight="bold" font-style="italic" data-name="Shapes">
								<g transform="translate(8, 8)" fill="#33322E" text-align="center" data-name="Shapes">
									<text x="28.5" y="13.5" stroke="none" text-anchor="middle" data-name="Shapes">Shapes</text>
								
								</g>
							</g>
						</g>
					<g data-name="BaseRates">
							<g fill="orange" stroke="#33322E" stroke-dasharray="6 6" data-name="BaseRates">
								<rect x="23.5" y="639.0" height="31.0" width="98.0" data-name="BaseRates"></rect>
							</g>
						<g transform="translate(23.5, 639)" font-family="Helvetica" font-size="12pt" font-weight="bold" font-style="italic" data-name="BaseRates">
								<g transform="translate(8, 8)" fill="#33322E" text-align="center" data-name="BaseRates">
									<text x="41.0" y="13.5" stroke="none" text-anchor="middle" data-name="BaseRates">BaseRates</text>
								
								</g>
							</g>
						</g>
					<g data-name="SimpleShapes">
							<g fill="yellow" stroke="#33322E" data-name="SimpleShapes">
								<rect x="544.5" y="568.0" height="31.0" width="125.0" data-name="SimpleShapes"></rect>
							</g>
						<g transform="translate(544.5, 568)" font-family="Helvetica" font-size="12pt" font-weight="bold" font-style="italic" data-name="SimpleShapes">
								<g transform="translate(8, 8)" fill="#33322E" text-align="center" data-name="SimpleShapes">
									<text x="54.5" y="13.5" stroke="none" text-anchor="middle" data-name="SimpleShapes">SimpleShapes</text>
								
								</g>
							</g>
						</g>
					<g data-name="ComplexShapes">
							<g fill="yellow" stroke="#33322E" data-name="ComplexShapes">
								<rect x="616.0" y="710.0" height="31.0" width="140.0" data-name="ComplexShapes"></rect>
							</g>
						<g transform="translate(616, 710)" font-family="Helvetica" font-size="12pt" font-weight="bold" font-style="italic" data-name="ComplexShapes">
								<g transform="translate(8, 8)" fill="#33322E" text-align="center" data-name="ComplexShapes">
									<text x="62.0" y="13.5" stroke="none" text-anchor="middle" data-name="ComplexShapes">ComplexShapes</text>
								
								</g>
							</g>
						</g>
					<g data-name="SimpleRates">
							<g fill="yellow" stroke="#33322E" data-name="SimpleRates">
								<rect x="16.5" y="710.0" height="31.0" width="112.0" data-name="SimpleRates"></rect>
							</g>
						<g transform="translate(16.5, 710)" font-family="Helvetica" font-size="12pt" font-weight="bold" font-style="italic" data-name="SimpleRates">
								<g transform="translate(8, 8)" fill="#33322E" text-align="center" data-name="SimpleRates">
									<text x="48.0" y="13.5" stroke="none" text-anchor="middle" data-name="SimpleRates">SimpleRates</text>
								
								</g>
							</g>
						</g>
					<g data-name="Measurements">
							<g fill="lime" stroke="#33322E" data-name="Measurements">
								<rect x="219.5" y="355.0" height="31.0" width="128.0" data-name="Measurements"></rect>
							</g>
						<g transform="translate(219.5, 355)" font-family="Helvetica" font-size="12pt" font-weight="bold" font-style="normal" data-name="Measurements">
								<g transform="translate(8, 8)" fill="#33322E" text-align="center" data-name="Measurements">
									<text x="56.0" y="13.5" stroke="none" text-anchor="middle" data-name="Measurements">Measurements</text>
								
								</g>
							</g>
						</g>
					<g data-name="Measures">
							<g fill="lime" stroke="#33322E" data-name="Measures">
								<rect x="300.0" y="426.0" height="31.0" width="90.0" data-name="Measures"></rect>
							</g>
						<g transform="translate(300, 426)" font-family="Helvetica" font-size="12pt" font-weight="bold" font-style="normal" data-name="Measures">
								<g transform="translate(8, 8)" fill="#33322E" text-align="center" data-name="Measures">
									<text x="37.0" y="13.5" stroke="none" text-anchor="middle" data-name="Measures">Measures</text>
								
								</g>
							</g>
						</g>
					<g data-name="ShapeLimits">
							<g fill="lime" stroke="#33322E" data-name="ShapeLimits">
								<rect x="696.5" y="497.0" height="31.0" width="111.0" data-name="ShapeLimits"></rect>
							</g>
						<g transform="translate(696.5, 497)" font-family="Helvetica" font-size="12pt" font-weight="bold" font-style="normal" data-name="ShapeLimits">
								<g transform="translate(8, 8)" fill="#33322E" text-align="center" data-name="ShapeLimits">
									<text x="47.5" y="13.5" stroke="none" text-anchor="middle" data-name="ShapeLimits">ShapeLimits</text>
								
								</g>
							</g>
						</g>
					<g data-name="RateComponents">
							<g fill="lime" stroke="#33322E" data-name="RateComponents">
								<rect x="57.5" y="497.0" height="31.0" width="148.0" data-name="RateComponents"></rect>
							</g>
						<g transform="translate(57.5, 497)" font-family="Helvetica" font-size="12pt" font-weight="bold" font-style="normal" data-name="RateComponents">
								<g transform="translate(8, 8)" fill="#33322E" text-align="center" data-name="RateComponents">
									<text x="66.0" y="13.5" stroke="none" text-anchor="middle" data-name="RateComponents">RateComponents</text>
								
								</g>
							</g>
						</g>
					<g data-name="Rates">
							<g fill="lime" stroke="#33322E" data-name="Rates">
								<rect x="101.5" y="568.0" height="31.0" width="60.0" data-name="Rates"></rect>
							</g>
						<g transform="translate(101.5, 568)" font-family="Helvetica" font-size="12pt" font-weight="bold" font-style="normal" data-name="Rates">
								<g transform="translate(8, 8)" fill="#33322E" text-align="center" data-name="Rates">
									<text x="22.0" y="13.5" stroke="none" text-anchor="middle" data-name="Rates">Rates</text>
								
								</g>
							</g>
						</g>
					<g data-name="Proportions">
							<g fill="lime" stroke="#33322E" data-name="Proportions">
								<rect x="278.5" y="639.0" height="31.0" width="107.0" data-name="Proportions"></rect>
							</g>
						<g transform="translate(278.5, 639)" font-family="Helvetica" font-size="12pt" font-weight="bold" font-style="normal" data-name="Proportions">
								<g transform="translate(8, 8)" fill="#33322E" text-align="center" data-name="Proportions">
									<text x="45.5" y="13.5" stroke="none" text-anchor="middle" data-name="Proportions">Proportions</text>
								
								</g>
							</g>
						</g>
					<g data-name="ProportionLimits">
							<g fill="lime" stroke="#33322E" data-name="ProportionLimits">
								<rect x="0.0" y="781.0" height="31.0" width="145.0" data-name="ProportionLimits"></rect>
							</g>
						<g transform="translate(0, 781)" font-family="Helvetica" font-size="12pt" font-weight="bold" font-style="normal" data-name="ProportionLimits">
								<g transform="translate(8, 8)" fill="#33322E" text-align="center" data-name="ProportionLimits">
									<text x="64.5" y="13.5" stroke="none" text-anchor="middle" data-name="ProportionLimits">ProportionLimits</text>
								
								</g>
							</g>
						</g>
					<g data-name="BulkSpreads">
							<g fill="lime" stroke="#33322E" data-name="BulkSpreads">
								<rect x="416.5" y="497.0" height="31.0" width="114.0" data-name="BulkSpreads"></rect>
							</g>
						<g transform="translate(416.5, 497)" font-family="Helvetica" font-size="12pt" font-weight="bold" font-style="normal" data-name="BulkSpreads">
								<g transform="translate(8, 8)" fill="#33322E" text-align="center" data-name="BulkSpreads">
									<text x="49.0" y="13.5" stroke="none" text-anchor="middle" data-name="BulkSpreads">BulkSpreads</text>
								
								</g>
							</g>
						</g>
					<g data-name="PlaneShapes">
							<g fill="lime" stroke="#33322E" data-name="PlaneShapes">
								<rect x="438.5" y="639.0" height="31.0" width="116.0" data-name="PlaneShapes"></rect>
							</g>
						<g transform="translate(438.5, 639)" font-family="Helvetica" font-size="12pt" font-weight="bold" font-style="normal" data-name="PlaneShapes">
								<g transform="translate(8, 8)" fill="#33322E" text-align="center" data-name="PlaneShapes">
									<text x="50.0" y="13.5" stroke="none" text-anchor="middle" data-name="PlaneShapes">PlaneShapes</text>
								
								</g>
							</g>
						</g>
					<g data-name="DryBodies">
							<g fill="lime" stroke="#33322E" data-name="DryBodies">
								<rect x="448.5" y="710.0" height="31.0" width="96.0" data-name="DryBodies"></rect>
							</g>
						<g transform="translate(448.5, 710)" font-family="Helvetica" font-size="12pt" font-weight="bold" font-style="normal" data-name="DryBodies">
								<g transform="translate(8, 8)" fill="#33322E" text-align="center" data-name="DryBodies">
									<text x="40.0" y="13.5" stroke="none" text-anchor="middle" data-name="DryBodies">DryBodies</text>
								
								</g>
							</g>
						</g>
					<g data-name="Masses">
							<g fill="lime" stroke="#33322E" data-name="Masses">
								<rect x="359.8" y="781.0" height="31.0" width="74.0" data-name="Masses"></rect>
							</g>
						<g transform="translate(359.75, 781)" font-family="Helvetica" font-size="12pt" font-weight="bold" font-style="normal" data-name="Masses">
								<g transform="translate(8, 8)" fill="#33322E" text-align="center" data-name="Masses">
									<text x="29.0" y="13.5" stroke="none" text-anchor="middle" data-name="Masses">Masses</text>
								
								</g>
							</g>
						</g>
					<g data-name="Sections">
							<g fill="lime" stroke="#33322E" data-name="Sections">
								<rect x="624.5" y="781.0" height="31.0" width="83.0" data-name="Sections"></rect>
							</g>
						<g transform="translate(624.5, 781)" font-family="Helvetica" font-size="12pt" font-weight="bold" font-style="normal" data-name="Sections">
								<g transform="translate(8, 8)" fill="#33322E" text-align="center" data-name="Sections">
									<text x="33.5" y="13.5" stroke="none" text-anchor="middle" data-name="Sections">Sections</text>
								
								</g>
							</g>
						</g>
					<g data-name="ComplexDryBodies">
							<g fill="lime" stroke="#33322E" data-name="ComplexDryBodies">
								<rect x="584.0" y="852.0" height="31.0" width="164.0" data-name="ComplexDryBodies"></rect>
							</g>
						<g transform="translate(584, 852)" font-family="Helvetica" font-size="12pt" font-weight="bold" font-style="normal" data-name="ComplexDryBodies">
								<g transform="translate(8, 8)" fill="#33322E" text-align="center" data-name="ComplexDryBodies">
									<text x="74.0" y="13.5" stroke="none" text-anchor="middle" data-name="ComplexDryBodies">ComplexDryBodies</text>
								
								</g>
							</g>
						</g>
					</g>
				</g>
			</g>
		</g>
	</svg>