<svg version="1.1" baseProfile="full" width="734.3" height="868.0" viewbox="0 0 734.25 868" xmlns="http://www.w3.org/2000/svg" xmlns:xlink="http://www.w3.org/1999/xlink" xmlns:ev="http://www.w3.org/2001/xml-events">
		<title >ProjectsDependencies</title>
	<desc >#title: ProjectsDependencies
	#.base: fill=orange dashed bold italic
	#.abstract: fill=yellow bold italic
	#.concrete: fill=lime bold
	
	[&lt;base&gt;Common]
	[&lt;base&gt;Measurables]
	[&lt;base&gt;BaseMeasurements]
	[&lt;base&gt;BaseQuantifiables]
	[&lt;base&gt;Quantifiables]
	[&lt;base&gt;BaseMeasures]
	[&lt;base&gt;Spreads]
	[&lt;base&gt;Shapes]
	[&lt;base&gt;BaseRates]
	
	[&lt;abstract&gt;SimpleShapes]
	[&lt;abstract&gt;ComplexShapes]
	
	[&lt;concrete&gt;Measurements]
	[&lt;concrete&gt;Measures]
	[&lt;concrete&gt;ShapeLimits]
	[&lt;concrete&gt;RateComponents]
	[&lt;concrete&gt;SimpleRates]
	[&lt;concrete&gt;Rates]
	[&lt;concrete&gt;BulkSpreads]
	[&lt;concrete&gt;PlaneShapes]
	[&lt;concrete&gt;DryBodies]
	[&lt;concrete&gt;Masses]
	[&lt;concrete&gt;Sections]
	[&lt;concrete&gt;ComplexDryBodies]
	
	[Common]&lt;--[Measurables]
	[Measurables]&lt;--[BaseMeasurements]
	[BaseQuantifiables]--&gt;[Measurables]
	[Quantifiables]--&gt;[BaseQuantifiables]
	[BaseMeasurements]&lt;--[BaseMeasures]
	[Quantifiables]&lt;--[BaseMeasures]
	[BaseMeasures]&lt;--[Spreads]
	[Spreads]&lt;--[Shapes]
	[BaseMeasurements]&lt;--[Measurements]
	[Measurements]&lt;--[Measures]
	[BaseMeasures]&lt;--[Measures]
	[Quantifiables]&lt;--[BaseRates]
	[Measures]&lt;--[RateComponents]
	[Rates]--&gt;[BaseRates]
	[RateComponents]&lt;--[Rates]
	[BaseRates]&lt;--[SimpleRates]
	[Measures]&lt;--[SimpleRates]
	[Measures]&lt;--[BulkSpreads]
	[Spreads]&lt;--[BulkSpreads]
	[BulkSpreads]&lt;--[SimpleShapes]
	[Shapes]&lt;--[SimpleShapes]
	[SimpleShapes]&lt;--[PlaneShapes]
	[PlaneShapes]&lt;--[DryBodies]
	[SimpleRates]&lt;--[Masses]
	[DryBodies]&lt;--[Masses]
	[SimpleShapes]&lt;--[ComplexShapes]
	[ShapeLimits]--&gt;[SimpleShapes]
	[DryBodies]&lt;--[Sections]
	[ComplexShapes]&lt;--[Sections]
	[Sections]&lt;--[ComplexDryBodies]</desc>
	<g stroke-width="1.0" text-align="left" font="12pt Helvetica, Arial, sans-serif" font-size="12pt" font-family="Helvetica" font-weight="bold" font-style="normal">
			<g font-family="Helvetica" font-size="12pt" font-weight="bold" font-style="normal" stroke-width="3.0" stroke-linejoin="round" stroke-linecap="round" stroke="#33322E">
				<g stroke="transparent" fill="transparent">
					<rect x="0.0" y="0.0" height="868.0" width="734.3" stroke="none"></rect>
				</g>
			<g transform="translate(8, 8)" fill="#33322E">
					<g transform="translate(20, 20)" fill="#33322E" font-family="Helvetica" font-size="12pt" font-weight="normal" font-style="normal">
						<g stroke-dasharray="6 6">
							<path d="M130.5 108.7 L130.5 122 L185.14788732394368 142 L185.1 142.0 " fill="none"></path>
						</g>
					<path d="M135.8 115.3 L130.5 108.7 L125.2 115.3 L130.5 102.0 Z"></path>
					<g stroke-dasharray="6 6">
							<path d="M227.5 179.7 L227.5 193 L227.5 213 L227.5 213.0 " fill="none"></path>
						</g>
					<path d="M232.8 186.3 L227.5 179.7 L222.2 186.3 L227.5 173.0 Z"></path>
					<g stroke-dasharray="6 6">
							<path d="M291.0 102.0 L291 122 L261.0444013626048 138.74683073429182 L261.0 138.7 " fill="none"></path>
						</g>
					<path d="M264.3 130.8 L261.0 138.7 L269.5 140.1 L255.2 142.0 Z"></path>
					<g stroke-dasharray="6 6">
							<path d="M320.6 31.0 L291 51 L291 64.33333333333333 L291.0 64.3 " fill="none"></path>
						</g>
					<path d="M285.7 57.7 L291.0 64.3 L296.3 57.7 L291.0 71.0 Z"></path>
					<g stroke-dasharray="6 6">
							<path d="M278.6 246.2 L330 264 L400.4225352112676 284 L400.4 284.0 " fill="none"></path>
						</g>
					<path d="M286.6 243.3 L278.6 246.2 L283.1 253.4 L272.3 244.0 Z"></path>
					<g stroke-dasharray="6 6">
							<path d="M408.5 31.7 L486.25 51 L486.25 86.5 L486.25 86.5 L486.25 122 L486.25 122 L486.25 157.5 L486.25 157.5 L486.25 193 L486.25 193 L486.25 228.5 L486.25 228.5 L486.25 264 L486.25 264 L468.6443661971831 284 L468.6 284.0 " fill="none"></path>
						</g>
					<path d="M416.2 28.1 L408.5 31.7 L413.7 38.4 L402.0 30.0 Z"></path>
					<g stroke-dasharray="6 6">
							<path d="M467.0 320.8 L475 335 L475 355 L475.0 355.0 " fill="none"></path>
						</g>
					<path d="M474.9 324.0 L467.0 320.8 L465.6 329.2 L463.7 315.0 Z"></path>
					<g stroke-dasharray="6 6">
							<path d="M484.6 392.1 L490.75 406 L490.75 426 L490.8 426.0 " fill="none"></path>
						</g>
					<path d="M492.2 396.0 L484.6 392.1 L482.4 400.4 L481.9 386.0 Z"></path>
					<g stroke-dasharray="6 6">
							<path d="M183.7 246.5 L141.25 264 L141.25 284 L141.3 284.0 " fill="none"></path>
						</g>
					<path d="M179.5 254.0 L183.7 246.5 L175.5 244.1 L189.8 244.0 Z"></path>
					<g stroke-dasharray="6 6">
							<path d="M141.3 321.7 L141.25 335 L196.8838028169014 355 L196.9 355.0 " fill="none"></path>
						</g>
					<path d="M146.6 328.3 L141.3 321.7 L135.9 328.3 L141.3 315.0 Z"></path>
					<g stroke-dasharray="6 6">
							<path d="M390.7 316.7 L322.5 335 L276.0211267605634 355 L276.0 355.0 " fill="none"></path>
						</g>
					<path d="M385.6 323.6 L390.7 316.7 L382.9 313.3 L397.1 315.0 Z"></path>
					<g stroke-dasharray="6 6">
							<path d="M278.4 22.8 L27.75 51 L27.75 86.5 L27.75 86.5 L27.75 122 L27.75 122 L27.75 157.5 L27.75 157.5 L27.75 193 L27.75 193 L27.75 228.5 L27.75 228.5 L27.75 264 L27.75 264 L27.75 299.5 L27.75 299.5 L27.75 335 L27.75 335 L27.75 370.5 L27.75 370.5 L27.75 406 L27.75 406 L27.75 441.5 L27.75 441.5 L27.75 477 L27.75 477 L27.75 512.5 L27.75 512.5 L27.75 548 L27.75 548 L39.72183098591549 568 L39.7 568.0 " fill="none"></path>
						</g>
					<path d="M272.3 28.9 L278.4 22.8 L271.2 18.3 L285.0 22.1 Z"></path>
					<g stroke-dasharray="6 6">
							<path d="M190.8 388.3 L141.75 406 L141.75 426 L141.8 426.0 " fill="none"></path>
						</g>
					<path d="M186.4 395.5 L190.8 388.3 L182.7 385.5 L197.1 386.0 Z"></path>
					<g stroke-dasharray="6 6">
							<path d="M141.8 528.0 L141.75 548 L95.72266745658553 565.6169305152691 L95.7 565.6 " fill="none"></path>
						</g>
					<path d="M100.0 558.3 L95.7 565.6 L103.9 568.2 L89.5 568.0 Z"></path>
					<g stroke-dasharray="6 6">
							<path d="M141.8 463.7 L141.75 477 L141.75 497 L141.8 497.0 " fill="none"></path>
						</g>
					<path d="M147.1 470.3 L141.8 463.7 L136.4 470.3 L141.8 457.0 Z"></path>
					<g stroke-dasharray="6 6">
							<path d="M49.0 605.7 L49 619 L81.11267605633803 639 L81.1 639.0 " fill="none"></path>
						</g>
					<path d="M54.3 612.3 L49.0 605.7 L43.7 612.3 L49.0 599.0 Z"></path>
					<g stroke-dasharray="6 6">
							<path d="M249.6 392.1 L255.75 406 L255.75 441.5 L255.75 441.5 L255.75 477 L255.75 477 L255.75 512.5 L255.75 512.5 L255.75 548 L255.75 548 L255.75 583.5 L255.75 583.5 L255.75 619 L255.75 619 L162 641.2245409015025 L162.0 641.2 " fill="none"></path>
						</g>
					<path d="M257.2 396.0 L249.6 392.1 L247.4 400.4 L246.9 386.0 Z"></path>
					<g stroke-dasharray="6 6">
							<path d="M284.2 388.5 L327 406 L343.056338028169 426 L343.1 426.0 " fill="none"></path>
						</g>
					<path d="M292.3 386.1 L284.2 388.5 L288.3 396.0 L278.0 386.0 Z"></path>
					<g stroke-dasharray="6 6">
							<path d="M438.0 389.0 L404 406 L376.67605633802816 426 L376.7 426.0 " fill="none"></path>
						</g>
					<path d="M434.5 396.7 L438.0 389.0 L429.7 387.2 L444.0 386.0 Z"></path>
					<g stroke-dasharray="6 6">
							<path d="M355.5 463.7 L355.5 477 L431.69718309859155 497 L431.7 497.0 " fill="none"></path>
						</g>
					<path d="M360.8 470.3 L355.5 463.7 L350.2 470.3 L355.5 457.0 Z"></path>
					<g stroke-dasharray="6 6">
							<path d="M490.8 463.7 L490.75 477 L490.75 497 L490.8 497.0 " fill="none"></path>
						</g>
					<path d="M496.1 470.3 L490.8 463.7 L485.4 470.3 L490.8 457.0 Z"></path>
					<g stroke-dasharray="6 6">
							<path d="M435.6 530.0 L379 548 L379 568 L379.0 568.0 " fill="none"></path>
						</g>
					<path d="M430.9 537.1 L435.6 530.0 L427.6 527.0 L442.0 528.0 Z"></path>
					<g stroke-dasharray="6 6">
							<path d="M379.0 605.7 L379 619 L379 639 L379.0 639.0 " fill="none"></path>
						</g>
					<path d="M384.3 612.3 L379.0 605.7 L373.7 612.3 L379.0 599.0 Z"></path>
					<g stroke-dasharray="6 6">
							<path d="M106.0 676.7 L106 690 L117.26760563380282 710 L117.3 710.0 " fill="none"></path>
						</g>
					<path d="M111.3 683.3 L106.0 676.7 L100.7 683.3 L106.0 670.0 Z"></path>
					<g stroke-dasharray="6 6">
							<path d="M350.8 673.8 L327 690 L163 718.9651741293533 L163.0 719.0 " fill="none"></path>
						</g>
					<path d="M348.3 681.9 L350.8 673.8 L342.3 673.1 L356.3 670.0 Z"></path>
					<g stroke-dasharray="6 6">
							<path d="M530.2 530.8 L567.25 548 L567.25 583.5 L567.25 583.5 L567.25 619 L567.25 619 L567.25 639 L567.3 639.0 " fill="none"></path>
						</g>
					<path d="M538.5 528.8 L530.2 530.8 L534.0 538.5 L524.2 528.0 Z"></path>
					<g stroke-dasharray="6 6">
							<path d="M622.8 457.0 L622.75 477 L554.8217118718653 495.26859264052104 L554.8 495.3 " fill="none"></path>
						</g>
					<path d="M559.9 488.4 L554.8 495.3 L562.6 498.7 L548.4 497.0 Z"></path>
					<g stroke-dasharray="6 6">
							<path d="M410.5 673.4 L438 690 L508.25 712.3165548098434 L508.3 712.3 " fill="none"></path>
						</g>
					<path d="M418.9 672.3 L410.5 673.4 L413.4 681.4 L404.8 670.0 Z"></path>
					<g stroke-dasharray="6 6">
							<path d="M567.3 676.7 L567.25 690 L557.3908450704225 710 L557.4 710.0 " fill="none"></path>
						</g>
					<path d="M572.6 683.3 L567.3 676.7 L561.9 683.3 L567.3 670.0 Z"></path>
					<g stroke-dasharray="6 6">
							<path d="M549.8 747.7 L549.75 761 L549.75 781 L549.8 781.0 " fill="none"></path>
						</g>
					<path d="M555.1 754.3 L549.8 747.7 L544.4 754.3 L549.8 741.0 Z"></path>
					<g data-name="Common">
							<g fill="orange" stroke="#33322E" stroke-dasharray="6 6" data-name="Common">
								<rect x="88.0" y="71.0" height="31.0" width="85.0" data-name="Common"></rect>
							</g>
						<g transform="translate(88, 71)" font-family="Helvetica" font-size="12pt" font-weight="bold" font-style="italic" data-name="Common">
								<g transform="translate(8, 8)" fill="#33322E" text-align="center" data-name="Common">
									<text x="34.5" y="13.5" stroke="none" text-anchor="middle" data-name="Common">Common</text>
								
								</g>
							</g>
						</g>
					<g data-name="Measurables">
							<g fill="orange" stroke="#33322E" stroke-dasharray="6 6" data-name="Measurables">
								<rect x="171.0" y="142.0" height="31.0" width="113.0" data-name="Measurables"></rect>
							</g>
						<g transform="translate(171, 142)" font-family="Helvetica" font-size="12pt" font-weight="bold" font-style="italic" data-name="Measurables">
								<g transform="translate(8, 8)" fill="#33322E" text-align="center" data-name="Measurables">
									<text x="48.5" y="13.5" stroke="none" text-anchor="middle" data-name="Measurables">Measurables</text>
								
								</g>
							</g>
						</g>
					<g data-name="BaseMeasurements">
							<g fill="orange" stroke="#33322E" stroke-dasharray="6 6" data-name="BaseMeasurements">
								<rect x="144.5" y="213.0" height="31.0" width="166.0" data-name="BaseMeasurements"></rect>
							</g>
						<g transform="translate(144.5, 213)" font-family="Helvetica" font-size="12pt" font-weight="bold" font-style="italic" data-name="BaseMeasurements">
								<g transform="translate(8, 8)" fill="#33322E" text-align="center" data-name="BaseMeasurements">
									<text x="75.0" y="13.5" stroke="none" text-anchor="middle" data-name="BaseMeasurements">BaseMeasurements</text>
								
								</g>
							</g>
						</g>
					<g data-name="BaseQuantifiables">
							<g fill="orange" stroke="#33322E" stroke-dasharray="6 6" data-name="BaseQuantifiables">
								<rect x="213.0" y="71.0" height="31.0" width="156.0" data-name="BaseQuantifiables"></rect>
							</g>
						<g transform="translate(213, 71)" font-family="Helvetica" font-size="12pt" font-weight="bold" font-style="italic" data-name="BaseQuantifiables">
								<g transform="translate(8, 8)" fill="#33322E" text-align="center" data-name="BaseQuantifiables">
									<text x="70.0" y="13.5" stroke="none" text-anchor="middle" data-name="BaseQuantifiables">BaseQuantifiables</text>
								
								</g>
							</g>
						</g>
					<g data-name="Quantifiables">
							<g fill="orange" stroke="#33322E" stroke-dasharray="6 6" data-name="Quantifiables">
								<rect x="285.0" y="0.0" height="31.0" width="117.0" data-name="Quantifiables"></rect>
							</g>
						<g transform="translate(285, 0)" font-family="Helvetica" font-size="12pt" font-weight="bold" font-style="italic" data-name="Quantifiables">
								<g transform="translate(8, 8)" fill="#33322E" text-align="center" data-name="Quantifiables">
									<text x="50.5" y="13.5" stroke="none" text-anchor="middle" data-name="Quantifiables">Quantifiables</text>
								
								</g>
							</g>
						</g>
					<g data-name="BaseMeasures">
							<g fill="orange" stroke="#33322E" stroke-dasharray="6 6" data-name="BaseMeasures">
								<rect x="391.0" y="284.0" height="31.0" width="128.0" data-name="BaseMeasures"></rect>
							</g>
						<g transform="translate(391, 284)" font-family="Helvetica" font-size="12pt" font-weight="bold" font-style="italic" data-name="BaseMeasures">
								<g transform="translate(8, 8)" fill="#33322E" text-align="center" data-name="BaseMeasures">
									<text x="56.0" y="13.5" stroke="none" text-anchor="middle" data-name="BaseMeasures">BaseMeasures</text>
								
								</g>
							</g>
						</g>
					<g data-name="Spreads">
							<g fill="orange" stroke="#33322E" stroke-dasharray="6 6" data-name="Spreads">
								<rect x="435.5" y="355.0" height="31.0" width="79.0" data-name="Spreads"></rect>
							</g>
						<g transform="translate(435.5, 355)" font-family="Helvetica" font-size="12pt" font-weight="bold" font-style="italic" data-name="Spreads">
								<g transform="translate(8, 8)" fill="#33322E" text-align="center" data-name="Spreads">
									<text x="31.5" y="13.5" stroke="none" text-anchor="middle" data-name="Spreads">Spreads</text>
								
								</g>
							</g>
						</g>
					<g data-name="Shapes">
							<g fill="orange" stroke="#33322E" stroke-dasharray="6 6" data-name="Shapes">
								<rect x="454.3" y="426.0" height="31.0" width="73.0" data-name="Shapes"></rect>
							</g>
						<g transform="translate(454.25, 426)" font-family="Helvetica" font-size="12pt" font-weight="bold" font-style="italic" data-name="Shapes">
								<g transform="translate(8, 8)" fill="#33322E" text-align="center" data-name="Shapes">
									<text x="28.5" y="13.5" stroke="none" text-anchor="middle" data-name="Shapes">Shapes</text>
								
								</g>
							</g>
						</g>
					<g data-name="BaseRates">
							<g fill="orange" stroke="#33322E" stroke-dasharray="6 6" data-name="BaseRates">
								<rect x="0.0" y="568.0" height="31.0" width="98.0" data-name="BaseRates"></rect>
							</g>
						<g transform="translate(0, 568)" font-family="Helvetica" font-size="12pt" font-weight="bold" font-style="italic" data-name="BaseRates">
								<g transform="translate(8, 8)" fill="#33322E" text-align="center" data-name="BaseRates">
									<text x="41.0" y="13.5" stroke="none" text-anchor="middle" data-name="BaseRates">BaseRates</text>
								
								</g>
							</g>
						</g>
					<g data-name="SimpleShapes">
							<g fill="yellow" stroke="#33322E" data-name="SimpleShapes">
								<rect x="428.3" y="497.0" height="31.0" width="125.0" data-name="SimpleShapes"></rect>
							</g>
						<g transform="translate(428.25, 497)" font-family="Helvetica" font-size="12pt" font-weight="bold" font-style="italic" data-name="SimpleShapes">
								<g transform="translate(8, 8)" fill="#33322E" text-align="center" data-name="SimpleShapes">
									<text x="54.5" y="13.5" stroke="none" text-anchor="middle" data-name="SimpleShapes">SimpleShapes</text>
								
								</g>
							</g>
						</g>
					<g data-name="ComplexShapes">
							<g fill="yellow" stroke="#33322E" data-name="ComplexShapes">
								<rect x="497.3" y="639.0" height="31.0" width="140.0" data-name="ComplexShapes"></rect>
							</g>
						<g transform="translate(497.25, 639)" font-family="Helvetica" font-size="12pt" font-weight="bold" font-style="italic" data-name="ComplexShapes">
								<g transform="translate(8, 8)" fill="#33322E" text-align="center" data-name="ComplexShapes">
									<text x="62.0" y="13.5" stroke="none" text-anchor="middle" data-name="ComplexShapes">ComplexShapes</text>
								
								</g>
							</g>
						</g>
					<g data-name="Measurements">
							<g fill="lime" stroke="#33322E" data-name="Measurements">
								<rect x="77.3" y="284.0" height="31.0" width="128.0" data-name="Measurements"></rect>
							</g>
						<g transform="translate(77.25, 284)" font-family="Helvetica" font-size="12pt" font-weight="bold" font-style="normal" data-name="Measurements">
								<g transform="translate(8, 8)" fill="#33322E" text-align="center" data-name="Measurements">
									<text x="56.0" y="13.5" stroke="none" text-anchor="middle" data-name="Measurements">Measurements</text>
								
								</g>
							</g>
						</g>
					<g data-name="Measures">
							<g fill="lime" stroke="#33322E" data-name="Measures">
								<rect x="195.0" y="355.0" height="31.0" width="90.0" data-name="Measures"></rect>
							</g>
						<g transform="translate(195, 355)" font-family="Helvetica" font-size="12pt" font-weight="bold" font-style="normal" data-name="Measures">
								<g transform="translate(8, 8)" fill="#33322E" text-align="center" data-name="Measures">
									<text x="37.0" y="13.5" stroke="none" text-anchor="middle" data-name="Measures">Measures</text>
								
								</g>
							</g>
						</g>
					<g data-name="ShapeLimits">
							<g fill="lime" stroke="#33322E" data-name="ShapeLimits">
								<rect x="567.3" y="426.0" height="31.0" width="111.0" data-name="ShapeLimits"></rect>
							</g>
						<g transform="translate(567.25, 426)" font-family="Helvetica" font-size="12pt" font-weight="bold" font-style="normal" data-name="ShapeLimits">
								<g transform="translate(8, 8)" fill="#33322E" text-align="center" data-name="ShapeLimits">
									<text x="47.5" y="13.5" stroke="none" text-anchor="middle" data-name="ShapeLimits">ShapeLimits</text>
								
								</g>
							</g>
						</g>
					<g data-name="RateComponents">
							<g fill="lime" stroke="#33322E" data-name="RateComponents">
								<rect x="67.8" y="426.0" height="31.0" width="148.0" data-name="RateComponents"></rect>
							</g>
						<g transform="translate(67.75, 426)" font-family="Helvetica" font-size="12pt" font-weight="bold" font-style="normal" data-name="RateComponents">
								<g transform="translate(8, 8)" fill="#33322E" text-align="center" data-name="RateComponents">
									<text x="66.0" y="13.5" stroke="none" text-anchor="middle" data-name="RateComponents">RateComponents</text>
								
								</g>
							</g>
						</g>
					<g data-name="SimpleRates">
							<g fill="lime" stroke="#33322E" data-name="SimpleRates">
								<rect x="50.0" y="639.0" height="31.0" width="112.0" data-name="SimpleRates"></rect>
							</g>
						<g transform="translate(50, 639)" font-family="Helvetica" font-size="12pt" font-weight="bold" font-style="normal" data-name="SimpleRates">
								<g transform="translate(8, 8)" fill="#33322E" text-align="center" data-name="SimpleRates">
									<text x="48.0" y="13.5" stroke="none" text-anchor="middle" data-name="SimpleRates">SimpleRates</text>
								
								</g>
							</g>
						</g>
					<g data-name="Rates">
							<g fill="lime" stroke="#33322E" data-name="Rates">
								<rect x="111.8" y="497.0" height="31.0" width="60.0" data-name="Rates"></rect>
							</g>
						<g transform="translate(111.75, 497)" font-family="Helvetica" font-size="12pt" font-weight="bold" font-style="normal" data-name="Rates">
								<g transform="translate(8, 8)" fill="#33322E" text-align="center" data-name="Rates">
									<text x="22.0" y="13.5" stroke="none" text-anchor="middle" data-name="Rates">Rates</text>
								
								</g>
							</g>
						</g>
					<g data-name="BulkSpreads">
							<g fill="lime" stroke="#33322E" data-name="BulkSpreads">
								<rect x="298.5" y="426.0" height="31.0" width="114.0" data-name="BulkSpreads"></rect>
							</g>
						<g transform="translate(298.5, 426)" font-family="Helvetica" font-size="12pt" font-weight="bold" font-style="normal" data-name="BulkSpreads">
								<g transform="translate(8, 8)" fill="#33322E" text-align="center" data-name="BulkSpreads">
									<text x="49.0" y="13.5" stroke="none" text-anchor="middle" data-name="BulkSpreads">BulkSpreads</text>
								
								</g>
							</g>
						</g>
					<g data-name="PlaneShapes">
							<g fill="lime" stroke="#33322E" data-name="PlaneShapes">
								<rect x="321.0" y="568.0" height="31.0" width="116.0" data-name="PlaneShapes"></rect>
							</g>
						<g transform="translate(321, 568)" font-family="Helvetica" font-size="12pt" font-weight="bold" font-style="normal" data-name="PlaneShapes">
								<g transform="translate(8, 8)" fill="#33322E" text-align="center" data-name="PlaneShapes">
									<text x="50.0" y="13.5" stroke="none" text-anchor="middle" data-name="PlaneShapes">PlaneShapes</text>
								
								</g>
							</g>
						</g>
					<g data-name="DryBodies">
							<g fill="lime" stroke="#33322E" data-name="DryBodies">
								<rect x="331.0" y="639.0" height="31.0" width="96.0" data-name="DryBodies"></rect>
							</g>
						<g transform="translate(331, 639)" font-family="Helvetica" font-size="12pt" font-weight="bold" font-style="normal" data-name="DryBodies">
								<g transform="translate(8, 8)" fill="#33322E" text-align="center" data-name="DryBodies">
									<text x="40.0" y="13.5" stroke="none" text-anchor="middle" data-name="DryBodies">DryBodies</text>
								
								</g>
							</g>
						</g>
					<g data-name="Masses">
							<g fill="lime" stroke="#33322E" data-name="Masses">
								<rect x="89.0" y="710.0" height="31.0" width="74.0" data-name="Masses"></rect>
							</g>
						<g transform="translate(89, 710)" font-family="Helvetica" font-size="12pt" font-weight="bold" font-style="normal" data-name="Masses">
								<g transform="translate(8, 8)" fill="#33322E" text-align="center" data-name="Masses">
									<text x="29.0" y="13.5" stroke="none" text-anchor="middle" data-name="Masses">Masses</text>
								
								</g>
							</g>
						</g>
					<g data-name="Sections">
							<g fill="lime" stroke="#33322E" data-name="Sections">
								<rect x="508.3" y="710.0" height="31.0" width="83.0" data-name="Sections"></rect>
							</g>
						<g transform="translate(508.25, 710)" font-family="Helvetica" font-size="12pt" font-weight="bold" font-style="normal" data-name="Sections">
								<g transform="translate(8, 8)" fill="#33322E" text-align="center" data-name="Sections">
									<text x="33.5" y="13.5" stroke="none" text-anchor="middle" data-name="Sections">Sections</text>
								
								</g>
							</g>
						</g>
					<g data-name="ComplexDryBodies">
							<g fill="lime" stroke="#33322E" data-name="ComplexDryBodies">
								<rect x="467.8" y="781.0" height="31.0" width="164.0" data-name="ComplexDryBodies"></rect>
							</g>
						<g transform="translate(467.75, 781)" font-family="Helvetica" font-size="12pt" font-weight="bold" font-style="normal" data-name="ComplexDryBodies">
								<g transform="translate(8, 8)" fill="#33322E" text-align="center" data-name="ComplexDryBodies">
									<text x="74.0" y="13.5" stroke="none" text-anchor="middle" data-name="ComplexDryBodies">ComplexDryBodies</text>
								
								</g>
							</g>
						</g>
					</g>
				</g>
			</g>
		</g>
	</svg>